<?xml version="1.0" encoding="utf-8"?>
<!-- Generator: Adobe Illustrator 25.2.3, SVG Export Plug-In . SVG Version: 6.00 Build 0)  -->
<svg version="1.1" id="Layer_1" xmlns="http://www.w3.org/2000/svg" xmlns:xlink="http://www.w3.org/1999/xlink" x="0px" y="0px"
	 viewBox="0 0 425.57 116.32" style="enable-background:new 0 0 425.57 116.32;" xml:space="preserve">
<style type="text/css">
	.st0{fill:none;stroke:#878787;stroke-width:0.5;stroke-miterlimit:10;}
	.st1{fill:none;stroke:#B2B2B2;stroke-linecap:round;stroke-miterlimit:10;}
	.st2{fill:#9384BD;stroke:#9284BD;stroke-miterlimit:10;}
	.st3{fill:#4098C8;stroke:#4097C7;stroke-miterlimit:10;}
	.st4{fill:#B2B2B2;}
	.st5{font-family:'ArialMT';}
	.st6{font-size:5.3558px;}
	.st7{fill:#B2B2B2;stroke:#B2B2B2;stroke-width:0.75;stroke-miterlimit:10;}
	.st8{fill:#DED3D4;stroke:#9B5E5D;stroke-width:0.5;stroke-miterlimit:10;}
	.st9{fill:#9B5E5D;}
	.st10{font-family:'Arial-BoldItalicMT';}
	.st11{font-size:6.2451px;}
	.st12{fill:#706F6F;}
	.st13{fill:#706F6F;stroke:#706F6F;stroke-width:0.75;stroke-miterlimit:10;}
	.st14{stroke:#000000;stroke-width:0.75;stroke-miterlimit:10;}
	.st15{fill:#9384BD;}
	.st16{fill:#4FA151;}
	.st17{fill:#4098C8;}
	.st18{fill:#00A482;}
	.st19{fill:#00A482;stroke:#00A381;stroke-miterlimit:10;}
	.st20{fill:#4FA151;stroke:#4DA150;stroke-miterlimit:10;}
	.st21{fill:none;stroke:#9D9D9C;stroke-miterlimit:10;}
	.st22{fill:#B576B0;stroke:#B476B0;stroke-miterlimit:10;}
	.st23{fill:#B576B0;}
	.st24{fill:#D1709D;stroke:#D1709D;stroke-miterlimit:10;}
	.st25{fill:#D1709D;}
	.st26{font-size:7px;}
	.st27{fill:#CBBBA0;}
	.st28{fill:#CBBBA0;stroke:#CBBBA0;stroke-width:0.75;stroke-miterlimit:10;}
	.st29{fill:#A48A7B;}
	.st30{fill:#A48A7B;stroke:#A48A7B;stroke-width:0.75;stroke-miterlimit:10;}
	.st31{fill:#634E42;}
	.st32{fill:#634E42;stroke:#634E42;stroke-width:0.75;stroke-miterlimit:10;}
	.st33{fill:#D4D7DD;stroke:#5968AF;stroke-width:0.5;stroke-miterlimit:10;}
	.st34{fill:#5968AE;}
	.st35{fill:#B3893B;}
	.st36{fill:#8D9629;}
	.st37{fill:#8D9629;stroke:#8D9628;stroke-miterlimit:10;}
	.st38{fill:#B3893B;stroke:#B3893A;stroke-miterlimit:10;}
	.st39{fill:#CB7A6C;}
	.st40{fill:#CB7A6C;stroke:#CB796B;stroke-miterlimit:10;}
	.st41{fill:none;stroke:#878787;stroke-miterlimit:10;}
	.st42{fill:#878787;}
	.st43{stroke:#000000;stroke-width:0.5;stroke-miterlimit:10;}
	.st44{fill:#B576B0;stroke:#B476B0;stroke-width:0.5;stroke-miterlimit:10;}
	.st45{fill:none;stroke:#B2B2B2;stroke-width:0.75;stroke-miterlimit:10;}
	.st46{fill:#E2C9CC;}
	.st47{fill:#A48A7B;stroke:#A48A7B;stroke-width:0.5;stroke-miterlimit:10;}
	.st48{fill:#4098C8;stroke:#4097C7;stroke-width:0.5;stroke-miterlimit:10;}
	.st49{fill:#706F6F;stroke:#706F6F;stroke-width:0.5;stroke-miterlimit:10;}
	.st50{fill:#8D9629;stroke:#8D9628;stroke-width:0.5;stroke-miterlimit:10;}
	.st51{fill:#C0CADB;}
	.st52{fill:#CBBBA0;stroke:#CBBBA0;stroke-width:0.5;stroke-miterlimit:10;}
	.st53{fill:#4FA151;stroke:#4DA150;stroke-width:0.5;stroke-miterlimit:10;}
	.st54{fill:#00A482;stroke:#00A381;stroke-width:0.5;stroke-miterlimit:10;}
	.st55{fill:#9384BD;stroke:#9284BD;stroke-width:0.5;stroke-miterlimit:10;}
	.st56{fill:#B2B2B2;stroke:#B2B2B2;stroke-width:0.5;stroke-miterlimit:10;}
	.st57{fill:#CB7A6C;stroke:#CB796B;stroke-width:0.5;stroke-miterlimit:10;}
	.st58{font-family:'Arial-ItalicMT';}
	.st59{font-size:8px;}
	.st60{fill:#D1709D;stroke:#D1709D;stroke-width:0.5;stroke-miterlimit:10;}
	.st61{font-size:16.6536px;}
</style>
<rect x="45.16" y="63.61" class="st0" width="153.73" height="48.1"/>
<line class="st1" x1="105.77" y1="47.5" x2="143.31" y2="47.5"/>
<line class="st1" x1="55.81" y1="47.5" x2="99.05" y2="47.5"/>
<g>
	<g>
		<path class="st2" d="M122.17,67.57c1.26,0,2.53-0.01,3.79,0.01c0.33,0,0.82-0.19,0.84,0.47c0.01,0.66-0.47,0.51-0.81,0.52
			c-0.95,0.01-1.9,0.03-2.84-0.01c-0.43-0.02-0.57,0.12-0.57,0.66c0.03,2.27,0.01,4.55,0.01,6.82c0,0.39,0.07,0.9-0.44,0.87
			c-0.43-0.02-0.39-0.48-0.39-0.86c0-2.27-0.01-4.55,0.01-6.82c0.01-0.51-0.09-0.69-0.55-0.67c-1.01,0.04-2.03,0.01-3.05,0.01
			c-0.31,0-0.62-0.03-0.63-0.51c-0.01-0.51,0.33-0.49,0.63-0.49C119.5,67.57,120.84,67.57,122.17,67.57z"/>
	</g>
</g>
<g>
	<g>
		<path class="st3" d="M152.96,67.57c1.26,0,2.53-0.01,3.79,0.01c0.33,0,0.82-0.19,0.84,0.47c0.01,0.66-0.47,0.51-0.81,0.52
			c-0.95,0.01-1.9,0.03-2.84-0.01c-0.43-0.02-0.57,0.12-0.57,0.66c0.03,2.27,0.01,4.55,0.01,6.82c0,0.39,0.07,0.9-0.44,0.87
			c-0.43-0.02-0.39-0.48-0.39-0.86c0-2.27-0.01-4.55,0.01-6.82c0.01-0.51-0.09-0.69-0.55-0.67c-1.01,0.04-2.03,0.01-3.05,0.01
			c-0.31,0-0.62-0.03-0.63-0.51c-0.01-0.51,0.33-0.49,0.63-0.49C150.3,67.57,151.63,67.57,152.96,67.57z"/>
	</g>
</g>
<g>
	<g>
		<path class="st3" d="M181.77,67.57c1.26,0,2.53-0.01,3.79,0.01c0.33,0,0.82-0.19,0.84,0.47c0.01,0.66-0.47,0.51-0.81,0.52
			c-0.95,0.01-1.9,0.03-2.84-0.01c-0.43-0.02-0.57,0.12-0.57,0.66c0.03,2.27,0.01,4.55,0.01,6.82c0,0.39,0.07,0.9-0.44,0.87
			c-0.43-0.02-0.39-0.48-0.39-0.86c0-2.27-0.01-4.55,0.01-6.82c0.01-0.51-0.09-0.69-0.55-0.67c-1.01,0.04-2.03,0.01-3.05,0.01
			c-0.31,0-0.62-0.03-0.63-0.51c-0.01-0.51,0.33-0.49,0.63-0.49C179.1,67.57,180.43,67.57,181.77,67.57z"/>
	</g>
</g>
<text transform="matrix(1 0 0 1 126.0797 27.1528)" class="st4 st5 st6">pRPS13</text>
<path class="st7" d="M139.19,11.03c-2.23,0-4.3,0.01-6.37-0.01c-0.47,0-0.34,0.3-0.34,0.53c-0.01,2.01,0,4.01,0,6.02
	c0,0.18,0.01,0.36-0.02,0.53c-0.03,0.22-0.19,0.36-0.41,0.36c-0.22,0-0.36-0.14-0.38-0.37c-0.01-0.13-0.01-0.26-0.01-0.4
	c0-2.25,0.02-4.5-0.01-6.75c-0.01-0.59,0.21-0.77,0.77-0.76c2.2,0.02,4.41,0.01,6.7,0.01c-0.37-0.53-0.86-0.82-1.25-1.2
	c-0.23-0.22-0.41-0.44-0.16-0.73c0.23-0.26,0.48-0.1,0.69,0.08c0.69,0.61,1.39,1.23,2.08,1.84c0.31,0.28,0.34,0.55,0.02,0.83
	c-0.7,0.61-1.4,1.21-2.11,1.81c-0.21,0.18-0.45,0.35-0.69,0.08c-0.25-0.28-0.08-0.52,0.16-0.72
	C138.28,11.84,138.67,11.49,139.19,11.03z"/>
<line class="st1" x1="126.93" y1="18.45" x2="145.45" y2="18.45"/>
<line class="st1" x1="112.91" y1="76.91" x2="131.43" y2="76.91"/>
<path class="st8" d="M59.13,47.47c0-1.71,0.03-3.41-0.02-5.12c-0.02-0.68,0.36-0.95,1.42-0.94c3.02,0.02,22.2,0.01,25.23,0
	c0.63,0,1.1,0.14,1.55,0.43c2.54,1.67,4.5,3.34,7.08,4.99c0.74,0.48,0.77,0.83,0.01,1.32c-2.58,1.65-4.54,3.32-7.07,4.99
	c-0.48,0.32-0.99,0.43-1.67,0.43c-2.93-0.02-22.03-0.05-24.95,0.01c-1.31,0.03-1.61-0.31-1.58-1.09
	C59.18,50.82,59.13,49.15,59.13,47.47z"/>
<text transform="matrix(1 0 0 1 62.1832 49.8061)" class="st9 st10 st11">mCherry</text>
<text transform="matrix(1 0 0 1 151.8702 27.1528)" class="st12 st5 st6">pSRO9</text>
<path class="st13" d="M163.87,11.03c-2.23,0-4.3,0.01-6.37-0.01c-0.47,0-0.34,0.3-0.34,0.53c-0.01,2.01,0,4.01,0,6.02
	c0,0.18,0.01,0.36-0.02,0.53c-0.03,0.22-0.19,0.36-0.41,0.36c-0.22,0-0.36-0.14-0.38-0.37c-0.01-0.13-0.01-0.26-0.01-0.4
	c0-2.25,0.02-4.5-0.01-6.75c-0.01-0.59,0.21-0.77,0.77-0.76c2.2,0.02,4.41,0.01,6.7,0.01c-0.37-0.53-0.86-0.82-1.25-1.2
	c-0.23-0.22-0.41-0.44-0.16-0.73c0.23-0.26,0.48-0.1,0.69,0.08c0.69,0.61,1.39,1.23,2.08,1.84c0.31,0.28,0.34,0.55,0.02,0.83
	c-0.7,0.61-1.4,1.21-2.11,1.81c-0.21,0.18-0.45,0.35-0.69,0.08c-0.25-0.28-0.08-0.52,0.16-0.72
	C162.96,11.84,163.35,11.49,163.87,11.03z"/>
<line class="st1" x1="151.61" y1="18.45" x2="170.13" y2="18.45"/>
<text transform="matrix(1 0 0 1 176.3521 27.1547)" class="st5 st6">pCLN2</text>
<path class="st14" d="M189.18,11.03c-2.23,0-4.3,0.01-6.37-0.01c-0.47,0-0.34,0.3-0.34,0.53c-0.01,2.01,0,4.01,0,6.02
	c0,0.18,0.01,0.36-0.02,0.53c-0.03,0.22-0.18,0.36-0.41,0.36c-0.22,0-0.36-0.14-0.38-0.37c-0.01-0.13-0.01-0.26-0.01-0.4
	c0-2.25,0.02-4.5-0.01-6.75c-0.01-0.59,0.21-0.77,0.77-0.76c2.2,0.02,4.41,0.01,6.7,0.01c-0.37-0.53-0.86-0.82-1.25-1.2
	c-0.23-0.22-0.41-0.44-0.16-0.73c0.23-0.26,0.48-0.1,0.69,0.08c0.69,0.61,1.39,1.23,2.08,1.84c0.31,0.28,0.34,0.55,0.02,0.83
	c-0.7,0.61-1.4,1.21-2.11,1.81c-0.21,0.18-0.45,0.35-0.69,0.08c-0.25-0.28-0.08-0.52,0.16-0.72
	C188.26,11.84,188.65,11.49,189.18,11.03z"/>
<line class="st1" x1="175.67" y1="18.45" x2="194.19" y2="18.45"/>
<line class="st1" x1="143.7" y1="76.91" x2="162.23" y2="76.91"/>
<line class="st1" x1="172.5" y1="76.91" x2="191.03" y2="76.91"/>
<text transform="matrix(1 0 0 1 112.9386 83.7146)" class="st15 st5 st6">tRPS13</text>
<text transform="matrix(1 0 0 1 82.7999 108.1312)" class="st16 st5 st6">tSRO9</text>
<text transform="matrix(1 0 0 1 145.3717 83.7146)" class="st17 st5 st6">tPAB1</text>
<text transform="matrix(1 0 0 1 172.5372 83.7146)" class="st17 st5 st6">tHSP26</text>
<text transform="matrix(1 0 0 1 52.6041 108.1312)" class="st18 st5 st6">tCLN2</text>
<g>
	<g>
		<path class="st19" d="M60.19,92.23c1.26,0,2.53-0.01,3.79,0.01c0.33,0,0.82-0.19,0.84,0.47c0.01,0.66-0.47,0.51-0.81,0.52
			c-0.95,0.01-1.9,0.03-2.84-0.01c-0.43-0.02-0.57,0.12-0.57,0.66c0.03,2.27,0.01,4.55,0.01,6.82c0,0.39,0.07,0.9-0.44,0.87
			c-0.43-0.02-0.39-0.48-0.39-0.86c0-2.27-0.01-4.55,0.01-6.82c0.01-0.51-0.09-0.69-0.55-0.67c-1.01,0.04-2.03,0.01-3.05,0.01
			c-0.31,0-0.62-0.03-0.63-0.51c-0.01-0.51,0.33-0.49,0.63-0.49C57.53,92.23,58.86,92.23,60.19,92.23z"/>
	</g>
</g>
<g>
	<g>
		<path class="st20" d="M90.84,92.23c1.26,0,2.53-0.01,3.79,0.01c0.33,0,0.82-0.19,0.84,0.47c0.01,0.66-0.47,0.51-0.81,0.52
			c-0.95,0.01-1.9,0.03-2.84-0.01c-0.43-0.02-0.57,0.12-0.57,0.66c0.03,2.27,0.01,4.55,0.01,6.82c0,0.39,0.07,0.9-0.44,0.87
			c-0.43-0.02-0.39-0.48-0.39-0.86c0-2.27-0.01-4.55,0.01-6.82c0.01-0.51-0.09-0.69-0.55-0.67c-1.01,0.04-2.03,0.01-3.05,0.01
			c-0.31,0-0.62-0.03-0.63-0.51c-0.01-0.51,0.33-0.49,0.63-0.49C88.17,92.23,89.5,92.23,90.84,92.23z"/>
	</g>
</g>
<line class="st1" x1="50.93" y1="101.57" x2="69.46" y2="101.57"/>
<line class="st1" x1="81.57" y1="101.57" x2="100.1" y2="101.57"/>
<path class="st0" d="M200.83,12.68h1.79c5.74,0,10.39,0,10.39,4.77v68.88c0.13,4.77-4.65,4.77-10.39,4.77h-3.74"/>
<line class="st0" x1="149.41" y1="47.5" x2="213.02" y2="47.5"/>
<g>
	<g>
		<path class="st22" d="M90.84,67.57c1.26,0,2.53-0.01,3.79,0.01c0.33,0,0.82-0.19,0.84,0.47c0.01,0.66-0.47,0.51-0.81,0.52
			c-0.95,0.01-1.9,0.03-2.84-0.01c-0.43-0.02-0.57,0.12-0.57,0.66c0.03,2.27,0.01,4.55,0.01,6.82c0,0.39,0.07,0.9-0.44,0.87
			c-0.43-0.02-0.39-0.48-0.39-0.86c0-2.27-0.01-4.55,0.01-6.82c0.01-0.51-0.09-0.69-0.55-0.67c-1.01,0.04-2.03,0.01-3.05,0.01
			c-0.31,0-0.62-0.03-0.63-0.51c-0.01-0.51,0.33-0.49,0.63-0.49C88.17,67.57,89.5,67.57,90.84,67.57z"/>
	</g>
</g>
<line class="st1" x1="81.57" y1="76.91" x2="100.1" y2="76.91"/>
<text transform="matrix(1 0 0 1 83.0968 83.7146)" class="st23 st5 st6">tRPS3</text>
<g>
	<g>
		<path class="st24" d="M60.19,67.57c1.26,0,2.53-0.01,3.79,0.01c0.33,0,0.82-0.19,0.84,0.47c0.01,0.66-0.47,0.51-0.81,0.52
			c-0.95,0.01-1.9,0.03-2.84-0.01c-0.43-0.02-0.57,0.12-0.57,0.66c0.03,2.27,0.01,4.55,0.01,6.82c0,0.39,0.07,0.9-0.44,0.87
			c-0.43-0.02-0.39-0.48-0.39-0.86c0-2.27-0.01-4.55,0.01-6.82c0.01-0.51-0.09-0.69-0.55-0.67c-1.01,0.04-2.03,0.01-3.05,0.01
			c-0.31,0-0.62-0.03-0.63-0.51c-0.01-0.51,0.33-0.49,0.63-0.49C57.53,67.57,58.86,67.57,60.19,67.57z"/>
	</g>
</g>
<line class="st1" x1="50.93" y1="76.91" x2="69.46" y2="76.91"/>
<text transform="matrix(1 0 0 1 51.9571 83.7146)" class="st25 st5 st6">tPGK1</text>
<rect x="45.16" y="4.28" class="st0" width="155.6" height="27.43"/>
<text transform="matrix(1 0 0 1 7.2343 21.0539)" class="st5 st26">Promoters</text>
<text transform="matrix(1 0 0 1 4.0739 88.6507)" class="st5 st26">Terminators</text>
<text transform="matrix(1 0 0 1 52.8049 27.1528)" class="st27 st5 st6">pPGK1</text>
<path class="st28" d="M64.79,11.03c-2.23,0-4.3,0.01-6.37-0.01c-0.47,0-0.34,0.3-0.34,0.53c-0.01,2.01,0,4.01,0,6.02
	c0,0.18,0.01,0.36-0.02,0.53c-0.03,0.22-0.19,0.36-0.41,0.36c-0.22,0-0.36-0.14-0.38-0.37c-0.01-0.13-0.01-0.26-0.01-0.4
	c0-2.25,0.02-4.5-0.01-6.75c-0.01-0.59,0.21-0.77,0.77-0.76c2.2,0.02,4.41,0.01,6.7,0.01c-0.37-0.53-0.86-0.82-1.25-1.2
	c-0.23-0.22-0.41-0.44-0.16-0.73C63.55,8,63.79,8.15,64,8.34c0.69,0.61,1.39,1.23,2.08,1.84c0.31,0.28,0.34,0.55,0.02,0.83
	c-0.7,0.61-1.4,1.21-2.11,1.81c-0.21,0.18-0.45,0.35-0.69,0.08c-0.25-0.28-0.08-0.52,0.16-0.72C63.88,11.84,64.27,11.49,64.79,11.03
	z"/>
<line class="st1" x1="52.53" y1="18.45" x2="71.05" y2="18.45"/>
<text transform="matrix(1 0 0 1 75.7936 27.1528)" class="st29 st5 st6">pHSP26</text>
<path class="st30" d="M89.31,11.03c-2.23,0-4.3,0.01-6.37-0.01c-0.47,0-0.34,0.3-0.34,0.53c-0.01,2.01,0,4.01,0,6.02
	c0,0.18,0.01,0.36-0.02,0.53c-0.03,0.22-0.19,0.36-0.41,0.36c-0.22,0-0.36-0.14-0.38-0.37c-0.01-0.13-0.01-0.26-0.01-0.4
	c0-2.25,0.02-4.5-0.01-6.75c-0.01-0.59,0.21-0.77,0.77-0.76c2.2,0.02,4.41,0.01,6.7,0.01c-0.37-0.53-0.86-0.82-1.25-1.2
	c-0.23-0.22-0.41-0.44-0.16-0.73c0.23-0.26,0.48-0.1,0.69,0.08c0.69,0.61,1.39,1.23,2.08,1.84c0.31,0.28,0.34,0.55,0.02,0.83
	c-0.7,0.61-1.4,1.21-2.11,1.81c-0.21,0.18-0.45,0.35-0.69,0.08c-0.25-0.28-0.08-0.52,0.16-0.72C88.39,11.84,88.78,11.49,89.31,11.03
	z"/>
<line class="st1" x1="77.05" y1="18.45" x2="95.57" y2="18.45"/>
<text transform="matrix(1 0 0 1 103.1046 27.1508)" class="st31 st5 st6">pRPS3</text>
<path class="st32" d="M114.52,11.03c-2.23,0-4.3,0.01-6.37-0.01c-0.47,0-0.34,0.3-0.34,0.53c-0.01,2.01,0,4.01,0,6.02
	c0,0.18,0.01,0.36-0.02,0.53c-0.03,0.22-0.19,0.36-0.41,0.36c-0.22,0-0.36-0.14-0.38-0.37c-0.01-0.13-0.01-0.26-0.01-0.4
	c0-2.25,0.02-4.5-0.01-6.75c-0.01-0.59,0.21-0.77,0.77-0.76c2.2,0.02,4.41,0.01,6.7,0.01c-0.37-0.53-0.86-0.82-1.25-1.2
	c-0.23-0.22-0.41-0.44-0.16-0.73c0.23-0.26,0.48-0.1,0.69,0.08c0.69,0.61,1.39,1.23,2.08,1.84c0.31,0.28,0.34,0.55,0.02,0.83
	c-0.7,0.61-1.4,1.21-2.11,1.81c-0.21,0.18-0.45,0.35-0.69,0.08c-0.25-0.28-0.08-0.52,0.16-0.72
	C113.6,11.84,113.99,11.49,114.52,11.03z"/>
<line class="st1" x1="102.26" y1="18.45" x2="120.78" y2="18.45"/>
<path class="st33" d="M109.75,47.47c0-1.71,0.03-3.41-0.02-5.12c-0.02-0.68,0.39-0.95,1.5-0.94c3.2,0.02,15.84,0.01,19.04,0
	c0.67,0,1.17,0.14,1.64,0.43c2.68,1.67,4.76,3.34,7.48,4.99c0.79,0.48,0.81,0.83,0.01,1.32c-2.73,1.65-4.8,3.32-7.48,4.99
	c-0.51,0.32-1.05,0.43-1.77,0.43c-3.1-0.02-15.65-0.05-18.75,0.01c-1.39,0.03-1.71-0.31-1.68-1.09
	C109.8,50.82,109.75,49.15,109.75,47.47z"/>
<text transform="matrix(1 0 0 1 110.7654 49.8061)" class="st34 st10 st11">mTurq2</text>
<text transform="matrix(1 0 0 1 145.0773 108.1312)" class="st35 st5 st6">tSUN4</text>
<text transform="matrix(1 0 0 1 114.4293 108.1312)" class="st36 st5 st6">tTOS6</text>
<g>
	<g>
		<path class="st37" d="M122.17,92.23c1.26,0,2.53-0.01,3.79,0.01c0.33,0,0.82-0.19,0.84,0.47c0.01,0.66-0.47,0.51-0.81,0.52
			c-0.95,0.01-1.9,0.03-2.84-0.01c-0.43-0.02-0.57,0.12-0.57,0.66c0.03,2.27,0.01,4.55,0.01,6.82c0,0.39,0.07,0.9-0.44,0.87
			c-0.43-0.02-0.39-0.48-0.39-0.86c0-2.27-0.01-4.55,0.01-6.82c0.01-0.51-0.09-0.69-0.55-0.67c-1.01,0.04-2.03,0.01-3.05,0.01
			c-0.31,0-0.62-0.03-0.63-0.51c-0.01-0.51,0.33-0.49,0.63-0.49C119.5,92.23,120.84,92.23,122.17,92.23z"/>
	</g>
</g>
<g>
	<g>
		<path class="st38" d="M152.96,92.23c1.26,0,2.53-0.01,3.79,0.01c0.33,0,0.82-0.19,0.84,0.47c0.01,0.66-0.47,0.51-0.81,0.52
			c-0.95,0.01-1.9,0.03-2.84-0.01c-0.43-0.02-0.57,0.12-0.57,0.66c0.03,2.27,0.01,4.55,0.01,6.82c0,0.39,0.07,0.9-0.44,0.87
			c-0.43-0.02-0.39-0.48-0.39-0.86c0-2.27-0.01-4.55,0.01-6.82c0.01-0.51-0.09-0.69-0.55-0.67c-1.01,0.04-2.03,0.01-3.05,0.01
			c-0.31,0-0.62-0.03-0.63-0.51c-0.01-0.51,0.33-0.49,0.63-0.49C150.3,92.23,151.63,92.23,152.96,92.23z"/>
	</g>
</g>
<line class="st1" x1="112.91" y1="101.57" x2="131.43" y2="101.57"/>
<line class="st1" x1="143.7" y1="101.57" x2="162.23" y2="101.57"/>
<text transform="matrix(1 0 0 1 173.7301 108.1312)" class="st39 st5 st6">tPMA1</text>
<g>
	<g>
		<path class="st40" d="M181.77,92.23c1.26,0,2.53-0.01,3.79,0.01c0.33,0,0.82-0.19,0.84,0.47c0.01,0.66-0.47,0.51-0.81,0.52
			c-0.95,0.01-1.9,0.03-2.84-0.01c-0.43-0.02-0.57,0.12-0.57,0.66c0.03,2.27,0.01,4.55,0.01,6.82c0,0.39,0.07,0.9-0.44,0.87
			c-0.43-0.02-0.39-0.48-0.39-0.86c0-2.27-0.01-4.55,0.01-6.82c0.01-0.51-0.09-0.69-0.55-0.67c-1.01,0.04-2.03,0.01-3.05,0.01
			c-0.31,0-0.62-0.03-0.63-0.51c-0.01-0.51,0.33-0.49,0.63-0.49C179.1,92.23,180.43,92.23,181.77,92.23z"/>
	</g>
</g>
<line class="st1" x1="172.5" y1="101.57" x2="191.03" y2="101.57"/>
<text transform="matrix(1 0 0 1 4.3868 45.2475)"><tspan x="0" y="0" class="st5 st26">Fluorescent </tspan><tspan x="5.25" y="8.4" class="st5 st26">reporters</tspan></text>
<rect x="45.16" y="35.3" class="st0" width="104.25" height="23.5"/>
<text transform="matrix(1 0 0 1 218.072 48.4994)"><tspan x="0" y="0" class="st5 st26">Modular </tspan><tspan x="-1.17" y="8.4" class="st5 st26">assembly</tspan></text>
<g>
	<g>
		<line class="st41" x1="213.49" y1="25.72" x2="247.35" y2="25.72"/>
		<g>
			<polygon class="st42" points="245.94,27.57 246.73,25.72 245.94,23.86 250.33,25.72 			"/>
		</g>
	</g>
</g>
<path class="st43" d="M370.95,31.42c-1.48,0-2.85,0.01-4.22-0.01c-0.31,0-0.23,0.2-0.23,0.35c0,1.33,0,2.66,0,3.99
	c0,0.12,0.01,0.24-0.01,0.35c-0.02,0.15-0.12,0.24-0.27,0.24c-0.15,0-0.24-0.09-0.25-0.24c-0.01-0.09-0.01-0.18-0.01-0.26
	c0-1.49,0.01-2.98-0.01-4.47c0-0.39,0.14-0.51,0.51-0.51c1.46,0.01,2.92,0.01,4.44,0.01c-0.24-0.35-0.57-0.54-0.83-0.8
	c-0.15-0.15-0.27-0.29-0.11-0.48c0.16-0.17,0.32-0.07,0.46,0.05c0.46,0.41,0.92,0.81,1.38,1.22c0.21,0.18,0.23,0.36,0.01,0.55
	c-0.46,0.4-0.93,0.8-1.4,1.2c-0.14,0.12-0.3,0.23-0.45,0.06c-0.16-0.19-0.05-0.34,0.11-0.48C370.34,31.96,370.6,31.73,370.95,31.42z
	"/>
<g>
	<path class="st44" d="M391.23,30.49c0.75,0,1.51-0.01,2.26,0c0.2,0,0.49-0.11,0.5,0.28c0.01,0.39-0.28,0.31-0.48,0.31
		c-0.57,0.01-1.13,0.02-1.7,0c-0.26-0.01-0.34,0.07-0.34,0.39c0.02,1.36,0.01,2.71,0.01,4.07c0,0.23,0.04,0.54-0.26,0.52
		c-0.26-0.01-0.24-0.29-0.24-0.51c0-1.36-0.01-2.71,0.01-4.07c0-0.3-0.05-0.41-0.33-0.4c-0.61,0.03-1.21,0.01-1.82,0.01
		c-0.19,0-0.37-0.02-0.37-0.31c0-0.3,0.2-0.29,0.38-0.29C389.64,30.49,390.44,30.49,391.23,30.49z"/>
</g>
<path class="st45" d="M390.94,48.51h-23.27c-3.14,0-5.71-2.57-5.71-5.71v-0.74c0-3.14,2.57-5.71,5.71-5.71h23.27
	c3.14,0,5.71,2.57,5.71,5.71v0.74C396.65,45.94,394.08,48.51,390.94,48.51z"/>
<path class="st46" d="M372.45,36.37c0-0.79,0.01-1.58-0.01-2.37c-0.01-0.32,0.17-0.44,0.66-0.43c1.4,0.01,10.27,0.01,11.66,0
	c0.29,0,0.51,0.07,0.72,0.2c1.17,0.77,2.08,1.55,3.27,2.31c0.34,0.22,0.36,0.38,0,0.61c-1.19,0.76-2.1,1.53-3.27,2.31
	c-0.22,0.15-0.46,0.2-0.77,0.2c-1.36-0.01-10.18-0.02-11.54,0c-0.61,0.01-0.75-0.15-0.73-0.5
	C372.47,37.92,372.45,37.14,372.45,36.37z"/>
<path class="st47" d="M264.18,21.89c-1.48,0-2.85,0.01-4.22-0.01c-0.31,0-0.23,0.2-0.23,0.35c0,1.33,0,2.66,0,3.99
	c0,0.12,0.01,0.24-0.01,0.35c-0.02,0.15-0.12,0.24-0.27,0.24c-0.15,0-0.24-0.09-0.25-0.24c-0.01-0.09-0.01-0.18-0.01-0.26
	c0-1.49,0.01-2.98-0.01-4.47c0-0.39,0.14-0.51,0.51-0.51c1.46,0.01,2.92,0.01,4.44,0.01c-0.24-0.35-0.57-0.54-0.83-0.8
	c-0.15-0.15-0.27-0.29-0.11-0.48c0.16-0.17,0.32-0.07,0.46,0.05c0.46,0.41,0.92,0.81,1.38,1.22c0.21,0.18,0.23,0.36,0.01,0.55
	c-0.46,0.4-0.93,0.8-1.4,1.2c-0.14,0.12-0.3,0.23-0.45,0.06c-0.16-0.19-0.05-0.34,0.11-0.48C263.57,22.43,263.83,22.2,264.18,21.89z
	"/>
<g>
	<path class="st48" d="M282.97,20.96c0.75,0,1.51-0.01,2.26,0c0.2,0,0.49-0.11,0.5,0.28c0.01,0.39-0.28,0.31-0.48,0.31
		c-0.57,0.01-1.13,0.02-1.7,0c-0.26-0.01-0.34,0.07-0.34,0.39c0.02,1.36,0.01,2.71,0.01,4.07c0,0.23,0.04,0.54-0.26,0.52
		c-0.26-0.01-0.24-0.29-0.24-0.51c0-1.36-0.01-2.71,0.01-4.07c0-0.3-0.05-0.41-0.33-0.4c-0.61,0.03-1.21,0.01-1.82,0.01
		c-0.19,0-0.37-0.02-0.37-0.31c0-0.3,0.2-0.29,0.38-0.29C281.38,20.96,282.17,20.96,282.97,20.96z"/>
</g>
<path class="st45" d="M282.64,39h-23.27c-3.14,0-5.71-2.57-5.71-5.71v-0.74c0-3.14,2.57-5.71,5.71-5.71h23.27
	c3.14,0,5.71,2.57,5.71,5.71v0.74C288.35,36.43,285.78,39,282.64,39z"/>
<path class="st46" d="M264.14,26.86c0-0.79,0.01-1.58-0.01-2.37c-0.01-0.32,0.17-0.44,0.66-0.43c1.4,0.01,10.27,0.01,11.66,0
	c0.29,0,0.51,0.07,0.72,0.2c1.17,0.77,2.08,1.55,3.27,2.31c0.34,0.22,0.36,0.38,0,0.61c-1.19,0.76-2.1,1.53-3.27,2.31
	c-0.22,0.15-0.46,0.2-0.77,0.2c-1.36-0.01-10.18-0.02-11.54,0c-0.61,0.01-0.75-0.15-0.73-0.5
	C264.16,28.41,264.14,27.63,264.14,26.86z"/>
<path class="st49" d="M337.08,77.83c-1.48,0-2.85,0.01-4.22-0.01c-0.31,0-0.23,0.2-0.23,0.35c0,1.33,0,2.66,0,3.99
	c0,0.12,0.01,0.24-0.01,0.35c-0.02,0.15-0.12,0.24-0.27,0.24c-0.15,0-0.24-0.09-0.25-0.24c-0.01-0.09-0.01-0.18-0.01-0.26
	c0-1.49,0.01-2.98-0.01-4.47c0-0.39,0.14-0.51,0.51-0.51c1.46,0.01,2.92,0.01,4.44,0.01c-0.24-0.35-0.57-0.54-0.83-0.8
	c-0.15-0.15-0.27-0.29-0.11-0.48c0.16-0.17,0.32-0.07,0.46,0.05c0.46,0.41,0.92,0.81,1.38,1.22c0.21,0.18,0.23,0.36,0.01,0.55
	c-0.46,0.4-0.93,0.8-1.4,1.2c-0.14,0.12-0.3,0.23-0.45,0.06c-0.16-0.19-0.05-0.34,0.11-0.48C336.47,78.37,336.73,78.13,337.08,77.83
	z"/>
<g>
	<path class="st50" d="M356.62,76.54c0.75,0,1.51-0.01,2.26,0c0.2,0,0.49-0.11,0.5,0.28c0.01,0.39-0.28,0.31-0.48,0.31
		c-0.57,0.01-1.13,0.02-1.7,0c-0.26-0.01-0.34,0.07-0.34,0.39c0.02,1.36,0.01,2.71,0.01,4.07c0,0.23,0.04,0.54-0.26,0.52
		c-0.26-0.01-0.24-0.29-0.24-0.51c0-1.36-0.01-2.71,0.01-4.07c0-0.3-0.05-0.41-0.33-0.4c-0.61,0.03-1.21,0.01-1.82,0.01
		c-0.19,0-0.37-0.02-0.37-0.31c0-0.3,0.2-0.29,0.38-0.29C355.03,76.54,355.82,76.54,356.62,76.54z"/>
</g>
<path class="st45" d="M357.08,94.93h-23.27c-3.14,0-5.71-2.57-5.71-5.71v-0.74c0-3.14,2.57-5.71,5.71-5.71h23.27
	c3.14,0,5.71,2.57,5.71,5.71v0.74C362.79,92.36,360.22,94.93,357.08,94.93z"/>
<path class="st51" d="M338.59,82.79c0-0.79,0.01-1.58-0.01-2.37c-0.01-0.32,0.17-0.44,0.66-0.43c1.4,0.01,10.27,0.01,11.66,0
	c0.29,0,0.51,0.07,0.72,0.2c1.17,0.77,2.08,1.55,3.27,2.31c0.34,0.22,0.36,0.38,0,0.61c-1.19,0.76-2.1,1.53-3.27,2.31
	c-0.22,0.15-0.46,0.2-0.77,0.2c-1.36-0.01-10.18-0.02-11.54,0c-0.61,0.01-0.75-0.15-0.73-0.5
	C338.61,84.34,338.59,83.56,338.59,82.79z"/>
<path class="st52" d="M298.2,32.44c-1.48,0-2.85,0.01-4.22-0.01c-0.31,0-0.23,0.2-0.23,0.35c0,1.33,0,2.66,0,3.99
	c0,0.12,0.01,0.24-0.01,0.35c-0.02,0.15-0.12,0.24-0.27,0.24c-0.15,0-0.24-0.09-0.25-0.24c-0.01-0.09-0.01-0.18-0.01-0.26
	c0-1.49,0.01-2.98-0.01-4.47c0-0.39,0.14-0.51,0.51-0.51c1.46,0.01,2.92,0.01,4.44,0.01c-0.24-0.35-0.57-0.54-0.83-0.8
	c-0.15-0.15-0.27-0.29-0.11-0.48c0.16-0.17,0.32-0.07,0.46,0.05c0.46,0.41,0.92,0.81,1.38,1.22c0.21,0.18,0.23,0.36,0.01,0.55
	c-0.46,0.4-0.93,0.8-1.4,1.2c-0.14,0.12-0.3,0.23-0.45,0.06c-0.16-0.19-0.05-0.34,0.11-0.48C297.59,32.98,297.85,32.74,298.2,32.44z
	"/>
<g>
	<path class="st53" d="M318.48,31.67c0.75,0,1.51-0.01,2.26,0c0.2,0,0.49-0.11,0.5,0.28c0.01,0.39-0.28,0.31-0.48,0.31
		c-0.57,0.01-1.13,0.02-1.7,0c-0.26-0.01-0.34,0.07-0.34,0.39c0.02,1.36,0.01,2.71,0.01,4.07c0,0.23,0.04,0.54-0.26,0.52
		c-0.26-0.01-0.24-0.29-0.24-0.51c0-1.36-0.01-2.71,0.01-4.07c0-0.3-0.05-0.41-0.33-0.4c-0.61,0.03-1.21,0.01-1.82,0.01
		c-0.19,0-0.37-0.02-0.37-0.31c0-0.3,0.2-0.29,0.38-0.29C316.89,31.67,317.69,31.67,318.48,31.67z"/>
</g>
<path class="st45" d="M318.19,49.52h-23.27c-3.14,0-5.71-2.57-5.71-5.71v-0.74c0-3.14,2.57-5.71,5.71-5.71h23.27
	c3.14,0,5.71,2.57,5.71,5.71v0.74C323.9,46.95,321.34,49.52,318.19,49.52z"/>
<path class="st46" d="M299.7,37.38c0-0.79,0.01-1.58-0.01-2.37c-0.01-0.32,0.17-0.44,0.66-0.43c1.4,0.01,10.27,0.01,11.66,0
	c0.29,0,0.51,0.07,0.72,0.2c1.17,0.77,2.08,1.55,3.27,2.31c0.34,0.22,0.36,0.38,0,0.61c-1.19,0.76-2.1,1.53-3.27,2.31
	c-0.22,0.15-0.46,0.2-0.77,0.2c-1.36-0.01-10.18-0.02-11.54,0c-0.61,0.01-0.75-0.15-0.73-0.5C299.72,38.93,299.7,38.15,299.7,37.38z
	"/>
<path class="st47" d="M372.84,85.15c-1.48,0-2.85,0.01-4.22-0.01c-0.31,0-0.23,0.2-0.23,0.35c0,1.33,0,2.66,0,3.99
	c0,0.12,0.01,0.24-0.01,0.35c-0.02,0.15-0.12,0.24-0.27,0.24c-0.15,0-0.24-0.09-0.25-0.24c-0.01-0.09-0.01-0.18-0.01-0.26
	c0-1.49,0.01-2.98-0.01-4.47c0-0.39,0.14-0.51,0.51-0.51c1.46,0.01,2.92,0.01,4.44,0.01c-0.24-0.35-0.57-0.54-0.83-0.8
	c-0.15-0.15-0.27-0.29-0.11-0.48c0.16-0.17,0.32-0.07,0.46,0.05c0.46,0.41,0.92,0.81,1.38,1.22c0.21,0.18,0.23,0.36,0.01,0.55
	c-0.46,0.4-0.93,0.8-1.4,1.2c-0.14,0.12-0.3,0.23-0.45,0.06c-0.16-0.19-0.05-0.34,0.11-0.48C372.23,85.69,372.49,85.46,372.84,85.15
	z"/>
<g>
	<path class="st54" d="M392.73,84.87c0.75,0,1.51-0.01,2.26,0c0.2,0,0.49-0.11,0.5,0.28c0.01,0.39-0.28,0.31-0.48,0.31
		c-0.57,0.01-1.13,0.02-1.7,0c-0.26-0.01-0.34,0.07-0.34,0.39c0.02,1.36,0.01,2.71,0.01,4.07c0,0.23,0.04,0.54-0.26,0.52
		c-0.26-0.01-0.24-0.29-0.24-0.51c0-1.36-0.01-2.71,0.01-4.07c0-0.3-0.05-0.41-0.33-0.4c-0.61,0.03-1.21,0.01-1.82,0.01
		c-0.19,0-0.37-0.02-0.37-0.31c0-0.3,0.2-0.29,0.38-0.29C391.14,84.87,391.94,84.87,392.73,84.87z"/>
</g>
<path class="st45" d="M392.36,102.94h-23.27c-3.14,0-5.71-2.57-5.71-5.71v-0.74c0-3.14,2.57-5.71,5.71-5.71h23.27
	c3.14,0,5.71,2.57,5.71,5.71v0.74C398.07,100.37,395.5,102.94,392.36,102.94z"/>
<path class="st51" d="M373.86,90.8c0-0.79,0.01-1.58-0.01-2.37c-0.01-0.32,0.17-0.44,0.66-0.43c1.4,0.01,10.27,0.01,11.66,0
	c0.29,0,0.51,0.07,0.72,0.2c1.17,0.77,2.08,1.55,3.27,2.31c0.34,0.22,0.36,0.38,0,0.61c-1.19,0.76-2.1,1.53-3.27,2.31
	c-0.22,0.15-0.46,0.2-0.77,0.2c-1.36-0.01-10.18-0.02-11.54,0c-0.61,0.01-0.75-0.15-0.73-0.5C373.88,92.35,373.86,91.57,373.86,90.8
	z"/>
<path class="st43" d="M299.6,86.98c-1.48,0-2.85,0.01-4.22-0.01c-0.31,0-0.23,0.2-0.23,0.35c0,1.33,0,2.66,0,3.99
	c0,0.12,0.01,0.24-0.01,0.35c-0.02,0.15-0.12,0.24-0.27,0.24c-0.15,0-0.24-0.09-0.25-0.24c-0.01-0.09-0.01-0.18-0.01-0.26
	c0-1.49,0.01-2.98-0.01-4.47c0-0.39,0.14-0.51,0.51-0.51c1.46,0.01,2.92,0.01,4.44,0.01c-0.24-0.35-0.57-0.54-0.83-0.8
	c-0.15-0.15-0.27-0.29-0.11-0.48c0.16-0.17,0.32-0.07,0.46,0.05c0.46,0.41,0.92,0.81,1.38,1.22c0.21,0.18,0.23,0.36,0.01,0.55
	c-0.46,0.4-0.93,0.8-1.4,1.2c-0.14,0.12-0.3,0.23-0.45,0.06c-0.16-0.19-0.05-0.34,0.11-0.48C299,87.52,299.25,87.29,299.6,86.98z"/>
<g>
	<path class="st55" d="M319.54,86.11c0.75,0,1.51-0.01,2.26,0c0.2,0,0.49-0.11,0.5,0.28c0.01,0.39-0.28,0.31-0.48,0.31
		c-0.57,0.01-1.13,0.02-1.7,0c-0.26-0.01-0.34,0.07-0.34,0.39c0.02,1.36,0.01,2.71,0.01,4.07c0,0.23,0.04,0.54-0.26,0.52
		c-0.26-0.01-0.24-0.29-0.24-0.51c0-1.36-0.01-2.71,0.01-4.07c0-0.3-0.05-0.41-0.33-0.4c-0.61,0.03-1.21,0.01-1.82,0.01
		c-0.19,0-0.37-0.02-0.37-0.31c0-0.3,0.2-0.29,0.38-0.29C317.95,86.1,318.75,86.1,319.54,86.11z"/>
</g>
<path class="st45" d="M319.61,104.41h-23.27c-3.14,0-5.71-2.57-5.71-5.71v-0.74c0-3.14,2.57-5.71,5.71-5.71h23.27
	c3.14,0,5.71,2.57,5.71,5.71v0.74C325.32,101.84,322.75,104.41,319.61,104.41z"/>
<path class="st51" d="M301.12,92.27c0-0.79,0.01-1.58-0.01-2.37c-0.01-0.32,0.17-0.44,0.66-0.43c1.4,0.01,10.27,0.01,11.66,0
	c0.29,0,0.51,0.07,0.72,0.2c1.17,0.77,2.08,1.55,3.27,2.31c0.34,0.22,0.36,0.38,0,0.61c-1.19,0.76-2.1,1.53-3.27,2.31
	c-0.22,0.15-0.46,0.2-0.77,0.2c-1.36-0.01-10.18-0.02-11.54,0c-0.61,0.01-0.75-0.15-0.73-0.5
	C301.14,93.82,301.12,93.04,301.12,92.27z"/>
<path class="st56" d="M335.8,21.39c-1.48,0-2.85,0.01-4.22-0.01c-0.31,0-0.23,0.2-0.23,0.35c0,1.33,0,2.66,0,3.99
	c0,0.12,0.01,0.24-0.01,0.35c-0.02,0.15-0.12,0.24-0.27,0.24c-0.15,0-0.24-0.09-0.25-0.24c-0.01-0.09-0.01-0.18-0.01-0.26
	c0-1.49,0.01-2.98-0.01-4.47c0-0.39,0.14-0.51,0.51-0.51c1.46,0.01,2.92,0.01,4.44,0.01c-0.24-0.35-0.57-0.54-0.83-0.8
	c-0.15-0.15-0.27-0.29-0.11-0.48c0.16-0.17,0.32-0.07,0.46,0.05c0.46,0.41,0.92,0.81,1.38,1.22c0.21,0.18,0.23,0.36,0.01,0.55
	c-0.46,0.4-0.93,0.8-1.4,1.2c-0.14,0.12-0.3,0.23-0.45,0.06c-0.16-0.19-0.05-0.34,0.11-0.48C335.19,21.93,335.45,21.69,335.8,21.39z
	"/>
<g>
	<path class="st57" d="M354.58,20.74c0.75,0,1.51-0.01,2.26,0c0.2,0,0.49-0.11,0.5,0.28c0.01,0.39-0.28,0.31-0.48,0.31
		c-0.57,0.01-1.13,0.02-1.7,0c-0.26-0.01-0.34,0.07-0.34,0.39c0.02,1.36,0.01,2.71,0.01,4.07c0,0.23,0.04,0.54-0.26,0.52
		c-0.26-0.01-0.24-0.29-0.24-0.51c0-1.36-0.01-2.71,0.01-4.07c0-0.3-0.05-0.41-0.33-0.4c-0.61,0.03-1.21,0.01-1.82,0.01
		c-0.19,0-0.37-0.02-0.37-0.31c0-0.3,0.2-0.29,0.38-0.29C352.99,20.74,353.79,20.74,354.58,20.74z"/>
</g>
<path class="st45" d="M354.25,38.47h-23.27c-3.14,0-5.71-2.57-5.71-5.71v-0.74c0-3.14,2.57-5.71,5.71-5.71h23.27
	c3.14,0,5.71,2.57,5.71,5.71v0.74C359.96,35.9,357.39,38.47,354.25,38.47z"/>
<path class="st46" d="M335.75,26.33c0-0.79,0.01-1.58-0.01-2.37c-0.01-0.32,0.17-0.44,0.66-0.43c1.4,0.01,10.27,0.01,11.66,0
	c0.29,0,0.51,0.07,0.72,0.2c1.17,0.77,2.08,1.55,3.27,2.31c0.34,0.22,0.36,0.38,0,0.61c-1.19,0.76-2.1,1.53-3.27,2.31
	c-0.22,0.15-0.46,0.2-0.77,0.2c-1.36-0.01-10.18-0.02-11.54,0c-0.61,0.01-0.75-0.15-0.73-0.5C335.77,27.88,335.75,27.1,335.75,26.33
	z"/>
<text transform="matrix(1 0 0 1 259.9009 12.738)"><tspan x="0" y="0" class="st9 st58 st59">mCherry </tspan><tspan x="32.89" y="0" class="st5 st59">chimeric reporter plasmids</tspan></text>
<path class="st56" d="M264.54,77.51c-1.48,0-2.85,0.01-4.22-0.01c-0.31,0-0.23,0.2-0.23,0.35c0,1.33,0,2.66,0,3.99
	c0,0.12,0.01,0.24-0.01,0.35c-0.02,0.15-0.12,0.24-0.27,0.24c-0.15,0-0.24-0.09-0.25-0.24c-0.01-0.09-0.01-0.18-0.01-0.26
	c0-1.49,0.01-2.98-0.01-4.47c0-0.39,0.14-0.51,0.51-0.51c1.46,0.01,2.92,0.01,4.44,0.01c-0.24-0.35-0.57-0.54-0.83-0.8
	c-0.15-0.15-0.27-0.29-0.11-0.48c0.16-0.17,0.32-0.07,0.46,0.05c0.46,0.41,0.92,0.81,1.38,1.22c0.21,0.18,0.23,0.36,0.01,0.55
	c-0.46,0.4-0.93,0.8-1.4,1.2c-0.14,0.12-0.3,0.23-0.45,0.06c-0.16-0.19-0.05-0.34,0.11-0.48C263.93,78.05,264.19,77.82,264.54,77.51
	z"/>
<g>
	<path class="st60" d="M284.43,76.51c0.75,0,1.51-0.01,2.26,0c0.2,0,0.49-0.11,0.5,0.28c0.01,0.39-0.28,0.31-0.48,0.31
		c-0.57,0.01-1.13,0.02-1.7,0c-0.26-0.01-0.34,0.07-0.34,0.39c0.02,1.36,0.01,2.71,0.01,4.07c0,0.23,0.04,0.54-0.26,0.52
		c-0.26-0.01-0.24-0.29-0.24-0.51c0-1.36-0.01-2.71,0.01-4.07c0-0.3-0.05-0.41-0.33-0.4c-0.61,0.03-1.21,0.01-1.82,0.01
		c-0.19,0-0.37-0.02-0.37-0.31c0-0.3,0.2-0.29,0.38-0.29C282.84,76.51,283.63,76.51,284.43,76.51z"/>
</g>
<path class="st45" d="M284.05,94.73h-23.27c-3.14,0-5.71-2.57-5.71-5.71v-0.74c0-3.14,2.57-5.71,5.71-5.71h23.27
	c3.14,0,5.71,2.57,5.71,5.71v0.74C289.76,92.16,287.19,94.73,284.05,94.73z"/>
<path class="st51" d="M265.56,82.59c0-0.79,0.01-1.58-0.01-2.37c-0.01-0.32,0.17-0.44,0.66-0.43c1.4,0.01,10.27,0.01,11.66,0
	c0.29,0,0.51,0.07,0.72,0.2c1.17,0.77,2.08,1.55,3.27,2.31c0.34,0.22,0.36,0.38,0,0.61c-1.19,0.76-2.1,1.53-3.27,2.31
	c-0.22,0.15-0.46,0.2-0.77,0.2c-1.36-0.01-10.18-0.02-11.54,0c-0.61,0.01-0.75-0.15-0.73-0.5
	C265.58,84.14,265.56,83.36,265.56,82.59z"/>
<text transform="matrix(1 0 0 1 266.1455 72.3432)"><tspan x="0" y="0" class="st34 st58 st59">mTurq2 </tspan><tspan x="29.79" y="0" class="st5 st59">chimeric reporter plasmids</tspan></text>
<g>
	<g>
		<line class="st41" x1="213.49" y1="82.19" x2="247.35" y2="82.19"/>
		<g>
			<polygon class="st42" points="245.94,84.04 246.73,82.19 245.94,80.34 250.33,82.19 			"/>
		</g>
	</g>
</g>
<text transform="matrix(1 0 0 1 100.0997 109.1029)" class="st5 st26">*</text>
<text transform="matrix(1 0 0 1 191.4166 108.1029)" class="st5 st26">*</text>
<text transform="matrix(1 0 0 1 399.6982 33.2756)" class="st5 st61">...</text>
<text transform="matrix(1 0 0 1 401.1702 89.0567)" class="st5 st61">...</text>
</svg>
