<?xml version="1.0" encoding="utf-8"?>
<!-- Generator: Adobe Illustrator 25.2.3, SVG Export Plug-In . SVG Version: 6.00 Build 0)  -->
<svg version="1.1" id="Layer_1" xmlns="http://www.w3.org/2000/svg" xmlns:xlink="http://www.w3.org/1999/xlink" x="0px" y="0px"
	 viewBox="0 0 347.74 110.89" style="enable-background:new 0 0 347.74 110.89;" xml:space="preserve">
<style type="text/css">
	.st0{fill:none;stroke:#1E1E1C;stroke-width:0.5;stroke-miterlimit:10;}
	.st1{fill:#E52621;}
	.st2{font-family:'ArialMT';}
	.st3{font-size:8px;}
	.st4{fill:none;stroke:#000000;stroke-width:0.75;stroke-miterlimit:10;}
	.st5{fill:none;stroke:#000000;stroke-width:0.75;stroke-miterlimit:10;stroke-dasharray:1.0032,1.0032;}
	.st6{font-size:6.1908px;}
	.st7{fill:#5A78B9;}
	.st8{fill:none;stroke:#000000;stroke-width:0.75;stroke-miterlimit:10;stroke-dasharray:0.9989,0.9989;}
	.st9{fill:none;stroke:#000000;stroke-width:0.75;stroke-miterlimit:10;stroke-dasharray:0.9975,0.9975;}
	.st10{fill:#72529C;}
	.st11{fill:none;stroke:#000000;stroke-width:0.75;stroke-miterlimit:10;stroke-dasharray:1,1;}
	.st12{fill:#EEEDED;stroke:#585858;stroke-width:0.75;stroke-miterlimit:10;}
	.st13{fill:none;stroke:#9C9B9B;stroke-width:0.75;stroke-miterlimit:10;}
	.st14{fill:none;stroke:#8EA0A9;stroke-width:0.75;stroke-miterlimit:10;}
	.st15{fill:#8EA0A9;}
	.st16{font-size:13px;}
	.st17{font-size:9.2862px;}
	.st18{fill:#FFFFFF;}
	.st19{fill:#90A9D2;}
	.st20{fill:#F4A3A5;}
	.st21{fill:#B1A0CD;}
</style>
<rect x="5.72" y="23.89" class="st0" width="336.2" height="80.98"/>
<g>
	<text transform="matrix(1 0 0 1 34.8031 89.4144)" class="st1 st2 st3">ATATTC</text>
</g>
<g>
	<g>
		<line class="st4" x1="14.51" y1="55.81" x2="15.01" y2="55.81"/>
		<line class="st5" x1="16.01" y1="55.81" x2="53.63" y2="55.81"/>
		<line class="st4" x1="54.13" y1="55.81" x2="54.63" y2="55.81"/>
		<g>
			<polygon points="15.56,57.19 14.97,55.81 15.56,54.42 12.27,55.81 			"/>
		</g>
		<g>
			<polygon points="53.58,57.19 54.17,55.81 53.58,54.42 56.87,55.81 			"/>
		</g>
	</g>
</g>
<g>
	<text transform="matrix(1 0 0 1 27.6342 52.9056)" class="st2 st6">50 bp</text>
</g>
<g>
	<text transform="matrix(1 0 0 1 50.0492 99.7601)" class="st7 st2 st3">UGUAMNUA</text>
</g>
<g>
	<g>
		<line class="st4" x1="73.36" y1="55.81" x2="73.86" y2="55.81"/>
		<line class="st8" x1="74.86" y1="55.81" x2="124.3" y2="55.81"/>
		<line class="st4" x1="124.8" y1="55.81" x2="125.3" y2="55.81"/>
		<g>
			<polygon points="74.41,57.19 73.82,55.81 74.41,54.42 71.12,55.81 			"/>
		</g>
		<g>
			<polygon points="124.25,57.19 124.84,55.81 124.25,54.42 127.54,55.81 			"/>
		</g>
	</g>
</g>
<g>
	<text transform="matrix(1 0 0 1 92.0551 52.9066)" class="st2 st6">62 bp</text>
</g>
<g>
	<g>
		<line class="st4" x1="137.82" y1="55.81" x2="138.32" y2="55.81"/>
		<line class="st9" x1="139.31" y1="55.81" x2="208.64" y2="55.81"/>
		<line class="st4" x1="209.14" y1="55.81" x2="209.64" y2="55.81"/>
		<g>
			<polygon points="138.87,57.19 138.28,55.81 138.87,54.42 135.58,55.81 			"/>
		</g>
		<g>
			<polygon points="208.58,57.19 209.17,55.81 208.58,54.42 211.87,55.81 			"/>
		</g>
	</g>
</g>
<g>
	<text transform="matrix(1 0 0 1 165.9096 52.9046)" class="st2 st6">84 bp</text>
</g>
<g>
	<text transform="matrix(1 0 0 1 215.9106 49.2269)" class="st2 st6">11 bp</text>
</g>
<g>
	<g>
		<line class="st4" x1="240.09" y1="55.81" x2="240.59" y2="55.81"/>
		<line class="st8" x1="241.59" y1="55.81" x2="332.99" y2="55.81"/>
		<line class="st4" x1="333.49" y1="55.81" x2="333.99" y2="55.81"/>
		<g>
			<polygon points="241.14,57.19 240.55,55.81 241.14,54.42 237.85,55.81 			"/>
		</g>
		<g>
			<polygon points="332.93,57.19 333.52,55.81 332.93,54.42 336.23,55.81 			"/>
		</g>
	</g>
</g>
<g>
	<text transform="matrix(1 0 0 1 278.1117 52.9056)" class="st2 st6">110 bp</text>
</g>
<text transform="matrix(1 0 0 1 104.2284 89.4144)" class="st10 st2 st3">HWNCAUUWY</text>
<text transform="matrix(1 0 0 1 171.6258 89.4144)" class="st10 st2 st3">HWNCAUUWY</text>
<g>
	<g>
		<line class="st11" x1="220.67" y1="52.4" x2="228.27" y2="52.4"/>
		<g>
			<polygon points="221.73,53.79 221.14,52.4 221.73,51.02 218.44,52.4 			"/>
		</g>
		<g>
			<polygon points="227.22,53.79 227.81,52.4 227.22,51.02 230.51,52.4 			"/>
		</g>
	</g>
</g>
<rect x="12.27" y="59.73" class="st12" width="323.96" height="13.84"/>
<line class="st13" x1="12.27" y1="39.19" x2="247.59" y2="39.19"/>
<line class="st13" x1="12.39" y1="43.45" x2="12.39" y2="38.71"/>
<line class="st13" x1="247.15" y1="43.55" x2="247.15" y2="38.8"/>
<g>
	<g>
		<line class="st14" x1="67.45" y1="74.27" x2="67.45" y2="90.77"/>
		<g>
			<polygon class="st15" points="66.06,89.72 67.45,90.31 68.84,89.72 67.45,93.01 			"/>
		</g>
	</g>
</g>
<g>
	<g>
		<line class="st14" x1="60.05" y1="74.27" x2="60.05" y2="79.73"/>
		<g>
			<polygon class="st15" points="58.66,78.67 60.05,79.26 61.43,78.67 60.05,81.97 			"/>
		</g>
	</g>
</g>
<g>
	<g>
		<line class="st14" x1="131.56" y1="74.16" x2="131.56" y2="79.25"/>
		<g>
			<polygon class="st15" points="130.17,78.2 131.56,78.79 132.95,78.2 131.56,81.49 			"/>
		</g>
	</g>
</g>
<g>
	<g>
		<line class="st14" x1="214.98" y1="74.27" x2="214.98" y2="79.25"/>
		<g>
			<polygon class="st15" points="213.59,78.2 214.98,78.79 216.37,78.2 214.98,81.49 			"/>
		</g>
	</g>
</g>
<text transform="matrix(1 0 0 1 223.0121 99.7601)" class="st10 st2 st3">HWNCAUUWY</text>
<g>
	<g>
		<line class="st14" x1="233.83" y1="74.27" x2="233.83" y2="90.38"/>
		<g>
			<polygon class="st15" points="232.44,89.33 233.83,89.92 235.22,89.33 233.83,92.62 			"/>
		</g>
	</g>
</g>
<g>
	<text transform="matrix(1 0 0 1 126.1667 16.4198)" class="st2 st16">PIR1 WT terminator</text>
</g>
<g>
	<text transform="matrix(1 0 0 1 89.5163 34.9559)" class="st2 st17">Median 3’UTR length</text>
</g>
<rect x="12.67" y="60.09" class="st18" width="234.49" height="13.11"/>
<rect x="63.09" y="60.12" class="st19" width="8.04" height="13.08"/>
<rect x="57.09" y="60.12" class="st20" width="5.91" height="13.08"/>
<rect x="127.54" y="60.09" class="st21" width="8.04" height="13.08"/>
<rect x="210.96" y="60.09" class="st21" width="8.04" height="13.08"/>
<rect x="229.81" y="60.09" class="st21" width="8.04" height="13.08"/>
</svg>
