<?xml version="1.0" encoding="utf-8"?>
<!-- Generator: Adobe Illustrator 25.2.0, SVG Export Plug-In . SVG Version: 6.00 Build 0)  -->
<svg version="1.1" id="Layer_1" xmlns="http://www.w3.org/2000/svg" xmlns:xlink="http://www.w3.org/1999/xlink" x="0px" y="0px"
	 viewBox="0 0 259.5 176.7" style="enable-background:new 0 0 259.5 176.7;" xml:space="preserve">
<style type="text/css">
	.st0{fill:#C05558;stroke:#C05558;stroke-width:0.5;stroke-miterlimit:10;}
	.st1{fill:#5978BA;stroke:#5978BA;stroke-width:0.5;stroke-miterlimit:10;}
	.st2{fill:#71519C;stroke:#71519C;stroke-width:0.5;stroke-miterlimit:10;}
	.st3{fill:#B2B2B2;stroke:#B2B2B2;stroke-width:0.75;stroke-miterlimit:10;}
	.st4{fill:none;stroke:#B2B2B2;stroke-linecap:round;stroke-miterlimit:10;}
	.st5{fill:#DED3D4;}
	.st6{fill:none;stroke:#9D9D9C;stroke-miterlimit:10;}
	.st7{fill:#9D9D9C;}
	.st8{stroke:#000000;stroke-width:0.75;stroke-miterlimit:10;}
	.st9{fill:#706F6F;stroke:#706F6F;stroke-width:0.75;stroke-miterlimit:10;}
	.st10{fill:#438BCA;stroke:#438BCA;stroke-width:0.75;stroke-miterlimit:10;}
	.st11{stroke:#000000;stroke-miterlimit:10;}
	.st12{fill:#DED3D4;stroke:#9B5E5D;stroke-miterlimit:10;}
	.st13{fill:#31A836;stroke:#31A836;stroke-width:0.75;stroke-miterlimit:10;}
	.st14{fill:#C71617;stroke:#C71617;stroke-width:0.75;stroke-miterlimit:10;}
	.st15{fill:#C288BB;stroke:#C288BB;stroke-width:0.5;stroke-miterlimit:10;}
	.st16{fill:#7FBF74;stroke:#7FBF74;stroke-width:0.5;stroke-miterlimit:10;}
	.st17{fill:none;stroke:#B2B2B2;stroke-miterlimit:10;}
	.st18{stroke:#000000;stroke-width:0.5;stroke-miterlimit:10;}
	.st19{fill:#878787;stroke:#878787;stroke-width:0.5;stroke-miterlimit:10;}
	.st20{fill:#B69194;stroke:#B69194;stroke-width:0.5;stroke-miterlimit:10;}
	.st21{fill:#7D91AF;stroke:#7D91AF;stroke-width:0.5;stroke-miterlimit:10;}
	.st22{fill:#7F6C9E;stroke:#71519C;stroke-width:0.5;stroke-miterlimit:10;}
	.st23{fill:#A48A7B;stroke:#A48A7B;stroke-width:0.75;stroke-miterlimit:10;}
	.st24{fill:#A98EAA;stroke:#C288BB;stroke-width:0.5;stroke-miterlimit:10;}
	.st25{fill:#96AF91;stroke:#96AF91;stroke-width:0.5;stroke-miterlimit:10;}
	.st26{fill:#6D4837;stroke:#6D4837;stroke-width:0.75;stroke-miterlimit:10;}
	.st27{fill:#937760;stroke:#937760;stroke-width:0.75;stroke-miterlimit:10;}
	.st28{fill:none;stroke:#000000;stroke-width:0.5;stroke-miterlimit:10;}
	.st29{fill:none;stroke:#000000;stroke-width:0.75;stroke-miterlimit:10;}
	.st30{fill:none;stroke:#000000;stroke-width:0.75;stroke-miterlimit:10;stroke-dasharray:1.9627,1.472;}
	.st31{fill:none;stroke:#000000;stroke-width:0.75;stroke-miterlimit:10;stroke-dasharray:1.9168,1.4376;}
	.st32{fill:none;stroke:#000000;stroke-width:0.75;stroke-miterlimit:10;stroke-dasharray:2.0046,1.5034;}
	.st33{fill:none;stroke:#000000;stroke-width:0.75;stroke-miterlimit:10;stroke-dasharray:2.0045,1.5034;}
	.st34{fill:none;stroke:#CCC3E0;stroke-width:0.5;stroke-miterlimit:10;}
	.st35{fill:none;stroke:#BCA6D1;stroke-width:0.5;stroke-miterlimit:10;}
	.st36{fill:none;stroke:#000000;stroke-width:0.75;stroke-miterlimit:10;stroke-dasharray:2,1.5;}
	.st37{fill:#EDEDED;stroke:#575656;stroke-width:0.75;stroke-miterlimit:10;}
	.st38{fill:#90A9D3;}
	.st39{fill:#F4A3A5;}
	.st40{fill:#B3A1CE;}
	.st41{fill:#C6C6C6;}
	.st42{fill:none;stroke:#9D9D9C;stroke-width:0.75;stroke-miterlimit:10;}
	.st43{fill:none;stroke:#8DA0AA;stroke-width:0.75;stroke-miterlimit:10;}
	.st44{fill:#8DA0AA;}
	.st45{fill:none;stroke:#C05558;stroke-width:0.5;stroke-miterlimit:10;}
	.st46{fill:none;stroke:#5978BA;stroke-width:0.5;stroke-miterlimit:10;}
	.st47{fill:none;stroke:#71519C;stroke-width:0.5;stroke-miterlimit:10;}
	.st48{fill:#4EB0B5;stroke:#4EB0B5;stroke-width:0.5;stroke-miterlimit:10;}
	.st49{fill:#E0A101;}
	.st50{font-family:'ExpoSansPro-Regular';}
	.st51{font-size:7px;}
	.st52{fill:#E0A101;stroke:#E0A101;stroke-width:0.5;stroke-miterlimit:10;}
	.st53{fill:#9B5E5D;}
	.st54{font-family:'ExpoSansPro-SemiboldItalic';}
	.st55{font-size:6.6103px;}
	.st56{fill:#878787;}
	.st57{fill:#5978BA;}
	.st58{fill:#4EB0B5;}
	.st59{fill:#DC76A4;stroke:#DD76A5;stroke-width:0.5;stroke-miterlimit:10;}
	.st60{fill:#D97F1D;stroke:#D97F1D;stroke-width:0.5;stroke-miterlimit:10;}
	.st61{fill:#C15659;stroke:#C05558;stroke-width:0.5;stroke-miterlimit:10;}
	.st62{fill:#C15659;}
	.st63{fill:#71519C;stroke:#71529D;stroke-width:0.5;stroke-miterlimit:10;}
	.st64{fill:#978BC2;stroke:#968BC2;stroke-width:0.5;stroke-miterlimit:10;}
	.st65{fill:#71519C;}
	.st66{fill:#968BC2;}
	.st67{fill:#D97F1D;}
	.st68{fill:#DD76A5;}
</style>
<g>
	<g>
		<path class="st1" d="M125.46,48.16c1.11,0,2.21-0.01,3.32,0.01c0.29,0,0.72-0.17,0.73,0.41c0.01,0.57-0.41,0.45-0.71,0.45
			c-0.83,0.01-1.66,0.03-2.49-0.01c-0.38-0.02-0.5,0.1-0.5,0.57c0.02,1.99,0.01,3.98,0.01,5.96c0,0.34,0.06,0.79-0.38,0.76
			c-0.38-0.02-0.35-0.42-0.34-0.75c0-1.99-0.01-3.98,0.01-5.96c0-0.44-0.08-0.6-0.48-0.58c-0.89,0.04-1.78,0.01-2.67,0.01
			c-0.27,0-0.54-0.02-0.55-0.45c0-0.45,0.29-0.43,0.55-0.43C123.13,48.16,124.3,48.16,125.46,48.16z"/>
	</g>
</g>
<g>
	<g>
		<path class="st48" d="M125.68,63c1.11,0,2.21-0.01,3.32,0.01c0.29,0,0.72-0.17,0.73,0.41c0.01,0.57-0.41,0.45-0.71,0.45
			c-0.83,0.01-1.66,0.03-2.49-0.01c-0.38-0.02-0.5,0.1-0.5,0.57c0.02,1.99,0.01,3.98,0.01,5.96c0,0.34,0.06,0.79-0.38,0.76
			c-0.38-0.02-0.35-0.42-0.34-0.75c0-1.99-0.01-3.98,0.01-5.96c0-0.44-0.08-0.6-0.48-0.58c-0.89,0.04-1.78,0.01-2.67,0.01
			c-0.27,0-0.54-0.02-0.55-0.45c0-0.45,0.29-0.43,0.55-0.43C123.35,63,124.51,63,125.68,63z"/>
	</g>
</g>
<text transform="matrix(1 0 0 1 39.1225 28.8907)" class="st49 st50 st51">pPIR1</text>
<path class="st52" d="M31.06,22.74c-2.15,0-4.13,0.01-6.12-0.01c-0.45,0-0.33,0.28-0.33,0.51c-0.01,1.93,0,3.86,0,5.78
	c0,0.17,0.01,0.34-0.02,0.51c-0.03,0.21-0.18,0.35-0.39,0.34c-0.21,0-0.35-0.13-0.37-0.35c-0.01-0.13-0.01-0.25-0.01-0.38
	c0-2.16,0.01-4.32-0.01-6.48c-0.01-0.56,0.2-0.74,0.74-0.73c2.12,0.02,4.23,0.01,6.44,0.01c-0.35-0.5-0.82-0.79-1.2-1.15
	c-0.22-0.21-0.4-0.43-0.15-0.7c0.22-0.25,0.46-0.1,0.66,0.08c0.67,0.59,1.33,1.18,2,1.77c0.3,0.26,0.33,0.53,0.02,0.8
	c-0.67,0.58-1.35,1.16-2.02,1.74c-0.2,0.18-0.43,0.34-0.66,0.08c-0.24-0.27-0.08-0.5,0.16-0.7C30.18,23.53,30.55,23.19,31.06,22.74z
	"/>
<line class="st4" x1="18.08" y1="29.88" x2="35.88" y2="29.88"/>
<line class="st4" x1="117.9" y1="56.33" x2="134.11" y2="56.33"/>
<path class="st5" d="M72.04,39.91c0-1.64,0.03-3.28-0.01-4.92c-0.02-0.66,0.35-0.91,1.36-0.9c2.9,0.02,21.33,0.01,24.24,0
	c0.61,0,1.06,0.14,1.49,0.42c2.44,1.61,4.32,3.21,6.8,4.8c0.71,0.46,0.74,0.8,0.01,1.27c-2.48,1.58-4.36,3.19-6.79,4.8
	c-0.47,0.31-0.96,0.42-1.61,0.41c-2.82-0.02-21.16-0.05-23.98,0.01c-1.26,0.03-1.55-0.3-1.52-1.04
	C72.09,43.14,72.04,41.52,72.04,39.91z"/>
<text transform="matrix(1 0 0 1 74.9749 42.1567)" class="st53 st54 st55">mCherry</text>
<g>
	<g>
		<line class="st6" x1="121.18" y1="88.19" x2="121.18" y2="93.96"/>
		<g>
			<polygon class="st7" points="119.33,92.56 121.18,93.34 123.03,92.56 121.18,96.95 			"/>
		</g>
	</g>
</g>
<text transform="matrix(1 0 0 1 38.5561 45.7667)" class="st50 st51">pPGK1</text>
<path class="st8" d="M31.06,39.62c-2.15,0-4.13,0.01-6.12-0.01c-0.45,0-0.33,0.28-0.33,0.51c-0.01,1.93,0,3.86,0,5.78
	c0,0.17,0.01,0.34-0.02,0.51c-0.03,0.21-0.18,0.35-0.39,0.34c-0.21,0-0.35-0.13-0.37-0.35c-0.01-0.13-0.01-0.25-0.01-0.38
	c0-2.16,0.01-4.32-0.01-6.48c-0.01-0.56,0.2-0.74,0.74-0.73c2.12,0.02,4.23,0.01,6.44,0.01c-0.35-0.5-0.82-0.79-1.2-1.15
	c-0.22-0.21-0.4-0.43-0.15-0.7c0.22-0.25,0.46-0.1,0.66,0.08c0.67,0.59,1.33,1.18,2,1.77c0.3,0.26,0.33,0.53,0.02,0.8
	c-0.67,0.58-1.35,1.16-2.02,1.74c-0.2,0.18-0.43,0.34-0.66,0.08c-0.24-0.27-0.08-0.5,0.16-0.7C30.18,40.4,30.55,40.06,31.06,39.62z"
	/>
<line class="st4" x1="18.08" y1="46.75" x2="35.88" y2="46.75"/>
<text transform="matrix(1 0 0 1 38.5586 63.0342)" class="st56 st50 st51">pSRO9</text>
<path class="st3" d="M31.06,56.89c-2.15,0-4.13,0.01-6.12-0.01c-0.45,0-0.33,0.28-0.33,0.51c-0.01,1.93,0,3.86,0,5.78
	c0,0.17,0.01,0.34-0.02,0.51c-0.03,0.21-0.18,0.35-0.39,0.34c-0.21,0-0.35-0.13-0.37-0.35c-0.01-0.13-0.01-0.25-0.01-0.38
	c0-2.16,0.01-4.32-0.01-6.48c-0.01-0.56,0.2-0.74,0.74-0.73c2.12,0.02,4.23,0.01,6.44,0.01c-0.35-0.5-0.82-0.79-1.2-1.15
	c-0.22-0.21-0.4-0.43-0.15-0.7c0.22-0.25,0.46-0.1,0.66,0.08c0.67,0.59,1.33,1.18,2,1.77c0.3,0.26,0.33,0.53,0.02,0.8
	c-0.67,0.58-1.35,1.16-2.02,1.74c-0.2,0.18-0.43,0.34-0.66,0.08c-0.24-0.27-0.08-0.5,0.16-0.7C30.18,57.67,30.55,57.33,31.06,56.89z
	"/>
<line class="st4" x1="18.08" y1="64.02" x2="35.88" y2="64.02"/>
<line class="st4" x1="117.9" y1="71.17" x2="134.11" y2="71.17"/>
<text transform="matrix(1 0 0 1 136.6277 56.3288)" class="st57 st50 st51">mod_ANHHH</text>
<text transform="matrix(1 0 0 1 136.6277 71.1648)" class="st58 st50 st51">mod_ATNHH</text>
<path class="st6" d="M178.66,76.09v1.47c0,5.8-3.81,10.5-8.51,10.5H47.28c-4.7,0-8.51-4.7-8.51-10.5v-9.43"/>
<line class="st6" x1="88.18" y1="49.48" x2="88.18" y2="88.42"/>
<path class="st3" d="M112.73,109.61c-2.02,0-3.88,0.01-5.75-0.01c-0.42,0-0.31,0.27-0.31,0.48c-0.01,1.81,0,3.62,0,5.43
	c0,0.16,0.01,0.32-0.01,0.48c-0.03,0.2-0.17,0.32-0.37,0.32c-0.2,0-0.33-0.12-0.35-0.33c-0.01-0.12-0.01-0.24-0.01-0.36
	c0-2.03,0.01-4.06-0.01-6.09c-0.01-0.53,0.19-0.69,0.7-0.69c1.99,0.02,3.98,0.01,6.04,0.01c-0.33-0.47-0.77-0.74-1.13-1.08
	c-0.21-0.2-0.37-0.4-0.14-0.66c0.21-0.23,0.43-0.09,0.62,0.07c0.63,0.55,1.25,1.11,1.88,1.66c0.28,0.25,0.31,0.5,0.02,0.75
	c-0.63,0.55-1.27,1.09-1.9,1.63c-0.19,0.16-0.41,0.32-0.62,0.08c-0.22-0.26-0.07-0.47,0.15-0.65
	C111.9,110.35,112.26,110.03,112.73,109.61z"/>
<g>
	<path class="st59" d="M138.29,108.24c1.03,0,2.05-0.01,3.08,0.01c0.27,0,0.67-0.15,0.68,0.38c0.01,0.53-0.38,0.42-0.66,0.42
		c-0.77,0.01-1.54,0.02-2.31-0.01c-0.35-0.01-0.46,0.09-0.46,0.53c0.02,1.85,0.01,3.69,0.01,5.54c0,0.32,0.06,0.73-0.36,0.71
		c-0.35-0.02-0.32-0.39-0.32-0.7c0-1.85-0.01-3.69,0.01-5.54c0-0.41-0.07-0.56-0.44-0.54c-0.82,0.04-1.65,0.01-2.48,0.01
		c-0.25,0-0.51-0.02-0.51-0.42c0-0.41,0.27-0.4,0.51-0.4C136.12,108.24,137.21,108.24,138.29,108.24z"/>
</g>
<path class="st17" d="M138.38,131.52h-30.63c-3.49,0-6.34-2.86-6.34-6.34v-2.5c0-3.49,2.86-6.34,6.34-6.34h30.63
	c3.49,0,6.34,2.86,6.34,6.34v2.5C144.73,128.66,141.87,131.52,138.38,131.52z"/>
<path class="st5" d="M114.51,116.35c0-0.99,0.02-1.97-0.01-2.96c-0.01-0.39,0.21-0.55,0.82-0.54c1.74,0.01,12.82,0.01,14.56,0
	c0.37,0,0.64,0.08,0.89,0.25c1.46,0.97,2.6,1.93,4.09,2.88c0.43,0.27,0.44,0.48,0.01,0.76c-1.49,0.95-2.62,1.91-4.08,2.88
	c-0.28,0.19-0.57,0.25-0.96,0.25c-1.69-0.01-12.72-0.03-14.41,0.01c-0.76,0.02-0.93-0.18-0.91-0.63
	C114.53,118.29,114.51,117.32,114.51,116.35z"/>
<path class="st8" d="M61.13,114.28c-2.02,0-3.88,0.01-5.75-0.01c-0.42,0-0.31,0.27-0.31,0.48c-0.01,1.81,0,3.62,0,5.43
	c0,0.16,0.01,0.32-0.01,0.48c-0.03,0.2-0.17,0.32-0.37,0.32c-0.2,0-0.33-0.12-0.35-0.33c-0.01-0.12-0.01-0.24-0.01-0.36
	c0-2.03,0.01-4.06-0.01-6.09c-0.01-0.53,0.19-0.69,0.7-0.69c1.99,0.02,3.98,0.01,6.04,0.01c-0.33-0.47-0.77-0.74-1.13-1.08
	c-0.21-0.2-0.37-0.4-0.14-0.66c0.21-0.23,0.43-0.09,0.62,0.07c0.63,0.55,1.25,1.11,1.88,1.66c0.28,0.25,0.31,0.5,0.02,0.75
	c-0.63,0.55-1.27,1.09-1.9,1.63c-0.19,0.16-0.41,0.32-0.62,0.08c-0.22-0.26-0.07-0.47,0.15-0.65
	C60.3,115.02,60.65,114.7,61.13,114.28z"/>
<g>
	<path class="st0" d="M86.69,112.91c1.03,0,2.05-0.01,3.08,0.01c0.27,0,0.67-0.15,0.68,0.38c0.01,0.53-0.38,0.42-0.66,0.42
		c-0.77,0.01-1.54,0.02-2.31-0.01c-0.35-0.01-0.46,0.09-0.46,0.53c0.02,1.85,0.01,3.69,0.01,5.54c0,0.32,0.06,0.73-0.36,0.71
		c-0.35-0.02-0.32-0.39-0.32-0.7c0-1.85-0.01-3.69,0.01-5.54c0-0.41-0.07-0.56-0.44-0.54c-0.82,0.04-1.65,0.01-2.48,0.01
		c-0.25,0-0.51-0.02-0.51-0.42c0-0.41,0.27-0.4,0.51-0.4C84.52,112.91,85.61,112.91,86.69,112.91z"/>
</g>
<path class="st17" d="M86.78,136.18H56.16c-3.49,0-6.34-2.86-6.34-6.34v-2.5c0-3.49,2.86-6.34,6.34-6.34h30.63
	c3.49,0,6.34,2.86,6.34,6.34v2.5C93.13,133.33,90.27,136.18,86.78,136.18z"/>
<path class="st5" d="M62.9,121.02c0-0.99,0.02-1.97-0.01-2.96c-0.01-0.39,0.21-0.55,0.82-0.54c1.74,0.01,12.82,0.01,14.56,0
	c0.37,0,0.64,0.08,0.89,0.25c1.46,0.97,2.6,1.93,4.09,2.88c0.43,0.27,0.44,0.48,0.01,0.76c-1.49,0.95-2.62,1.91-4.08,2.88
	c-0.28,0.19-0.57,0.25-0.96,0.25c-1.69-0.01-12.72-0.03-14.41,0.01c-0.76,0.02-0.93-0.18-0.91-0.63
	C62.93,122.96,62.9,121.99,62.9,121.02z"/>
<path class="st52" d="M163.05,114.28c-2.02,0-3.88,0.01-5.75-0.01c-0.42,0-0.31,0.27-0.31,0.48c-0.01,1.81,0,3.62,0,5.43
	c0,0.16,0.01,0.32-0.01,0.48c-0.03,0.2-0.17,0.32-0.37,0.32c-0.2,0-0.33-0.12-0.35-0.33c-0.01-0.12-0.01-0.24-0.01-0.36
	c0-2.03,0.01-4.06-0.01-6.09c-0.01-0.53,0.19-0.69,0.7-0.69c1.99,0.02,3.98,0.01,6.04,0.01c-0.33-0.47-0.77-0.74-1.13-1.08
	c-0.21-0.2-0.37-0.4-0.14-0.66c0.21-0.23,0.43-0.09,0.62,0.07c0.63,0.55,1.25,1.11,1.88,1.66c0.28,0.25,0.31,0.5,0.02,0.75
	c-0.63,0.55-1.27,1.09-1.9,1.63c-0.19,0.16-0.41,0.32-0.62,0.08c-0.22-0.26-0.07-0.47,0.15-0.65
	C162.23,115.02,162.58,114.7,163.05,114.28z"/>
<g>
	<path class="st60" d="M188.61,112.91c1.03,0,2.05-0.01,3.08,0.01c0.27,0,0.67-0.15,0.68,0.38c0.01,0.53-0.38,0.42-0.66,0.42
		c-0.77,0.01-1.54,0.02-2.31-0.01c-0.35-0.01-0.46,0.09-0.46,0.53c0.02,1.85,0.01,3.69,0.01,5.54c0,0.32,0.06,0.73-0.36,0.71
		c-0.35-0.02-0.32-0.39-0.32-0.7c0-1.85-0.01-3.69,0.01-5.54c0-0.41-0.07-0.56-0.44-0.54c-0.82,0.04-1.65,0.01-2.48,0.01
		c-0.25,0-0.51-0.02-0.51-0.42c0-0.41,0.27-0.4,0.51-0.4C186.45,112.91,187.53,112.91,188.61,112.91z"/>
</g>
<path class="st17" d="M188.7,136.18h-30.63c-3.49,0-6.34-2.86-6.34-6.34v-2.5c0-3.49,2.86-6.34,6.34-6.34h30.63
	c3.49,0,6.34,2.86,6.34,6.34v2.5C195.05,133.33,192.19,136.18,188.7,136.18z"/>
<path class="st5" d="M164.83,121.02c0-0.99,0.02-1.97-0.01-2.96c-0.01-0.39,0.21-0.55,0.82-0.54c1.74,0.01,12.82,0.01,14.56,0
	c0.37,0,0.64,0.08,0.89,0.25c1.46,0.97,2.6,1.93,4.09,2.88c0.43,0.27,0.44,0.48,0.01,0.76c-1.49,0.95-2.62,1.91-4.08,2.88
	c-0.28,0.19-0.57,0.25-0.96,0.25c-1.69-0.01-12.72-0.03-14.41,0.01c-0.76,0.02-0.93-0.18-0.91-0.63
	C164.85,122.96,164.83,121.99,164.83,121.02z"/>
<path class="st52" d="M79.17,142.65c-2.02,0-3.88,0.01-5.75-0.01c-0.42,0-0.31,0.27-0.31,0.48c-0.01,1.81,0,3.62,0,5.43
	c0,0.16,0.01,0.32-0.01,0.48c-0.03,0.2-0.17,0.32-0.37,0.32c-0.2,0-0.33-0.12-0.35-0.33c-0.01-0.12-0.01-0.24-0.01-0.36
	c0-2.03,0.01-4.06-0.01-6.09c-0.01-0.53,0.19-0.69,0.7-0.69c1.99,0.02,3.98,0.01,6.04,0.01c-0.33-0.47-0.77-0.74-1.13-1.08
	c-0.21-0.2-0.37-0.4-0.14-0.66c0.21-0.23,0.43-0.09,0.62,0.07c0.63,0.55,1.25,1.11,1.88,1.66c0.28,0.25,0.31,0.5,0.02,0.75
	c-0.63,0.55-1.27,1.09-1.9,1.63c-0.19,0.16-0.41,0.32-0.62,0.08c-0.22-0.26-0.07-0.47,0.15-0.65
	C78.34,143.39,78.7,143.07,79.17,142.65z"/>
<g>
	<path class="st1" d="M104.73,141.28c1.03,0,2.05-0.01,3.08,0.01c0.27,0,0.67-0.15,0.68,0.38c0.01,0.53-0.38,0.42-0.66,0.42
		c-0.77,0.01-1.54,0.02-2.31-0.01c-0.35-0.01-0.46,0.09-0.46,0.53c0.02,1.85,0.01,3.69,0.01,5.54c0,0.32,0.06,0.73-0.36,0.71
		c-0.35-0.02-0.32-0.39-0.32-0.7c0-1.85-0.01-3.69,0.01-5.54c0-0.41-0.07-0.56-0.44-0.54c-0.82,0.04-1.65,0.01-2.48,0.01
		c-0.25,0-0.51-0.02-0.51-0.42c0-0.41,0.27-0.4,0.51-0.4C102.57,141.28,103.65,141.28,104.73,141.28z"/>
</g>
<path class="st17" d="M104.82,164.56H74.2c-3.49,0-6.34-2.86-6.34-6.34v-2.5c0-3.49,2.86-6.34,6.34-6.34h30.63
	c3.49,0,6.34,2.86,6.34,6.34v2.5C111.17,161.7,108.31,164.56,104.82,164.56z"/>
<path class="st5" d="M80.95,149.39c0-0.99,0.02-1.97-0.01-2.96c-0.01-0.39,0.21-0.55,0.82-0.54c1.74,0.01,12.82,0.01,14.56,0
	c0.37,0,0.64,0.08,0.89,0.25c1.46,0.97,2.6,1.93,4.09,2.88c0.43,0.27,0.44,0.48,0.01,0.76c-1.49,0.95-2.62,1.91-4.08,2.88
	c-0.28,0.19-0.57,0.25-0.96,0.25c-1.69-0.01-12.72-0.03-14.41,0.01c-0.76,0.02-0.93-0.18-0.91-0.63
	C80.97,151.33,80.95,150.36,80.95,149.39z"/>
<path class="st8" d="M134.39,143.28c-2.02,0-3.88,0.01-5.75-0.01c-0.42,0-0.31,0.27-0.31,0.48c-0.01,1.81,0,3.62,0,5.43
	c0,0.16,0.01,0.32-0.01,0.48c-0.03,0.2-0.17,0.32-0.37,0.32c-0.2,0-0.33-0.12-0.35-0.33c-0.01-0.12-0.01-0.24-0.01-0.36
	c0-2.03,0.01-4.06-0.01-6.09c-0.01-0.53,0.19-0.69,0.7-0.69c1.99,0.02,3.98,0.01,6.04,0.01c-0.33-0.47-0.77-0.74-1.13-1.08
	c-0.21-0.2-0.37-0.4-0.14-0.66c0.21-0.23,0.43-0.09,0.62,0.07c0.63,0.55,1.25,1.11,1.88,1.66c0.28,0.25,0.31,0.5,0.02,0.75
	c-0.63,0.55-1.27,1.09-1.9,1.63c-0.19,0.16-0.41,0.32-0.62,0.08c-0.22-0.26-0.07-0.47,0.15-0.65
	C133.56,144.02,133.92,143.7,134.39,143.28z"/>
<g>
	<path class="st48" d="M159.95,141.91c1.03,0,2.05-0.01,3.08,0.01c0.27,0,0.67-0.15,0.68,0.38c0.01,0.53-0.38,0.42-0.66,0.42
		c-0.77,0.01-1.54,0.02-2.31-0.01c-0.35-0.01-0.46,0.09-0.46,0.53c0.02,1.85,0.01,3.69,0.01,5.54c0,0.32,0.06,0.73-0.36,0.71
		c-0.35-0.02-0.32-0.39-0.32-0.7c0-1.85-0.01-3.69,0.01-5.54c0-0.41-0.07-0.56-0.44-0.54c-0.82,0.04-1.65,0.01-2.48,0.01
		c-0.25,0-0.51-0.02-0.51-0.42c0-0.41,0.27-0.4,0.51-0.4C157.78,141.91,158.87,141.91,159.95,141.91z"/>
</g>
<path class="st17" d="M160.04,165.19h-30.63c-3.49,0-6.34-2.86-6.34-6.34v-2.5c0-3.49,2.86-6.34,6.34-6.34h30.63
	c3.49,0,6.34,2.86,6.34,6.34v2.5C166.39,162.33,163.53,165.19,160.04,165.19z"/>
<path class="st5" d="M136.16,150.02c0-0.99,0.02-1.97-0.01-2.96c-0.01-0.39,0.21-0.55,0.82-0.54c1.74,0.01,12.82,0.01,14.56,0
	c0.37,0,0.64,0.08,0.89,0.25c1.46,0.97,2.6,1.93,4.09,2.88c0.43,0.27,0.44,0.48,0.01,0.76c-1.49,0.95-2.62,1.91-4.08,2.88
	c-0.28,0.19-0.57,0.25-0.96,0.25c-1.69-0.01-12.72-0.03-14.41,0.01c-0.76,0.02-0.93-0.18-0.91-0.63
	C136.19,151.96,136.16,150.99,136.16,150.02z"/>
<path class="st3" d="M193.83,143.28c-2.02,0-3.88,0.01-5.75-0.01c-0.42,0-0.31,0.27-0.31,0.48c-0.01,1.81,0,3.62,0,5.43
	c0,0.16,0.01,0.32-0.01,0.48c-0.03,0.2-0.17,0.32-0.37,0.32c-0.2,0-0.33-0.12-0.35-0.33c-0.01-0.12-0.01-0.24-0.01-0.36
	c0-2.03,0.01-4.06-0.01-6.09c-0.01-0.53,0.19-0.69,0.7-0.69c1.99,0.02,3.98,0.01,6.04,0.01c-0.33-0.47-0.77-0.74-1.13-1.08
	c-0.21-0.2-0.37-0.4-0.14-0.66c0.21-0.23,0.43-0.09,0.62,0.07c0.63,0.55,1.25,1.11,1.88,1.66c0.28,0.25,0.31,0.5,0.02,0.75
	c-0.63,0.55-1.27,1.09-1.9,1.63c-0.19,0.16-0.41,0.32-0.62,0.08c-0.22-0.26-0.07-0.47,0.15-0.65
	C193,144.02,193.35,143.7,193.83,143.28z"/>
<g>
	<path class="st2" d="M219.38,141.91c1.03,0,2.05-0.01,3.08,0.01c0.27,0,0.67-0.15,0.68,0.38c0.01,0.53-0.38,0.42-0.66,0.42
		c-0.77,0.01-1.54,0.02-2.31-0.01c-0.35-0.01-0.46,0.09-0.46,0.53c0.02,1.85,0.01,3.69,0.01,5.54c0,0.32,0.06,0.73-0.36,0.71
		c-0.35-0.02-0.32-0.39-0.32-0.7c0-1.85-0.01-3.69,0.01-5.54c0-0.41-0.07-0.56-0.44-0.54c-0.82,0.04-1.65,0.01-2.48,0.01
		c-0.25,0-0.51-0.02-0.51-0.42c0-0.41,0.27-0.4,0.51-0.4C217.22,141.91,218.3,141.91,219.38,141.91z"/>
</g>
<path class="st17" d="M219.48,165.19h-30.63c-3.49,0-6.34-2.86-6.34-6.34v-2.5c0-3.49,2.86-6.34,6.34-6.34h30.63
	c3.49,0,6.34,2.86,6.34,6.34v2.5C225.82,162.33,222.97,165.19,219.48,165.19z"/>
<path class="st5" d="M195.6,150.02c0-0.99,0.02-1.97-0.01-2.96c-0.01-0.39,0.21-0.55,0.82-0.54c1.74,0.01,12.82,0.01,14.56,0
	c0.37,0,0.64,0.08,0.89,0.25c1.46,0.97,2.6,1.93,4.09,2.88c0.43,0.27,0.44,0.48,0.01,0.76c-1.49,0.95-2.62,1.91-4.08,2.88
	c-0.28,0.19-0.57,0.25-0.96,0.25c-1.69-0.01-12.72-0.03-14.41,0.01c-0.76,0.02-0.93-0.18-0.91-0.63
	C195.62,151.96,195.6,150.99,195.6,150.02z"/>
<path class="st3" d="M29.88,143.28c-2.02,0-3.88,0.01-5.75-0.01c-0.42,0-0.31,0.27-0.31,0.48c-0.01,1.81,0,3.62,0,5.43
	c0,0.16,0.01,0.32-0.01,0.48c-0.03,0.2-0.17,0.32-0.37,0.32c-0.2,0-0.33-0.12-0.35-0.33c-0.01-0.12-0.01-0.24-0.01-0.36
	c0-2.03,0.01-4.06-0.01-6.09c-0.01-0.53,0.19-0.69,0.7-0.69c1.99,0.02,3.98,0.01,6.04,0.01c-0.33-0.47-0.77-0.74-1.13-1.08
	c-0.21-0.2-0.37-0.4-0.14-0.66c0.21-0.23,0.43-0.09,0.62,0.07c0.63,0.55,1.25,1.11,1.88,1.66c0.28,0.25,0.31,0.5,0.02,0.75
	c-0.63,0.55-1.27,1.09-1.9,1.63c-0.19,0.16-0.41,0.32-0.62,0.08c-0.22-0.26-0.07-0.47,0.15-0.65
	C29.05,144.02,29.4,143.7,29.88,143.28z"/>
<g>
	<path class="st2" d="M55.44,141.91c1.03,0,2.05-0.01,3.08,0.01c0.27,0,0.67-0.15,0.68,0.38c0.01,0.53-0.38,0.42-0.66,0.42
		c-0.77,0.01-1.54,0.02-2.31-0.01c-0.35-0.01-0.46,0.09-0.46,0.53c0.02,1.85,0.01,3.69,0.01,5.54c0,0.32,0.06,0.73-0.36,0.71
		c-0.35-0.02-0.32-0.39-0.32-0.7c0-1.85-0.01-3.69,0.01-5.54c0-0.41-0.07-0.56-0.44-0.54c-0.82,0.04-1.65,0.01-2.48,0.01
		c-0.25,0-0.51-0.02-0.51-0.42c0-0.41,0.27-0.4,0.51-0.4C53.27,141.91,54.35,141.91,55.44,141.91z"/>
</g>
<path class="st17" d="M55.53,165.19H24.9c-3.49,0-6.34-2.86-6.34-6.34v-2.5c0-3.49,2.86-6.34,6.34-6.34h30.63
	c3.49,0,6.34,2.86,6.34,6.34v2.5C61.88,162.33,59.02,165.19,55.53,165.19z"/>
<path class="st5" d="M31.65,150.02c0-0.99,0.02-1.97-0.01-2.96c-0.01-0.39,0.21-0.55,0.82-0.54c1.74,0.01,12.82,0.01,14.56,0
	c0.37,0,0.64,0.08,0.89,0.25c1.46,0.97,2.6,1.93,4.09,2.88c0.43,0.27,0.44,0.48,0.01,0.76c-1.49,0.95-2.62,1.91-4.08,2.88
	c-0.28,0.19-0.57,0.25-0.96,0.25c-1.69-0.01-12.72-0.03-14.41,0.01c-0.76,0.02-0.93-0.18-0.91-0.63
	C31.68,151.96,31.65,150.99,31.65,150.02z"/>
<g>
	<g>
		<path class="st61" d="M125.56,34.27c1.11,0,2.21-0.01,3.32,0.01c0.29,0,0.72-0.17,0.73,0.41c0.01,0.57-0.41,0.45-0.71,0.45
			c-0.83,0.01-1.66,0.03-2.49-0.01c-0.38-0.02-0.5,0.1-0.5,0.57c0.02,1.99,0.01,3.98,0.01,5.96c0,0.34,0.06,0.79-0.38,0.76
			c-0.38-0.02-0.35-0.42-0.34-0.75c0-1.99-0.01-3.98,0.01-5.96c0-0.44-0.08-0.6-0.48-0.58c-0.89,0.04-1.78,0.01-2.67,0.01
			c-0.27,0-0.54-0.02-0.55-0.45c0-0.45,0.29-0.43,0.55-0.43C123.23,34.27,124.4,34.27,125.56,34.27z"/>
	</g>
</g>
<line class="st4" x1="118" y1="42.44" x2="134.21" y2="42.44"/>
<text transform="matrix(1 0 0 1 136.6281 42.4394)" class="st62 st50 st51">mod_NTHHH</text>
<g>
	<g>
		<path class="st19" d="M125.56,20.38c1.11,0,2.21-0.01,3.32,0.01c0.29,0,0.72-0.17,0.73,0.41c0.01,0.57-0.41,0.45-0.71,0.45
			c-0.83,0.01-1.66,0.03-2.49-0.01c-0.38-0.02-0.5,0.1-0.5,0.57c0.02,1.99,0.01,3.98,0.01,5.96c0,0.34,0.06,0.79-0.38,0.76
			c-0.38-0.02-0.35-0.42-0.34-0.75c0-1.99-0.01-3.98,0.01-5.96c0-0.44-0.08-0.6-0.48-0.58c-0.89,0.04-1.78,0.01-2.67,0.01
			c-0.27,0-0.54-0.02-0.55-0.45c0-0.45,0.29-0.43,0.55-0.43C123.23,20.38,124.4,20.38,125.56,20.38z"/>
	</g>
</g>
<line class="st4" x1="118" y1="28.55" x2="134.21" y2="28.55"/>
<text transform="matrix(1 0 0 1 136.5177 28.5499)" class="st56 st50 st51">WT_ATHHH</text>
<rect x="13.85" y="14.69" class="st6" width="49.28" height="52.99"/>
<rect x="112.81" y="16.2" class="st6" width="136.74" height="59.63"/>
<text transform="matrix(1 0 0 1 21.9858 11.0777)" class="st50 st51">Promoters</text>
<text transform="matrix(1 0 0 1 167.8844 12.9402)" class="st50 st51">Terminators</text>
<text transform="matrix(1 0 0 1 80.4605 103.869)" class="st50 st51">Chimeric reporter plasmids</text>
<g>
	<g>
		<path class="st63" d="M193.6,34.69c1.11,0,2.21-0.01,3.32,0.01c0.29,0,0.72-0.17,0.73,0.41c0.01,0.57-0.41,0.45-0.71,0.45
			c-0.83,0.01-1.66,0.03-2.49-0.01c-0.38-0.02-0.5,0.1-0.5,0.57c0.02,1.99,0.01,3.98,0.01,5.96c0,0.34,0.06,0.79-0.38,0.76
			c-0.38-0.02-0.35-0.42-0.34-0.75c0-1.99-0.01-3.98,0.01-5.96c0-0.44-0.08-0.6-0.48-0.58c-0.89,0.04-1.78,0.01-2.67,0.01
			c-0.27,0-0.54-0.02-0.55-0.45c0-0.45,0.29-0.43,0.55-0.43C191.27,34.69,192.44,34.69,193.6,34.69z"/>
	</g>
</g>
<g>
	<g>
		<path class="st64" d="M193.82,49.52c1.11,0,2.21-0.01,3.32,0.01c0.29,0,0.72-0.17,0.73,0.41c0.01,0.57-0.41,0.45-0.71,0.45
			c-0.83,0.01-1.66,0.03-2.49-0.01c-0.38-0.02-0.5,0.1-0.5,0.57c0.02,1.99,0.01,3.98,0.01,5.96c0,0.34,0.06,0.79-0.38,0.76
			c-0.38-0.02-0.35-0.42-0.34-0.75c0-1.99-0.01-3.98,0.01-5.96c0-0.44-0.08-0.6-0.48-0.58c-0.89,0.04-1.78,0.01-2.67,0.01
			c-0.27,0-0.54-0.02-0.55-0.45c0-0.45,0.29-0.43,0.55-0.43C191.49,49.52,192.65,49.52,193.82,49.52z"/>
	</g>
</g>
<line class="st4" x1="186.04" y1="42.86" x2="202.25" y2="42.86"/>
<line class="st4" x1="186.04" y1="57.69" x2="202.25" y2="57.69"/>
<text transform="matrix(1 0 0 1 204.7676 42.8552)" class="st65 st50 st51">mod_ATNNN</text>
<text transform="matrix(1 0 0 1 204.7676 57.6911)" class="st66 st50 st51">mod_ANNNN</text>
<g>
	<g>
		<path class="st60" d="M193.7,20.8c1.11,0,2.21-0.01,3.32,0.01c0.29,0,0.72-0.17,0.73,0.41c0.01,0.57-0.41,0.45-0.71,0.45
			c-0.83,0.01-1.66,0.03-2.49-0.01c-0.38-0.02-0.5,0.1-0.5,0.57c0.02,1.99,0.01,3.98,0.01,5.96c0,0.34,0.06,0.79-0.38,0.76
			c-0.38-0.02-0.35-0.42-0.34-0.75c0-1.99-0.01-3.98,0.01-5.96c0-0.44-0.08-0.6-0.48-0.58c-0.89,0.04-1.78,0.01-2.67,0.01
			c-0.27,0-0.54-0.02-0.55-0.45c0-0.45,0.29-0.43,0.55-0.43C191.37,20.8,192.54,20.8,193.7,20.8z"/>
	</g>
</g>
<line class="st4" x1="186.14" y1="28.97" x2="202.35" y2="28.97"/>
<text transform="matrix(1 0 0 1 204.768 28.9657)" class="st67 st50 st51">mod_ATHNH</text>
<g>
	<g>
		<path class="st59" d="M193.82,64.58c1.11,0,2.21-0.01,3.32,0.01c0.29,0,0.72-0.17,0.73,0.41c0.01,0.57-0.41,0.45-0.71,0.45
			c-0.83,0.01-1.66,0.03-2.49-0.01c-0.38-0.02-0.5,0.1-0.5,0.57c0.02,1.99,0.01,3.98,0.01,5.96c0,0.34,0.06,0.79-0.38,0.76
			c-0.38-0.02-0.35-0.42-0.34-0.75c0-1.99-0.01-3.98,0.01-5.96c0-0.44-0.08-0.6-0.48-0.58c-0.89,0.04-1.78,0.01-2.67,0.01
			c-0.27,0-0.54-0.02-0.55-0.45c0-0.45,0.29-0.43,0.55-0.43C191.49,64.58,192.65,64.58,193.82,64.58z"/>
	</g>
</g>
<line class="st4" x1="186.04" y1="72.75" x2="202.25" y2="72.75"/>
<text transform="matrix(1 0 0 1 204.768 71.748)" class="st68 st50 st51">mod_NTNNN</text>
</svg>
