<?xml version="1.0" encoding="utf-8"?>
<!-- Generator: Adobe Illustrator 25.2.0, SVG Export Plug-In . SVG Version: 6.00 Build 0)  -->
<svg version="1.1" id="Layer_1" xmlns="http://www.w3.org/2000/svg" xmlns:xlink="http://www.w3.org/1999/xlink" x="0px" y="0px"
	 viewBox="0 0 240.49 172.47" style="enable-background:new 0 0 240.49 172.47;" xml:space="preserve">
<style type="text/css">
	.st0{fill:#C05558;stroke:#C05558;stroke-width:0.5;stroke-miterlimit:10;}
	.st1{fill:#5978BA;stroke:#5978BA;stroke-width:0.5;stroke-miterlimit:10;}
	.st2{fill:#71519C;stroke:#71519C;stroke-width:0.5;stroke-miterlimit:10;}
	.st3{fill:#B2B2B2;stroke:#B2B2B2;stroke-width:0.75;stroke-miterlimit:10;}
	.st4{fill:none;stroke:#B2B2B2;stroke-linecap:round;stroke-miterlimit:10;}
	.st5{fill:#DED3D4;}
	.st6{fill:none;stroke:#9D9D9C;stroke-miterlimit:10;}
	.st7{fill:#9D9D9C;}
	.st8{stroke:#000000;stroke-width:0.75;stroke-miterlimit:10;}
	.st9{fill:#706F6F;stroke:#706F6F;stroke-width:0.75;stroke-miterlimit:10;}
	.st10{fill:#438BCA;stroke:#438BCA;stroke-width:0.75;stroke-miterlimit:10;}
	.st11{stroke:#000000;stroke-miterlimit:10;}
	.st12{fill:#DED3D4;stroke:#9B5E5D;stroke-miterlimit:10;}
	.st13{fill:#31A836;stroke:#31A836;stroke-width:0.75;stroke-miterlimit:10;}
	.st14{fill:#C71617;stroke:#C71617;stroke-width:0.75;stroke-miterlimit:10;}
	.st15{fill:#C288BB;stroke:#C288BB;stroke-width:0.5;stroke-miterlimit:10;}
	.st16{fill:#7FBF74;stroke:#7FBF74;stroke-width:0.5;stroke-miterlimit:10;}
	.st17{fill:none;stroke:#B2B2B2;stroke-miterlimit:10;}
	.st18{stroke:#000000;stroke-width:0.5;stroke-miterlimit:10;}
	.st19{fill:#878787;stroke:#878787;stroke-width:0.5;stroke-miterlimit:10;}
	.st20{fill:#B69194;stroke:#B69194;stroke-width:0.5;stroke-miterlimit:10;}
	.st21{fill:#7D91AF;stroke:#7D91AF;stroke-width:0.5;stroke-miterlimit:10;}
	.st22{fill:#7F6C9E;stroke:#71519C;stroke-width:0.5;stroke-miterlimit:10;}
	.st23{fill:#A48A7B;stroke:#A48A7B;stroke-width:0.75;stroke-miterlimit:10;}
	.st24{fill:#A98EAA;stroke:#C288BB;stroke-width:0.5;stroke-miterlimit:10;}
	.st25{fill:#96AF91;stroke:#96AF91;stroke-width:0.5;stroke-miterlimit:10;}
	.st26{fill:#6D4837;stroke:#6D4837;stroke-width:0.75;stroke-miterlimit:10;}
	.st27{fill:#937760;}
	.st28{font-family:'ExpoSansPro-Regular';}
	.st29{font-size:7px;}
	.st30{fill:#937760;stroke:#937760;stroke-width:0.75;stroke-miterlimit:10;}
	.st31{fill:#9B5E5D;}
	.st32{font-family:'ExpoSansPro-SemiboldItalic';}
	.st33{font-size:6.6103px;}
	.st34{fill:#878787;}
	.st35{fill:#C05558;}
	.st36{fill:#7FBF74;}
	.st37{fill:#5978BA;}
	.st38{fill:#71519C;}
	.st39{fill:#C288BB;}
	.st40{fill:#010202;}
	.st41{fill:none;stroke:#000000;stroke-width:0.5;stroke-miterlimit:10;}
	.st42{fill:none;stroke:#000000;stroke-width:0.75;stroke-miterlimit:10;}
	.st43{fill:none;stroke:#000000;stroke-width:0.75;stroke-miterlimit:10;stroke-dasharray:1.9627,1.472;}
	.st44{fill:none;stroke:#000000;stroke-width:0.75;stroke-miterlimit:10;stroke-dasharray:1.9168,1.4376;}
	.st45{fill:none;stroke:#000000;stroke-width:0.75;stroke-miterlimit:10;stroke-dasharray:2.0046,1.5034;}
	.st46{fill:none;stroke:#000000;stroke-width:0.75;stroke-miterlimit:10;stroke-dasharray:2.0045,1.5034;}
	.st47{fill:none;stroke:#CCC3E0;stroke-width:0.5;stroke-miterlimit:10;}
	.st48{fill:none;stroke:#BCA6D1;stroke-width:0.5;stroke-miterlimit:10;}
	.st49{fill:none;stroke:#000000;stroke-width:0.75;stroke-miterlimit:10;stroke-dasharray:2,1.5;}
	.st50{fill:#EDEDED;stroke:#575656;stroke-width:0.75;stroke-miterlimit:10;}
	.st51{fill:#90A9D3;}
	.st52{fill:#F4A3A5;}
	.st53{fill:#B3A1CE;}
	.st54{fill:#C6C6C6;}
	.st55{fill:none;stroke:#9D9D9C;stroke-width:0.75;stroke-miterlimit:10;}
	.st56{fill:none;stroke:#8DA0AA;stroke-width:0.75;stroke-miterlimit:10;}
	.st57{fill:#8DA0AA;}
	.st58{fill:none;stroke:#C05558;stroke-width:0.5;stroke-miterlimit:10;}
	.st59{fill:none;stroke:#5978BA;stroke-width:0.5;stroke-miterlimit:10;}
	.st60{fill:none;stroke:#71519C;stroke-width:0.5;stroke-miterlimit:10;}
	.st61{fill:#4EB0B5;stroke:#4EB0B5;stroke-width:0.5;stroke-miterlimit:10;}
	.st62{fill:#E0A101;stroke:#E0A101;stroke-width:0.5;stroke-miterlimit:10;}
	.st63{fill:#DC76A4;stroke:#DD76A5;stroke-width:0.5;stroke-miterlimit:10;}
	.st64{fill:#D97F1D;stroke:#D97F1D;stroke-width:0.5;stroke-miterlimit:10;}
	.st65{fill:#C15659;stroke:#C05558;stroke-width:0.5;stroke-miterlimit:10;}
	.st66{fill:#71519C;stroke:#71529D;stroke-width:0.5;stroke-miterlimit:10;}
	.st67{fill:#978BC2;stroke:#968BC2;stroke-width:0.5;stroke-miterlimit:10;}
</style>
<g>
	<g>
		<path class="st0" d="M127.29,48.33c1.11,0,2.21-0.01,3.32,0.01c0.29,0,0.72-0.17,0.73,0.41c0.01,0.57-0.41,0.45-0.71,0.45
			c-0.83,0.01-1.66,0.03-2.49-0.01c-0.38-0.02-0.5,0.1-0.5,0.57c0.02,1.99,0.01,3.98,0.01,5.96c0,0.34,0.06,0.79-0.38,0.76
			c-0.38-0.02-0.35-0.42-0.34-0.75c0-1.99-0.01-3.98,0.01-5.96c0-0.44-0.08-0.6-0.48-0.58c-0.89,0.04-1.78,0.01-2.67,0.01
			c-0.27,0-0.54-0.02-0.55-0.45c0-0.45,0.29-0.43,0.55-0.43C124.96,48.33,126.13,48.33,127.29,48.33z"/>
	</g>
</g>
<g>
	<g>
		<path class="st1" d="M127.51,63.16c1.11,0,2.21-0.01,3.32,0.01c0.29,0,0.72-0.17,0.73,0.41c0.01,0.57-0.41,0.45-0.71,0.45
			c-0.83,0.01-1.66,0.03-2.49-0.01c-0.38-0.02-0.5,0.1-0.5,0.57c0.02,1.99,0.01,3.98,0.01,5.96c0,0.34,0.06,0.79-0.38,0.76
			c-0.38-0.02-0.35-0.42-0.34-0.75c0-1.99-0.01-3.98,0.01-5.96c0-0.44-0.08-0.6-0.48-0.58c-0.89,0.04-1.78,0.01-2.67,0.01
			c-0.27,0-0.54-0.02-0.55-0.45c0-0.45,0.29-0.43,0.55-0.43C125.18,63.16,126.35,63.16,127.51,63.16z"/>
	</g>
</g>
<g>
	<g>
		<path class="st2" d="M186.34,26.22c1.11,0,2.21-0.01,3.32,0.01c0.29,0,0.72-0.17,0.73,0.41c0.01,0.57-0.41,0.45-0.71,0.45
			c-0.83,0.01-1.66,0.03-2.49-0.01c-0.38-0.02-0.5,0.1-0.5,0.57c0.02,1.99,0.01,3.98,0.01,5.96c0,0.34,0.06,0.79-0.38,0.76
			c-0.38-0.02-0.35-0.42-0.34-0.75c0-1.99-0.01-3.98,0.01-5.96c0-0.44-0.08-0.6-0.48-0.58c-0.89,0.04-1.78,0.01-2.67,0.01
			c-0.27,0-0.54-0.02-0.55-0.45c0-0.45,0.29-0.43,0.55-0.43C184.01,26.22,185.17,26.22,186.34,26.22z"/>
	</g>
</g>
<text transform="matrix(1 0 0 1 32.9443 30.0572)" class="st27 st28 st29">Native</text>
<path class="st30" d="M25.89,23.91c-2.15,0-4.13,0.01-6.12-0.01c-0.45,0-0.33,0.28-0.33,0.51c-0.01,1.93,0,3.86,0,5.78
	c0,0.17,0.01,0.34-0.02,0.51c-0.03,0.21-0.18,0.35-0.39,0.34c-0.21,0-0.35-0.13-0.37-0.35c-0.01-0.13-0.01-0.25-0.01-0.38
	c0-2.16,0.01-4.32-0.01-6.48c-0.01-0.56,0.2-0.74,0.74-0.73c2.12,0.02,4.23,0.01,6.44,0.01c-0.35-0.5-0.82-0.79-1.2-1.15
	c-0.22-0.21-0.4-0.43-0.15-0.7c0.22-0.25,0.46-0.1,0.66,0.08c0.67,0.59,1.33,1.18,2,1.77c0.3,0.26,0.33,0.53,0.02,0.8
	c-0.67,0.58-1.35,1.16-2.02,1.74c-0.2,0.18-0.43,0.34-0.66,0.08c-0.24-0.27-0.08-0.5,0.16-0.7C25.01,24.69,25.38,24.35,25.89,23.91z
	"/>
<line class="st4" x1="12.91" y1="31.04" x2="30.71" y2="31.04"/>
<line class="st4" x1="119.73" y1="56.5" x2="135.94" y2="56.5"/>
<path class="st5" d="M69.88,41.08c0-1.64,0.03-3.28-0.01-4.92c-0.02-0.66,0.35-0.91,1.36-0.9c2.9,0.02,21.33,0.01,24.24,0
	c0.61,0,1.06,0.14,1.49,0.42c2.44,1.61,4.32,3.21,6.8,4.8c0.71,0.46,0.74,0.8,0.01,1.27c-2.48,1.58-4.36,3.19-6.79,4.8
	c-0.47,0.31-0.96,0.42-1.61,0.41c-2.82-0.02-21.16-0.05-23.98,0.01c-1.26,0.03-1.55-0.3-1.52-1.04
	C69.92,44.3,69.88,42.69,69.88,41.08z"/>
<text transform="matrix(1 0 0 1 72.8079 43.3233)" class="st31 st32 st33">mCherry</text>
<g>
	<g>
		<line class="st6" x1="119.02" y1="88.35" x2="119.02" y2="94.13"/>
		<g>
			<polygon class="st7" points="117.16,92.72 119.02,93.51 120.87,92.72 119.02,97.11 			"/>
		</g>
	</g>
</g>
<text transform="matrix(1 0 0 1 33.3892 46.9332)" class="st28 st29">pPGK1</text>
<path class="st8" d="M25.89,40.79c-2.15,0-4.13,0.01-6.12-0.01c-0.45,0-0.33,0.28-0.33,0.51c-0.01,1.93,0,3.86,0,5.78
	c0,0.17,0.01,0.34-0.02,0.51c-0.03,0.21-0.18,0.35-0.39,0.34c-0.21,0-0.35-0.13-0.37-0.35c-0.01-0.13-0.01-0.25-0.01-0.38
	c0-2.16,0.01-4.32-0.01-6.48c-0.01-0.56,0.2-0.74,0.74-0.73c2.12,0.02,4.23,0.01,6.44,0.01c-0.35-0.5-0.82-0.79-1.2-1.15
	c-0.22-0.21-0.4-0.43-0.15-0.7c0.22-0.25,0.46-0.1,0.66,0.08c0.67,0.59,1.33,1.18,2,1.77c0.3,0.26,0.33,0.53,0.02,0.8
	c-0.67,0.58-1.35,1.16-2.02,1.74c-0.2,0.18-0.43,0.34-0.66,0.08c-0.24-0.27-0.08-0.5,0.16-0.7C25.01,41.57,25.38,41.23,25.89,40.79z
	"/>
<line class="st4" x1="12.91" y1="47.92" x2="30.71" y2="47.92"/>
<text transform="matrix(1 0 0 1 33.3916 64.2008)" class="st34 st28 st29">pSRO9</text>
<path class="st3" d="M25.89,58.05c-2.15,0-4.13,0.01-6.12-0.01c-0.45,0-0.33,0.28-0.33,0.51c-0.01,1.93,0,3.86,0,5.78
	c0,0.17,0.01,0.34-0.02,0.51c-0.03,0.21-0.18,0.35-0.39,0.34c-0.21,0-0.35-0.13-0.37-0.35c-0.01-0.13-0.01-0.25-0.01-0.38
	c0-2.16,0.01-4.32-0.01-6.48c-0.01-0.56,0.2-0.74,0.74-0.73c2.12,0.02,4.23,0.01,6.44,0.01c-0.35-0.5-0.82-0.79-1.2-1.15
	c-0.22-0.21-0.4-0.43-0.15-0.7c0.22-0.25,0.46-0.1,0.66,0.08c0.67,0.59,1.33,1.18,2,1.77c0.3,0.26,0.33,0.53,0.02,0.8
	c-0.67,0.58-1.35,1.16-2.02,1.74c-0.2,0.18-0.43,0.34-0.66,0.08c-0.24-0.27-0.08-0.5,0.16-0.7C25.01,58.84,25.38,58.5,25.89,58.05z"
	/>
<line class="st4" x1="12.91" y1="65.19" x2="30.71" y2="65.19"/>
<line class="st4" x1="119.73" y1="71.33" x2="135.94" y2="71.33"/>
<line class="st4" x1="178.56" y1="34.39" x2="194.76" y2="34.39"/>
<text transform="matrix(1 0 0 1 137.5038 56.4953)" class="st35 st28 st29">mod_NAA</text>
<text transform="matrix(1 0 0 1 196.5856 65.6621)" class="st36 st28 st29">mod_NGG </text>
<text transform="matrix(1 0 0 1 137.5033 71.3313)" class="st37 st28 st29">mod_NTN </text>
<text transform="matrix(1 0 0 1 196.5856 34.3862)" class="st38 st28 st29">mod_HNH </text>
<text transform="matrix(1 0 0 1 196.5851 49.6425)" class="st39 st28 st29">mod_HTH </text>
<g>
	<g>
		<path class="st15" d="M186.12,41.47c1.11,0,2.21-0.01,3.32,0.01c0.29,0,0.72-0.17,0.73,0.41c0.01,0.57-0.41,0.45-0.71,0.45
			c-0.83,0.01-1.66,0.03-2.49-0.01c-0.38-0.02-0.5,0.1-0.5,0.57c0.02,1.99,0.01,3.98,0.01,5.96c0,0.34,0.06,0.79-0.38,0.76
			c-0.38-0.02-0.35-0.42-0.34-0.75c0-1.99-0.01-3.98,0.01-5.96c0-0.44-0.08-0.6-0.48-0.58c-0.89,0.04-1.78,0.01-2.67,0.01
			c-0.27,0-0.54-0.02-0.55-0.45c0-0.45,0.29-0.43,0.55-0.43C183.79,41.47,184.96,41.47,186.12,41.47z"/>
	</g>
</g>
<g>
	<g>
		<path class="st16" d="M186.02,57.49c1.11,0,2.21-0.01,3.32,0.01c0.29,0,0.72-0.17,0.73,0.41c0.01,0.57-0.41,0.45-0.71,0.45
			c-0.83,0.01-1.66,0.03-2.49-0.01c-0.38-0.02-0.5,0.1-0.5,0.57c0.02,1.99,0.01,3.98,0.01,5.96c0,0.34,0.06,0.79-0.38,0.76
			c-0.38-0.02-0.35-0.42-0.34-0.75c0-1.99-0.01-3.98,0.01-5.96c0-0.44-0.08-0.6-0.48-0.58c-0.89,0.04-1.78,0.01-2.67,0.01
			c-0.27,0-0.54-0.02-0.55-0.45c0-0.45,0.29-0.43,0.55-0.43C183.69,57.49,184.85,57.49,186.02,57.49z"/>
	</g>
</g>
<line class="st4" x1="178.56" y1="49.64" x2="194.76" y2="49.64"/>
<line class="st4" x1="178.24" y1="65.66" x2="194.44" y2="65.66"/>
<path class="st6" d="M176.49,76.26v1.47c0,5.8-3.81,10.5-8.51,10.5H45.11c-4.7,0-8.51-4.7-8.51-10.5v-9.43"/>
<line class="st6" x1="86.02" y1="49.64" x2="86.02" y2="88.58"/>
<path class="st3" d="M110.57,109.78c-2.02,0-3.88,0.01-5.75-0.01c-0.42,0-0.31,0.27-0.31,0.48c-0.01,1.81,0,3.62,0,5.43
	c0,0.16,0.01,0.32-0.01,0.48c-0.03,0.2-0.17,0.32-0.37,0.32c-0.2,0-0.33-0.12-0.35-0.33c-0.01-0.12-0.01-0.24-0.01-0.36
	c0-2.03,0.01-4.06-0.01-6.09c-0.01-0.53,0.19-0.69,0.7-0.69c1.99,0.02,3.98,0.01,6.04,0.01c-0.33-0.47-0.77-0.74-1.13-1.08
	c-0.21-0.2-0.37-0.4-0.14-0.66c0.21-0.23,0.43-0.09,0.62,0.07c0.63,0.55,1.25,1.11,1.88,1.66c0.28,0.25,0.31,0.5,0.02,0.75
	c-0.63,0.55-1.27,1.09-1.9,1.63c-0.19,0.16-0.41,0.32-0.62,0.08c-0.22-0.26-0.07-0.47,0.15-0.65
	C109.74,110.51,110.09,110.2,110.57,109.78z"/>
<g>
	<path class="st0" d="M136.12,108.41c1.03,0,2.05-0.01,3.08,0.01c0.27,0,0.67-0.15,0.68,0.38c0.01,0.53-0.38,0.42-0.66,0.42
		c-0.77,0.01-1.54,0.02-2.31-0.01c-0.35-0.01-0.46,0.09-0.46,0.53c0.02,1.85,0.01,3.69,0.01,5.54c0,0.32,0.06,0.73-0.36,0.71
		c-0.35-0.02-0.32-0.39-0.32-0.7c0-1.85-0.01-3.69,0.01-5.54c0-0.41-0.07-0.56-0.44-0.54c-0.82,0.04-1.65,0.01-2.48,0.01
		c-0.25,0-0.51-0.02-0.51-0.42c0-0.41,0.27-0.4,0.51-0.4C133.96,108.4,135.04,108.41,136.12,108.41z"/>
</g>
<path class="st17" d="M136.22,131.68h-30.63c-3.49,0-6.34-2.86-6.34-6.34v-2.5c0-3.49,2.86-6.34,6.34-6.34h30.63
	c3.49,0,6.34,2.86,6.34,6.34v2.5C142.56,128.83,139.71,131.68,136.22,131.68z"/>
<path class="st5" d="M112.34,116.52c0-0.99,0.02-1.97-0.01-2.96c-0.01-0.39,0.21-0.55,0.82-0.54c1.74,0.01,12.82,0.01,14.56,0
	c0.37,0,0.64,0.08,0.89,0.25c1.46,0.97,2.6,1.93,4.09,2.88c0.43,0.27,0.44,0.48,0.01,0.76c-1.49,0.95-2.62,1.91-4.08,2.88
	c-0.28,0.19-0.57,0.25-0.96,0.25c-1.69-0.01-12.72-0.03-14.41,0.01c-0.76,0.02-0.93-0.18-0.91-0.63
	C112.36,118.45,112.34,117.48,112.34,116.52z"/>
<path class="st8" d="M58.96,114.45c-2.02,0-3.88,0.01-5.75-0.01c-0.42,0-0.31,0.27-0.31,0.48c-0.01,1.81,0,3.62,0,5.43
	c0,0.16,0.01,0.32-0.01,0.48c-0.03,0.2-0.17,0.32-0.37,0.32c-0.2,0-0.33-0.12-0.35-0.33c-0.01-0.12-0.01-0.24-0.01-0.36
	c0-2.03,0.01-4.06-0.01-6.09c-0.01-0.53,0.19-0.69,0.7-0.69c1.99,0.02,3.98,0.01,6.04,0.01c-0.33-0.47-0.77-0.74-1.13-1.08
	c-0.21-0.2-0.37-0.4-0.14-0.66c0.21-0.23,0.43-0.09,0.62,0.07c0.63,0.55,1.25,1.11,1.88,1.66c0.28,0.25,0.31,0.5,0.02,0.75
	c-0.63,0.55-1.27,1.09-1.9,1.63c-0.19,0.16-0.41,0.32-0.62,0.08c-0.22-0.26-0.07-0.47,0.15-0.65
	C58.14,115.18,58.49,114.87,58.96,114.45z"/>
<g>
	<path class="st0" d="M84.52,113.07c1.03,0,2.05-0.01,3.08,0.01c0.27,0,0.67-0.15,0.68,0.38c0.01,0.53-0.38,0.42-0.66,0.42
		c-0.77,0.01-1.54,0.02-2.31-0.01c-0.35-0.01-0.46,0.09-0.46,0.53c0.02,1.85,0.01,3.69,0.01,5.54c0,0.32,0.06,0.73-0.36,0.71
		c-0.35-0.02-0.32-0.39-0.32-0.7c0-1.85-0.01-3.69,0.01-5.54c0-0.41-0.07-0.56-0.44-0.54c-0.82,0.04-1.65,0.01-2.48,0.01
		c-0.25,0-0.51-0.02-0.51-0.42c0-0.41,0.27-0.4,0.51-0.4C82.36,113.07,83.44,113.07,84.52,113.07z"/>
</g>
<path class="st17" d="M84.62,136.35H53.99c-3.49,0-6.34-2.86-6.34-6.34v-2.5c0-3.49,2.86-6.34,6.34-6.34h30.63
	c3.49,0,6.34,2.86,6.34,6.34v2.5C90.96,133.5,88.11,136.35,84.62,136.35z"/>
<path class="st5" d="M60.74,121.19c0-0.99,0.02-1.97-0.01-2.96c-0.01-0.39,0.21-0.55,0.82-0.54c1.74,0.01,12.82,0.01,14.56,0
	c0.37,0,0.64,0.08,0.89,0.25c1.46,0.97,2.6,1.93,4.09,2.88c0.43,0.27,0.44,0.48,0.01,0.76c-1.49,0.95-2.62,1.91-4.08,2.88
	c-0.28,0.19-0.57,0.25-0.96,0.25c-1.69-0.01-12.72-0.03-14.41,0.01c-0.76,0.02-0.93-0.18-0.91-0.63
	C60.76,123.12,60.74,122.15,60.74,121.19z"/>
<path class="st30" d="M160.89,114.45c-2.02,0-3.88,0.01-5.75-0.01c-0.42,0-0.31,0.27-0.31,0.48c-0.01,1.81,0,3.62,0,5.43
	c0,0.16,0.01,0.32-0.01,0.48c-0.03,0.2-0.17,0.32-0.37,0.32c-0.2,0-0.33-0.12-0.35-0.33c-0.01-0.12-0.01-0.24-0.01-0.36
	c0-2.03,0.01-4.06-0.01-6.09c-0.01-0.53,0.19-0.69,0.7-0.69c1.99,0.02,3.98,0.01,6.04,0.01c-0.33-0.47-0.77-0.74-1.13-1.08
	c-0.21-0.2-0.37-0.4-0.14-0.66c0.21-0.23,0.43-0.09,0.62,0.07c0.63,0.55,1.25,1.11,1.88,1.66c0.28,0.25,0.31,0.5,0.02,0.75
	c-0.63,0.55-1.27,1.09-1.9,1.63c-0.19,0.16-0.41,0.32-0.62,0.08c-0.22-0.26-0.07-0.47,0.15-0.65
	C160.06,115.18,160.41,114.87,160.89,114.45z"/>
<g>
	<path class="st0" d="M186.44,113.07c1.03,0,2.05-0.01,3.08,0.01c0.27,0,0.67-0.15,0.68,0.38c0.01,0.53-0.38,0.42-0.66,0.42
		c-0.77,0.01-1.54,0.02-2.31-0.01c-0.35-0.01-0.46,0.09-0.46,0.53c0.02,1.85,0.01,3.69,0.01,5.54c0,0.32,0.06,0.73-0.36,0.71
		c-0.35-0.02-0.32-0.39-0.32-0.7c0-1.85-0.01-3.69,0.01-5.54c0-0.41-0.07-0.56-0.44-0.54c-0.82,0.04-1.65,0.01-2.48,0.01
		c-0.25,0-0.51-0.02-0.51-0.42c0-0.41,0.27-0.4,0.51-0.4C184.28,113.07,185.36,113.07,186.44,113.07z"/>
</g>
<path class="st17" d="M186.54,136.35h-30.63c-3.49,0-6.34-2.86-6.34-6.34v-2.5c0-3.49,2.86-6.34,6.34-6.34h30.63
	c3.49,0,6.34,2.86,6.34,6.34v2.5C192.88,133.5,190.03,136.35,186.54,136.35z"/>
<path class="st5" d="M162.66,121.19c0-0.99,0.02-1.97-0.01-2.96c-0.01-0.39,0.21-0.55,0.82-0.54c1.74,0.01,12.82,0.01,14.56,0
	c0.37,0,0.64,0.08,0.89,0.25c1.46,0.97,2.6,1.93,4.09,2.88c0.43,0.27,0.44,0.48,0.01,0.76c-1.49,0.95-2.62,1.91-4.08,2.88
	c-0.28,0.19-0.57,0.25-0.96,0.25c-1.69-0.01-12.72-0.03-14.41,0.01c-0.76,0.02-0.93-0.18-0.91-0.63
	C162.68,123.12,162.66,122.15,162.66,121.19z"/>
<path class="st30" d="M77.01,142.82c-2.02,0-3.88,0.01-5.75-0.01c-0.42,0-0.31,0.27-0.31,0.48c-0.01,1.81,0,3.62,0,5.43
	c0,0.16,0.01,0.32-0.01,0.48c-0.03,0.2-0.17,0.32-0.37,0.32c-0.2,0-0.33-0.12-0.35-0.33c-0.01-0.12-0.01-0.24-0.01-0.36
	c0-2.03,0.01-4.06-0.01-6.09c-0.01-0.53,0.19-0.69,0.7-0.69c1.99,0.02,3.98,0.01,6.04,0.01c-0.33-0.47-0.77-0.74-1.13-1.08
	c-0.21-0.2-0.37-0.4-0.14-0.66c0.21-0.23,0.43-0.09,0.62,0.07c0.63,0.55,1.25,1.11,1.88,1.66c0.28,0.25,0.31,0.5,0.02,0.75
	c-0.63,0.55-1.27,1.09-1.9,1.63c-0.19,0.16-0.41,0.32-0.62,0.08c-0.22-0.26-0.07-0.47,0.15-0.65
	C76.18,143.55,76.53,143.24,77.01,142.82z"/>
<g>
	<path class="st1" d="M102.56,141.45c1.03,0,2.05-0.01,3.08,0.01c0.27,0,0.67-0.15,0.68,0.38c0.01,0.53-0.38,0.42-0.66,0.42
		c-0.77,0.01-1.54,0.02-2.31-0.01c-0.35-0.01-0.46,0.09-0.46,0.53c0.02,1.85,0.01,3.69,0.01,5.54c0,0.32,0.06,0.73-0.36,0.71
		c-0.35-0.02-0.32-0.39-0.32-0.7c0-1.85-0.01-3.69,0.01-5.54c0-0.41-0.07-0.56-0.44-0.54c-0.82,0.04-1.65,0.01-2.48,0.01
		c-0.25,0-0.51-0.02-0.51-0.42c0-0.41,0.27-0.4,0.51-0.4C100.4,141.44,101.48,141.45,102.56,141.45z"/>
</g>
<path class="st17" d="M102.66,164.72H72.03c-3.49,0-6.34-2.86-6.34-6.34v-2.5c0-3.49,2.86-6.34,6.34-6.34h30.63
	c3.49,0,6.34,2.86,6.34,6.34v2.5C109,161.87,106.15,164.72,102.66,164.72z"/>
<path class="st5" d="M78.78,149.56c0-0.99,0.02-1.97-0.01-2.96c-0.01-0.39,0.21-0.55,0.82-0.54c1.74,0.01,12.82,0.01,14.56,0
	c0.37,0,0.64,0.08,0.89,0.25c1.46,0.97,2.6,1.93,4.09,2.88c0.43,0.27,0.44,0.48,0.01,0.76c-1.49,0.95-2.62,1.91-4.08,2.88
	c-0.28,0.19-0.57,0.25-0.96,0.25c-1.69-0.01-12.72-0.03-14.41,0.01c-0.76,0.02-0.93-0.18-0.91-0.63
	C78.8,151.49,78.78,150.53,78.78,149.56z"/>
<path class="st8" d="M132.22,143.45c-2.02,0-3.88,0.01-5.75-0.01c-0.42,0-0.31,0.27-0.31,0.48c-0.01,1.81,0,3.62,0,5.43
	c0,0.16,0.01,0.32-0.01,0.48c-0.03,0.2-0.17,0.32-0.37,0.32c-0.2,0-0.33-0.12-0.35-0.33c-0.01-0.12-0.01-0.24-0.01-0.36
	c0-2.03,0.01-4.06-0.01-6.09c-0.01-0.53,0.19-0.69,0.7-0.69c1.99,0.02,3.98,0.01,6.04,0.01c-0.33-0.47-0.77-0.74-1.13-1.08
	c-0.21-0.2-0.37-0.4-0.14-0.66c0.21-0.23,0.43-0.09,0.62,0.07c0.63,0.55,1.25,1.11,1.88,1.66c0.28,0.25,0.31,0.5,0.02,0.75
	c-0.63,0.55-1.27,1.09-1.9,1.63c-0.19,0.16-0.41,0.32-0.62,0.08c-0.22-0.26-0.07-0.47,0.15-0.65
	C131.4,144.19,131.75,143.87,132.22,143.45z"/>
<g>
	<path class="st15" d="M157.78,142.08c1.03,0,2.05-0.01,3.08,0.01c0.27,0,0.67-0.15,0.68,0.38c0.01,0.53-0.38,0.42-0.66,0.42
		c-0.77,0.01-1.54,0.02-2.31-0.01c-0.35-0.01-0.46,0.09-0.46,0.53c0.02,1.85,0.01,3.69,0.01,5.54c0,0.32,0.06,0.73-0.36,0.71
		c-0.35-0.02-0.32-0.39-0.32-0.7c0-1.85-0.01-3.69,0.01-5.54c0-0.41-0.07-0.56-0.44-0.54c-0.82,0.04-1.65,0.01-2.48,0.01
		c-0.25,0-0.51-0.02-0.51-0.42c0-0.41,0.27-0.4,0.51-0.4C155.62,142.08,156.7,142.08,157.78,142.08z"/>
</g>
<path class="st17" d="M157.88,165.35h-30.63c-3.49,0-6.34-2.86-6.34-6.34v-2.5c0-3.49,2.86-6.34,6.34-6.34h30.63
	c3.49,0,6.34,2.86,6.34,6.34v2.5C164.22,162.5,161.37,165.35,157.88,165.35z"/>
<path class="st5" d="M134,150.19c0-0.99,0.02-1.97-0.01-2.96c-0.01-0.39,0.21-0.55,0.82-0.54c1.74,0.01,12.82,0.01,14.56,0
	c0.37,0,0.64,0.08,0.89,0.25c1.46,0.97,2.6,1.93,4.09,2.88c0.43,0.27,0.44,0.48,0.01,0.76c-1.49,0.95-2.62,1.91-4.08,2.88
	c-0.28,0.19-0.57,0.25-0.96,0.25c-1.69-0.01-12.72-0.03-14.41,0.01c-0.76,0.02-0.93-0.18-0.91-0.63
	C134.02,152.13,134,151.16,134,150.19z"/>
<path class="st3" d="M191.66,143.45c-2.02,0-3.88,0.01-5.75-0.01c-0.42,0-0.31,0.27-0.31,0.48c-0.01,1.81,0,3.62,0,5.43
	c0,0.16,0.01,0.32-0.01,0.48c-0.03,0.2-0.17,0.32-0.37,0.32c-0.2,0-0.33-0.12-0.35-0.33c-0.01-0.12-0.01-0.24-0.01-0.36
	c0-2.03,0.01-4.06-0.01-6.09c-0.01-0.53,0.19-0.69,0.7-0.69c1.99,0.02,3.98,0.01,6.04,0.01c-0.33-0.47-0.77-0.74-1.13-1.08
	c-0.21-0.2-0.37-0.4-0.14-0.66c0.21-0.23,0.43-0.09,0.62,0.07c0.63,0.55,1.25,1.11,1.88,1.66c0.28,0.25,0.31,0.5,0.02,0.75
	c-0.63,0.55-1.27,1.09-1.9,1.63c-0.19,0.16-0.41,0.32-0.62,0.08c-0.22-0.26-0.07-0.47,0.15-0.65
	C190.83,144.19,191.18,143.87,191.66,143.45z"/>
<g>
	<path class="st2" d="M217.21,142.08c1.03,0,2.05-0.01,3.08,0.01c0.27,0,0.67-0.15,0.68,0.38c0.01,0.53-0.38,0.42-0.66,0.42
		c-0.77,0.01-1.54,0.02-2.31-0.01c-0.35-0.01-0.46,0.09-0.46,0.53c0.02,1.85,0.01,3.69,0.01,5.54c0,0.32,0.06,0.73-0.36,0.71
		c-0.35-0.02-0.32-0.39-0.32-0.7c0-1.85-0.01-3.69,0.01-5.54c0-0.41-0.07-0.56-0.44-0.54c-0.82,0.04-1.65,0.01-2.48,0.01
		c-0.25,0-0.51-0.02-0.51-0.42c0-0.41,0.27-0.4,0.51-0.4C215.05,142.08,216.13,142.08,217.21,142.08z"/>
</g>
<path class="st17" d="M217.31,165.35h-30.63c-3.49,0-6.34-2.86-6.34-6.34v-2.5c0-3.49,2.86-6.34,6.34-6.34h30.63
	c3.49,0,6.34,2.86,6.34,6.34v2.5C223.65,162.5,220.8,165.35,217.31,165.35z"/>
<path class="st5" d="M193.43,150.19c0-0.99,0.02-1.97-0.01-2.96c-0.01-0.39,0.21-0.55,0.82-0.54c1.74,0.01,12.82,0.01,14.56,0
	c0.37,0,0.64,0.08,0.89,0.25c1.46,0.97,2.6,1.93,4.09,2.88c0.43,0.27,0.44,0.48,0.01,0.76c-1.49,0.95-2.62,1.91-4.08,2.88
	c-0.28,0.19-0.57,0.25-0.96,0.25c-1.69-0.01-12.72-0.03-14.41,0.01c-0.76,0.02-0.93-0.18-0.91-0.63
	C193.46,152.13,193.43,151.16,193.43,150.19z"/>
<path class="st3" d="M27.71,143.45c-2.02,0-3.88,0.01-5.75-0.01c-0.42,0-0.31,0.27-0.31,0.48c-0.01,1.81,0,3.62,0,5.43
	c0,0.16,0.01,0.32-0.01,0.48c-0.03,0.2-0.17,0.32-0.37,0.32c-0.2,0-0.33-0.12-0.35-0.33c-0.01-0.12-0.01-0.24-0.01-0.36
	c0-2.03,0.01-4.06-0.01-6.09c-0.01-0.53,0.19-0.69,0.7-0.69c1.99,0.02,3.98,0.01,6.04,0.01c-0.33-0.47-0.77-0.74-1.13-1.08
	c-0.21-0.2-0.37-0.4-0.14-0.66c0.21-0.23,0.43-0.09,0.62,0.07c0.63,0.55,1.25,1.11,1.88,1.66c0.28,0.25,0.31,0.5,0.02,0.75
	c-0.63,0.55-1.27,1.09-1.9,1.63c-0.19,0.16-0.41,0.32-0.62,0.08c-0.22-0.26-0.07-0.47,0.15-0.65
	C26.88,144.19,27.24,143.87,27.71,143.45z"/>
<g>
	<path class="st2" d="M53.27,142.08c1.03,0,2.05-0.01,3.08,0.01c0.27,0,0.67-0.15,0.68,0.38c0.01,0.53-0.38,0.42-0.66,0.42
		c-0.77,0.01-1.54,0.02-2.31-0.01c-0.35-0.01-0.46,0.09-0.46,0.53c0.02,1.85,0.01,3.69,0.01,5.54c0,0.32,0.06,0.73-0.36,0.71
		c-0.35-0.02-0.32-0.39-0.32-0.7c0-1.85-0.01-3.69,0.01-5.54c0-0.41-0.07-0.56-0.44-0.54c-0.82,0.04-1.65,0.01-2.48,0.01
		c-0.25,0-0.51-0.02-0.51-0.42c0-0.41,0.27-0.4,0.51-0.4C51.1,142.08,52.19,142.08,53.27,142.08z"/>
</g>
<path class="st17" d="M53.36,165.35H22.74c-3.49,0-6.34-2.86-6.34-6.34v-2.5c0-3.49,2.86-6.34,6.34-6.34h30.63
	c3.49,0,6.34,2.86,6.34,6.34v2.5C59.71,162.5,56.85,165.35,53.36,165.35z"/>
<path class="st5" d="M29.49,150.19c0-0.99,0.02-1.97-0.01-2.96c-0.01-0.39,0.21-0.55,0.82-0.54c1.74,0.01,12.82,0.01,14.56,0
	c0.37,0,0.64,0.08,0.89,0.25c1.46,0.97,2.6,1.93,4.09,2.88c0.43,0.27,0.44,0.48,0.01,0.76c-1.49,0.95-2.62,1.91-4.08,2.88
	c-0.28,0.19-0.57,0.25-0.96,0.25c-1.69-0.01-12.72-0.03-14.41,0.01c-0.76,0.02-0.93-0.18-0.91-0.63
	C29.51,152.13,29.49,151.16,29.49,150.19z"/>
<g>
	<g>
		<path class="st18" d="M127.39,34.44c1.11,0,2.21-0.01,3.32,0.01c0.29,0,0.72-0.17,0.73,0.41c0.01,0.57-0.41,0.45-0.71,0.45
			c-0.83,0.01-1.66,0.03-2.49-0.01c-0.38-0.02-0.5,0.1-0.5,0.57c0.02,1.99,0.01,3.98,0.01,5.96c0,0.34,0.06,0.79-0.38,0.76
			c-0.38-0.02-0.35-0.42-0.34-0.75c0-1.99-0.01-3.98,0.01-5.96c0-0.44-0.08-0.6-0.48-0.58c-0.89,0.04-1.78,0.01-2.67,0.01
			c-0.27,0-0.54-0.02-0.55-0.45c0-0.45,0.29-0.43,0.55-0.43C125.06,34.44,126.23,34.44,127.39,34.44z"/>
	</g>
</g>
<line class="st4" x1="119.83" y1="42.61" x2="136.04" y2="42.61"/>
<text transform="matrix(1 0 0 1 137.5037 42.6059)" class="st40 st28 st29">mod_NNN</text>
<g>
	<g>
		<path class="st19" d="M127.39,20.55c1.11,0,2.21-0.01,3.32,0.01c0.29,0,0.72-0.17,0.73,0.41c0.01,0.57-0.41,0.45-0.71,0.45
			c-0.83,0.01-1.66,0.03-2.49-0.01c-0.38-0.02-0.5,0.1-0.5,0.57c0.02,1.99,0.01,3.98,0.01,5.96c0,0.34,0.06,0.79-0.38,0.76
			c-0.38-0.02-0.35-0.42-0.34-0.75c0-1.99-0.01-3.98,0.01-5.96c0-0.44-0.08-0.6-0.48-0.58c-0.89,0.04-1.78,0.01-2.67,0.01
			c-0.27,0-0.54-0.02-0.55-0.45c0-0.45,0.29-0.43,0.55-0.43C125.06,20.55,126.23,20.55,127.39,20.55z"/>
	</g>
</g>
<line class="st4" x1="119.83" y1="28.72" x2="136.04" y2="28.72"/>
<text transform="matrix(1 0 0 1 137.5031 28.7164)" class="st34 st28 st29">WT</text>
<rect x="8.69" y="15.86" class="st6" width="49.28" height="52.99"/>
<rect x="116.64" y="16.37" class="st6" width="117.06" height="59.55"/>
<text transform="matrix(1 0 0 1 16.8188 12.2442)" class="st28 st29">Promoters</text>
<text transform="matrix(1 0 0 1 155.3399 12.4542)" class="st28 st29">Terminators</text>
<text transform="matrix(1 0 0 1 78.2936 104.0355)" class="st28 st29">Chimeric reporter plasmids</text>
</svg>
