<?xml version="1.0" encoding="utf-8"?>
<!-- Generator: Adobe Illustrator 25.1.0, SVG Export Plug-In . SVG Version: 6.00 Build 0)  -->
<svg version="1.1" id="Layer_1" xmlns="http://www.w3.org/2000/svg" xmlns:xlink="http://www.w3.org/1999/xlink" x="0px" y="0px"
	 viewBox="0 0 566.93 324.41" style="enable-background:new 0 0 566.93 324.41;" xml:space="preserve">
<style type="text/css">
	.st0{fill:none;stroke:#B2B2B2;stroke-width:0.5;stroke-miterlimit:10;}
	.st1{fill:#EDEDED;stroke:#575656;stroke-width:0.75;stroke-miterlimit:10;}
	.st2{fill:#F4F4F4;}
	.st3{fill:none;stroke:#000000;stroke-width:0.5;stroke-miterlimit:10;}
	.st4{fill:#F4F4F4;stroke:#575656;stroke-width:0.75;stroke-miterlimit:10;}
	.st5{fill:#CFCECE;}
	.st6{fill:none;stroke:#8DA0AA;stroke-width:0.75;stroke-miterlimit:10;}
	.st7{fill:#8DA0AA;}
	.st8{fill:none;stroke:#000000;stroke-width:0.75;stroke-miterlimit:10;}
	.st9{fill:none;stroke:#000000;stroke-width:0.75;stroke-miterlimit:10;stroke-dasharray:1.8428,1.3821;}
	.st10{fill:none;stroke:#000000;stroke-width:0.75;stroke-miterlimit:10;stroke-dasharray:1.7795,1.3346;}
	.st11{fill:none;stroke:#000000;stroke-width:0.75;stroke-miterlimit:10;stroke-dasharray:2.0127,1.5095;}
	.st12{fill:none;stroke:#9D9D9C;stroke-width:0.75;stroke-miterlimit:10;}
	.st13{fill:#9D9D9C;}
	.st14{fill:none;stroke:#C05558;stroke-width:0.5;stroke-miterlimit:10;}
	.st15{fill:none;stroke:#5978BA;stroke-width:0.5;stroke-miterlimit:10;}
	.st16{fill:none;stroke:#71519C;stroke-width:0.5;stroke-miterlimit:10;}
	.st17{fill:none;stroke:#CCA0CA;stroke-width:0.5;stroke-miterlimit:10;}
	.st18{fill:none;stroke:#7FBF74;stroke-width:0.5;stroke-miterlimit:10;}
	.st19{fill:#C4E0C0;}
	.st20{fill:#90A9D3;}
	.st21{fill:#B3A1CE;}
	.st22{fill:#F4A3A5;}
	.st23{fill:none;stroke:#000000;stroke-width:0.75;stroke-miterlimit:10;stroke-dasharray:2.0565,1.5424;}
	.st24{fill:none;stroke:#000000;stroke-width:0.75;stroke-miterlimit:10;stroke-dasharray:1.9702,1.4777;}
	.st25{fill:none;stroke:#000000;stroke-width:0.75;stroke-miterlimit:10;stroke-dasharray:1.9859,1.4894;}
	.st26{fill:none;stroke:#000000;stroke-width:0.75;stroke-miterlimit:10;stroke-dasharray:1.9956,1.4967;}
	.st27{fill:none;stroke:#000000;stroke-width:0.75;stroke-miterlimit:10;stroke-dasharray:1.8742,1.4056;}
	.st28{fill:none;stroke:#000000;stroke-width:0.75;stroke-miterlimit:10;stroke-dasharray:1.8076,1.3557;}
	.st29{fill:none;stroke:#AF8084;stroke-width:0.5;stroke-miterlimit:10;}
	.st30{fill:none;stroke:#8292AF;stroke-width:0.5;stroke-miterlimit:10;}
	.st31{fill:none;stroke:#8A809B;stroke-width:0.5;stroke-miterlimit:10;}
	.st32{fill:none;stroke:#C6AFC6;stroke-width:0.5;stroke-miterlimit:10;}
	.st33{fill:none;stroke:#000000;stroke-width:0.75;stroke-miterlimit:10;stroke-dasharray:2.0155,1.5116;}
	.st34{fill:none;stroke:#000000;stroke-width:0.75;stroke-miterlimit:10;stroke-dasharray:2.025,1.5187;}
	.st35{fill:none;stroke:#000000;stroke-width:0.75;stroke-miterlimit:10;stroke-dasharray:1.9627,1.472;}
	.st36{fill:none;stroke:#000000;stroke-width:0.75;stroke-miterlimit:10;stroke-dasharray:1.9168,1.4376;}
	.st37{fill:none;stroke:#000000;stroke-width:0.75;stroke-miterlimit:10;stroke-dasharray:2.0046,1.5034;}
	.st38{fill:none;stroke:#000000;stroke-width:0.75;stroke-miterlimit:10;stroke-dasharray:2.0045,1.5034;}
	.st39{fill:none;stroke:#CCC3E0;stroke-width:0.5;stroke-miterlimit:10;}
	.st40{fill:none;stroke:#BCA6D1;stroke-width:0.5;stroke-miterlimit:10;}
	.st41{fill:none;stroke:#000000;stroke-width:0.75;stroke-miterlimit:10;stroke-dasharray:2,1.5;}
	.st42{fill:#C6C6C6;}
	.st43{fill:none;stroke:#9DB798;stroke-width:0.5;stroke-miterlimit:10;}
	.st44{fill:#E52421;}
	.st45{font-family:'GillSans';}
	.st46{font-size:6.5823px;}
	.st47{font-size:8.3595px;}
	.st48{font-family:'MyriadPro-Regular';}
	.st49{font-size:4.5827px;}
	.st50{fill:#5978BA;}
	.st51{font-size:5.8631px;}
	.st52{fill:#CCC3E0;}
	.st53{fill:#71519C;}
	.st54{fill:#BCA6D1;}
	.st55{fill:#C05558;}
	.st56{fill:#978BC2;}
	.st57{fill:#DC76A4;}
</style>
<rect x="11" y="22.95" class="st3" width="267.04" height="65.49"/>
<g>
	<text transform="matrix(1 0 0 1 34.1006 76.1657)" class="st44 st45 st46">ATATTC</text>
</g>
<g>
	<g>
		<line class="st8" x1="18.44" y1="49.47" x2="19.44" y2="49.47"/>
		<line class="st35" x1="20.91" y1="49.47" x2="47.65" y2="49.47"/>
		<line class="st8" x1="48.39" y1="49.47" x2="49.39" y2="49.47"/>
		<g>
			<polygon points="19.49,50.86 18.9,49.47 19.49,48.08 16.2,49.47 			"/>
		</g>
		<g>
			<polygon points="48.34,50.86 48.93,49.47 48.34,48.08 51.63,49.47 			"/>
		</g>
	</g>
</g>
<g>
	<text transform="matrix(1 0 0 1 76.4634 18.6252)" class="st45 st47">tPIR1_WT 3’UTR terminator (359 bp)</text>
</g>
<text transform="matrix(1 0 0 1 29 47.1679)" class="st48 st49">50 bp</text>
<g>
	<text transform="matrix(1 0 0 1 45.7214 84.383)" class="st50 st45 st51">UGUAHMNUA</text>
</g>
<g>
	<g>
		<line class="st8" x1="65.19" y1="49.47" x2="66.19" y2="49.47"/>
		<line class="st36" x1="67.62" y1="49.47" x2="103.8" y2="49.47"/>
		<line class="st8" x1="104.52" y1="49.47" x2="105.52" y2="49.47"/>
		<g>
			<polygon points="66.24,50.86 65.65,49.47 66.24,48.08 62.95,49.47 			"/>
		</g>
		<g>
			<polygon points="104.47,50.86 105.06,49.47 104.47,48.08 107.76,49.47 			"/>
		</g>
	</g>
</g>
<text transform="matrix(1 0 0 1 80.1673 47.1682)" class="st48 st49">62 bp</text>
<g>
	<g>
		<line class="st8" x1="116.38" y1="49.47" x2="117.38" y2="49.47"/>
		<line class="st37" x1="118.88" y1="49.47" x2="170.75" y2="49.47"/>
		<line class="st8" x1="171.51" y1="49.47" x2="172.51" y2="49.47"/>
		<g>
			<polygon points="117.43,50.86 116.84,49.47 117.43,48.08 114.14,49.47 			"/>
		</g>
		<g>
			<polygon points="171.45,50.86 172.04,49.47 171.45,48.08 174.74,49.47 			"/>
		</g>
	</g>
</g>
<text transform="matrix(1 0 0 1 138.8284 47.1675)" class="st48 st49">84 bp</text>
<text transform="matrix(1 0 0 1 179.3372 44.2453)" class="st48 st49">11 bp</text>
<g>
	<g>
		<line class="st8" x1="197.61" y1="49.47" x2="198.61" y2="49.47"/>
		<line class="st38" x1="200.12" y1="49.47" x2="269.52" y2="49.47"/>
		<line class="st8" x1="270.27" y1="49.47" x2="271.27" y2="49.47"/>
		<g>
			<polygon points="198.67,50.86 198.08,49.47 198.67,48.08 195.37,49.47 			"/>
		</g>
		<g>
			<polygon points="270.22,50.86 270.81,49.47 270.22,48.08 273.51,49.47 			"/>
		</g>
	</g>
</g>
<text transform="matrix(1 0 0 1 230.1094 47.1679)" class="st48 st49">110 bp</text>
<rect x="11.27" y="261.51" class="st39" width="267.04" height="42.53"/>
<text transform="matrix(1 0 0 1 69.4957 256.8667)" class="st52 st45 st47">tPIR1_modC 3’UTR terminator (359 bp)</text>
<text transform="matrix(1 0 0 1 87.9505 76.1657)" class="st53 st45 st46">HWNCAUUWY</text>
<text transform="matrix(1 0 0 1 141.4825 76.1653)" class="st53 st45 st46">HWNCAUUWY</text>
<rect x="287.23" y="21.59" class="st40" width="267.04" height="42.53"/>
<text transform="matrix(1 0 0 1 351.8299 17.415)" class="st54 st45 st47">tPIR1_modD 3’UTR terminator (359 bp)</text>
<g>
	<g>
		<line class="st41" x1="182.19" y1="46.77" x2="187.31" y2="46.77"/>
		<g>
			<polygon points="183.25,48.16 182.66,46.77 183.25,45.38 179.96,46.77 			"/>
		</g>
		<g>
			<polygon points="186.25,48.16 186.84,46.77 186.25,45.38 189.54,46.77 			"/>
		</g>
	</g>
</g>
<rect x="16.2" y="52.58" class="st1" width="257.31" height="10.99"/>
<rect x="56.57" y="53.07" class="st20" width="6.38" height="10.09"/>
<rect x="51.8" y="53.07" class="st22" width="4.7" height="10.09"/>
<rect x="107.76" y="53.04" class="st21" width="6.38" height="10.09"/>
<rect x="174.02" y="53.04" class="st21" width="6.38" height="10.09"/>
<rect x="188.99" y="53.04" class="st21" width="6.38" height="10.09"/>
<rect x="292.27" y="25.8" class="st1" width="257.31" height="10.99"/>
<rect x="332.63" y="26.28" class="st20" width="6.38" height="10.09"/>
<rect x="327.87" y="26.28" class="st22" width="4.7" height="10.09"/>
<rect x="383.83" y="26.25" class="st21" width="6.38" height="10.09"/>
<rect x="450.09" y="26.25" class="st42" width="6.38" height="10.09"/>
<rect x="465.06" y="26.25" class="st21" width="6.38" height="10.09"/>
<rect x="16.48" y="265.72" class="st1" width="257.31" height="10.99"/>
<rect x="56.84" y="266.2" class="st20" width="6.38" height="10.09"/>
<rect x="52.08" y="266.2" class="st22" width="4.7" height="10.09"/>
<rect x="108.04" y="266.17" class="st42" width="6.38" height="10.09"/>
<rect x="174.29" y="266.17" class="st21" width="6.38" height="10.09"/>
<rect x="189.27" y="266.17" class="st21" width="6.38" height="10.09"/>
<line class="st12" x1="16.2" y1="34.68" x2="203.11" y2="34.68"/>
<line class="st12" x1="16.3" y1="38.07" x2="16.3" y2="34.3"/>
<line class="st12" x1="202.76" y1="38.15" x2="202.76" y2="34.38"/>
<g>
	<text transform="matrix(1 0 0 1 98.6425 31.9763)" class="st13 st45 st47">3’UTR</text>
</g>
<g>
	<g>
		<line class="st6" x1="60.03" y1="64.14" x2="60.03" y2="76.78"/>
		<g>
			<polygon class="st7" points="58.64,75.73 60.03,76.32 61.42,75.73 60.03,79.02 			"/>
		</g>
	</g>
</g>
<g>
	<g>
		<line class="st6" x1="54.15" y1="64.14" x2="54.15" y2="68.01"/>
		<g>
			<polygon class="st7" points="52.76,66.96 54.15,67.55 55.54,66.96 54.15,70.25 			"/>
		</g>
	</g>
</g>
<g>
	<g>
		<line class="st6" x1="110.95" y1="64.05" x2="110.95" y2="67.63"/>
		<g>
			<polygon class="st7" points="109.56,66.58 110.95,67.17 112.34,66.58 110.95,69.87 			"/>
		</g>
	</g>
</g>
<g>
	<g>
		<line class="st6" x1="177.21" y1="64.14" x2="177.21" y2="67.63"/>
		<g>
			<polygon class="st7" points="175.82,66.58 177.21,67.17 178.6,66.58 177.21,69.87 			"/>
		</g>
	</g>
</g>
<text transform="matrix(1 0 0 1 182.297 84.3826)" class="st53 st45 st46">HWNCAUUWY</text>
<g>
	<g>
		<line class="st6" x1="192.18" y1="64.14" x2="192.18" y2="76.47"/>
		<g>
			<polygon class="st7" points="190.79,75.42 192.18,76.01 193.57,75.42 192.18,78.71 			"/>
		</g>
	</g>
</g>
<g>
	<text transform="matrix(1 0 0 1 34.1983 289.0886)" class="st44 st45 st46">ATATTC</text>
</g>
<g>
	<text transform="matrix(1 0 0 1 45.8191 297.3062)" class="st50 st45 st51">UGUAHMNUA</text>
</g>
<text transform="matrix(1 0 0 1 90.9885 289.0895)" class="st13 st45 st46">ACCGAAATA</text>
<text transform="matrix(1 0 0 1 141.58 289.0891)" class="st53 st45 st46">HWNCAUUWY</text>
<g>
	<g>
		<line class="st6" x1="60.13" y1="277.06" x2="60.13" y2="289.71"/>
		<g>
			<polygon class="st7" points="58.74,288.65 60.13,289.24 61.52,288.65 60.13,291.95 			"/>
		</g>
	</g>
</g>
<g>
	<g>
		<line class="st6" x1="54.25" y1="277.06" x2="54.25" y2="280.93"/>
		<g>
			<polygon class="st7" points="52.86,279.88 54.25,280.47 55.64,279.88 54.25,283.17 			"/>
		</g>
	</g>
</g>
<g>
	<g>
		<line class="st6" x1="111.05" y1="276.97" x2="111.05" y2="280.56"/>
		<g>
			<polygon class="st7" points="109.66,279.5 111.05,280.09 112.44,279.5 111.05,282.79 			"/>
		</g>
	</g>
</g>
<g>
	<g>
		<line class="st6" x1="177.31" y1="277.06" x2="177.31" y2="280.56"/>
		<g>
			<polygon class="st7" points="175.92,279.5 177.31,280.09 178.69,279.5 177.31,282.79 			"/>
		</g>
	</g>
</g>
<text transform="matrix(1 0 0 1 182.3945 297.3065)" class="st53 st45 st46">HWNCAUUWY</text>
<g>
	<g>
		<line class="st6" x1="192.28" y1="277.06" x2="192.28" y2="289.4"/>
		<g>
			<polygon class="st7" points="190.89,288.34 192.28,288.93 193.67,288.34 192.28,291.64 			"/>
		</g>
	</g>
</g>
<g>
	<text transform="matrix(1 0 0 1 309.7058 49.2885)" class="st44 st45 st46">ATATTC</text>
</g>
<g>
	<text transform="matrix(1 0 0 1 321.3266 57.5061)" class="st50 st45 st51">UGUAHMNUA</text>
</g>
<text transform="matrix(1 0 0 1 363.5555 49.2892)" class="st53 st45 st46">HWNCAUUWY</text>
<g>
	<text transform="matrix(1 0 0 1 423.7105 48.9843)" class="st13 st45 st46">ACAATAAAT</text>
</g>
<g>
	<g>
		<line class="st6" x1="335.64" y1="37.26" x2="335.64" y2="49.91"/>
		<g>
			<polygon class="st7" points="334.25,48.85 335.64,49.44 337.03,48.85 335.64,52.15 			"/>
		</g>
	</g>
</g>
<g>
	<g>
		<line class="st6" x1="329.76" y1="37.26" x2="329.76" y2="41.13"/>
		<g>
			<polygon class="st7" points="328.37,40.08 329.76,40.67 331.14,40.08 329.76,43.37 			"/>
		</g>
	</g>
</g>
<g>
	<g>
		<line class="st6" x1="386.56" y1="37.17" x2="386.56" y2="40.76"/>
		<g>
			<polygon class="st7" points="385.17,39.7 386.56,40.29 387.95,39.7 386.56,42.99 			"/>
		</g>
	</g>
</g>
<g>
	<g>
		<line class="st6" x1="452.81" y1="37.26" x2="452.81" y2="40.76"/>
		<g>
			<polygon class="st7" points="451.42,39.7 452.81,40.29 454.2,39.7 452.81,42.99 			"/>
		</g>
	</g>
</g>
<text transform="matrix(1 0 0 1 457.9019 57.5061)" class="st53 st45 st46">HWNCAUUWY</text>
<g>
	<g>
		<line class="st6" x1="467.79" y1="37.26" x2="467.79" y2="49.6"/>
		<g>
			<polygon class="st7" points="466.4,48.54 467.79,49.13 469.18,48.54 467.79,51.83 			"/>
		</g>
	</g>
</g>
<rect x="11.27" y="117.22" class="st14" width="267.04" height="42.53"/>
<text transform="matrix(1 0 0 1 73.3313 113.0591)" class="st55 st45 st47">tPIR1_modB 3’UTR terminator (359 bp)</text>
<rect x="11.27" y="189.05" class="st15" width="267.04" height="42.53"/>
<text transform="matrix(1 0 0 1 69.6673 185.0442)" class="st50 st45 st47">tPIR1_modA 3’UTR terminator (359 bp)</text>
<rect x="16.48" y="193.26" class="st1" width="257.31" height="10.99"/>
<rect x="56.84" y="193.74" class="st42" width="6.38" height="10.09"/>
<rect x="52.08" y="193.74" class="st22" width="4.7" height="10.09"/>
<rect x="108.04" y="193.71" class="st21" width="6.38" height="10.09"/>
<rect x="174.29" y="193.71" class="st21" width="6.38" height="10.09"/>
<rect x="189.27" y="193.71" class="st21" width="6.38" height="10.09"/>
<rect x="16.48" y="121.43" class="st1" width="257.31" height="10.99"/>
<rect x="56.84" y="121.91" class="st20" width="6.38" height="10.09"/>
<rect x="52.08" y="121.91" class="st42" width="4.7" height="10.09"/>
<rect x="108.04" y="121.88" class="st21" width="6.38" height="10.09"/>
<rect x="174.29" y="121.88" class="st21" width="6.38" height="10.09"/>
<rect x="189.27" y="121.88" class="st21" width="6.38" height="10.09"/>
<g>
	<text transform="matrix(1 0 0 1 33.5215 144.4563)" class="st13 st45 st46">CTTAAT</text>
</g>
<g>
	<text transform="matrix(1 0 0 1 45.8191 153.0151)" class="st50 st45 st51">UGUAHMNUA</text>
</g>
<text transform="matrix(1 0 0 1 141.5799 144.7979)" class="st53 st45 st46">HWNCAUUWY</text>
<g>
	<g>
		<line class="st6" x1="60.13" y1="132.77" x2="60.13" y2="145.42"/>
		<g>
			<polygon class="st7" points="58.74,144.36 60.13,144.95 61.52,144.36 60.13,147.65 			"/>
		</g>
	</g>
</g>
<g>
	<g>
		<line class="st6" x1="54.25" y1="132.77" x2="54.25" y2="136.64"/>
		<g>
			<polygon class="st7" points="52.86,135.59 54.25,136.18 55.64,135.59 54.25,138.88 			"/>
		</g>
	</g>
</g>
<g>
	<g>
		<line class="st6" x1="111.05" y1="132.68" x2="111.05" y2="136.26"/>
		<g>
			<polygon class="st7" points="109.66,135.21 111.05,135.8 112.44,135.21 111.05,138.5 			"/>
		</g>
	</g>
</g>
<g>
	<g>
		<line class="st6" x1="177.31" y1="132.77" x2="177.31" y2="136.26"/>
		<g>
			<polygon class="st7" points="175.92,135.21 177.31,135.8 178.69,135.21 177.31,138.5 			"/>
		</g>
	</g>
</g>
<text transform="matrix(1 0 0 1 182.3944 153.0152)" class="st53 st45 st46">HWNCAUUWY</text>
<g>
	<g>
		<line class="st6" x1="192.28" y1="132.77" x2="192.28" y2="145.11"/>
		<g>
			<polygon class="st7" points="190.89,144.05 192.28,144.64 193.67,144.05 192.28,147.34 			"/>
		</g>
	</g>
</g>
<g>
	<text transform="matrix(1 0 0 1 33.9148 216.7466)" class="st44 st45 st46">ATATTC</text>
</g>
<text transform="matrix(1 0 0 1 87.7644 216.7473)" class="st53 st45 st46">HWNCAUUWY</text>
<g>
	<g>
		<line class="st6" x1="59.85" y1="204.72" x2="59.85" y2="217.36"/>
		<g>
			<polygon class="st7" points="58.46,216.31 59.85,216.9 61.24,216.31 59.85,219.6 			"/>
		</g>
	</g>
</g>
<g>
	<g>
		<line class="st6" x1="53.96" y1="204.72" x2="53.96" y2="208.59"/>
		<g>
			<polygon class="st7" points="52.58,207.54 53.96,208.13 55.35,207.54 53.96,210.83 			"/>
		</g>
	</g>
</g>
<g>
	<g>
		<line class="st6" x1="110.77" y1="204.63" x2="110.77" y2="208.21"/>
		<g>
			<polygon class="st7" points="109.38,207.16 110.77,207.75 112.15,207.16 110.77,210.45 			"/>
		</g>
	</g>
</g>
<g>
	<g>
		<line class="st6" x1="177.02" y1="204.72" x2="177.02" y2="208.21"/>
		<g>
			<polygon class="st7" points="175.63,207.16 177.02,207.75 178.41,207.16 177.02,210.45 			"/>
		</g>
	</g>
</g>
<text transform="matrix(1 0 0 1 182.1108 224.9643)" class="st53 st45 st46">HWNCAUUWY</text>
<g>
	<g>
		<line class="st6" x1="192" y1="204.72" x2="192" y2="217.05"/>
		<g>
			<polygon class="st7" points="190.61,216 192,216.59 193.39,216 192,219.29 			"/>
		</g>
	</g>
</g>
<text transform="matrix(1 0 0 1 88.2287 144.7981)" class="st53 st45 st46">HWNCAUUWY</text>
<g>
	<text transform="matrix(1 0 0 1 43.7141 225.0986)" class="st13 st45 st46">TTATGAACA</text>
</g>
<text transform="matrix(1 0 0 1 141.5796 216.7472)" class="st53 st45 st46">HWNCAUUWY</text>
<rect x="287.06" y="94.2" class="st16" width="267.04" height="42.53"/>
<text transform="matrix(1 0 0 1 352.8754 89.8947)" class="st53 st45 st47">tPIR1_modE 3’UTR terminator (359 bp)</text>
<rect x="292.27" y="98.41" class="st1" width="257.31" height="10.99"/>
<rect x="332.63" y="98.9" class="st20" width="6.38" height="10.09"/>
<rect x="327.87" y="98.9" class="st22" width="4.7" height="10.09"/>
<rect x="383.83" y="98.87" class="st42" width="6.38" height="10.09"/>
<rect x="450.09" y="98.87" class="st42" width="6.38" height="10.09"/>
<rect x="465.06" y="98.87" class="st42" width="6.38" height="10.09"/>
<g>
	<text transform="matrix(1 0 0 1 309.9902 121.7846)" class="st44 st45 st46">ATATTC</text>
</g>
<g>
	<text transform="matrix(1 0 0 1 321.6111 130.0022)" class="st50 st45 st51">UGUAHMNUA</text>
</g>
<text transform="matrix(1 0 0 1 366.7804 121.7857)" class="st13 st45 st46">ACCGAAATA</text>
<g>
	<g>
		<line class="st6" x1="335.92" y1="109.76" x2="335.92" y2="122.4"/>
		<g>
			<polygon class="st7" points="334.53,121.35 335.92,121.94 337.31,121.35 335.92,124.64 			"/>
		</g>
	</g>
</g>
<g>
	<g>
		<line class="st6" x1="330.04" y1="109.76" x2="330.04" y2="113.63"/>
		<g>
			<polygon class="st7" points="328.65,112.58 330.04,113.17 331.43,112.58 330.04,115.87 			"/>
		</g>
	</g>
</g>
<g>
	<g>
		<line class="st6" x1="386.84" y1="109.67" x2="386.84" y2="113.25"/>
		<g>
			<polygon class="st7" points="385.45,112.2 386.84,112.79 388.23,112.2 386.84,115.49 			"/>
		</g>
	</g>
</g>
<g>
	<g>
		<line class="st6" x1="453.1" y1="109.76" x2="453.1" y2="113.25"/>
		<g>
			<polygon class="st7" points="451.71,112.2 453.1,112.79 454.49,112.2 453.1,115.49 			"/>
		</g>
	</g>
</g>
<g>
	<text transform="matrix(1 0 0 1 461.5419 130.0026)" class="st13 st45 st46">GCTTCTAAA</text>
</g>
<g>
	<g>
		<line class="st6" x1="468.07" y1="109.76" x2="468.07" y2="122.09"/>
		<g>
			<polygon class="st7" points="466.68,121.04 468.07,121.63 469.46,121.04 468.07,124.33 			"/>
		</g>
	</g>
</g>
<g>
	<text transform="matrix(1 0 0 1 423.7107 121.7852)" class="st13 st45 st46">ACAATAAAT</text>
</g>
<rect x="287.06" y="167.38" class="st16" width="267.04" height="42.53"/>
<text transform="matrix(1 0 0 1 353.003 160.9619)" class="st56 st45 st47">tPIR1_modF 3’UTR terminator (359 bp)</text>
<rect x="292.27" y="171.59" class="st1" width="257.31" height="10.99"/>
<rect x="332.63" y="172.07" class="st42" width="6.38" height="10.09"/>
<rect x="327.87" y="172.07" class="st22" width="4.7" height="10.09"/>
<rect x="383.83" y="172.05" class="st42" width="6.38" height="10.09"/>
<rect x="450.09" y="172.05" class="st42" width="6.38" height="10.09"/>
<rect x="465.06" y="172.05" class="st42" width="6.38" height="10.09"/>
<g>
	<text transform="matrix(1 0 0 1 309.9904 194.9621)" class="st44 st45 st46">ATATTC</text>
</g>
<text transform="matrix(1 0 0 1 366.7805 194.963)" class="st13 st45 st46">ACCGAAATA</text>
<g>
	<g>
		<line class="st6" x1="335.92" y1="182.93" x2="335.92" y2="195.58"/>
		<g>
			<polygon class="st7" points="334.53,194.53 335.92,195.12 337.31,194.53 335.92,197.82 			"/>
		</g>
	</g>
</g>
<g>
	<g>
		<line class="st6" x1="330.04" y1="182.93" x2="330.04" y2="186.81"/>
		<g>
			<polygon class="st7" points="328.65,185.75 330.04,186.34 331.43,185.75 330.04,189.05 			"/>
		</g>
	</g>
</g>
<g>
	<g>
		<line class="st6" x1="386.84" y1="182.85" x2="386.84" y2="186.43"/>
		<g>
			<polygon class="st7" points="385.45,185.38 386.84,185.97 388.23,185.38 386.84,188.67 			"/>
		</g>
	</g>
</g>
<g>
	<g>
		<line class="st6" x1="453.1" y1="182.93" x2="453.1" y2="186.43"/>
		<g>
			<polygon class="st7" points="451.71,185.38 453.1,185.97 454.49,185.38 453.1,188.67 			"/>
		</g>
	</g>
</g>
<g>
	<text transform="matrix(1 0 0 1 461.5421 203.18)" class="st13 st45 st46">GCTTCTAAA</text>
</g>
<g>
	<g>
		<line class="st6" x1="468.07" y1="182.93" x2="468.07" y2="195.27"/>
		<g>
			<polygon class="st7" points="466.68,194.22 468.07,194.81 469.46,194.22 468.07,197.51 			"/>
		</g>
	</g>
</g>
<g>
	<text transform="matrix(1 0 0 1 423.711 194.9626)" class="st13 st45 st46">ACAATAAAT</text>
</g>
<g>
	<text transform="matrix(1 0 0 1 316.4128 204.2671)" class="st13 st45 st46">TTATGAACA</text>
</g>
<rect x="288.39" y="240.56" class="st16" width="267.04" height="42.53"/>
<text transform="matrix(1 0 0 1 351.8703 233.9248)" class="st57 st45 st47">tPIR1_modG 3’UTR terminator (359 bp)</text>
<rect x="293.65" y="244.77" class="st1" width="257.31" height="10.99"/>
<rect x="334.01" y="245.25" class="st20" width="6.38" height="10.09"/>
<rect x="329.25" y="245.25" class="st42" width="4.7" height="10.09"/>
<rect x="385.21" y="245.22" class="st42" width="6.38" height="10.09"/>
<rect x="451.46" y="245.22" class="st42" width="6.38" height="10.09"/>
<rect x="466.44" y="245.22" class="st42" width="6.38" height="10.09"/>
<text transform="matrix(1 0 0 1 368.1584 268.1404)" class="st13 st45 st46">ACCGAAATA</text>
<g>
	<g>
		<line class="st6" x1="337.3" y1="256.11" x2="337.3" y2="268.76"/>
		<g>
			<polygon class="st7" points="335.91,267.7 337.3,268.29 338.69,267.7 337.3,271 			"/>
		</g>
	</g>
</g>
<g>
	<g>
		<line class="st6" x1="331.42" y1="256.11" x2="331.42" y2="259.98"/>
		<g>
			<polygon class="st7" points="330.03,258.93 331.42,259.52 332.81,258.93 331.42,262.22 			"/>
		</g>
	</g>
</g>
<g>
	<g>
		<line class="st6" x1="388.22" y1="256.02" x2="388.22" y2="259.61"/>
		<g>
			<polygon class="st7" points="386.83,258.55 388.22,259.14 389.61,258.55 388.22,261.84 			"/>
		</g>
	</g>
</g>
<g>
	<g>
		<line class="st6" x1="454.48" y1="256.11" x2="454.48" y2="259.61"/>
		<g>
			<polygon class="st7" points="453.09,258.55 454.48,259.14 455.86,258.55 454.48,261.84 			"/>
		</g>
	</g>
</g>
<g>
	<text transform="matrix(1 0 0 1 462.92 276.3573)" class="st13 st45 st46">GCTTCTAAA</text>
</g>
<g>
	<g>
		<line class="st6" x1="469.45" y1="256.11" x2="469.45" y2="268.45"/>
		<g>
			<polygon class="st7" points="468.06,267.39 469.45,267.98 470.84,267.39 469.45,270.69 			"/>
		</g>
	</g>
</g>
<g>
	<text transform="matrix(1 0 0 1 425.0888 268.1399)" class="st13 st45 st46">ACAATAAAT</text>
</g>
<g>
	<text transform="matrix(1 0 0 1 318.1819 276.3569)" class="st50 st45 st51">UGUAHMNUA</text>
</g>
<g>
	<text transform="matrix(1 0 0 1 309.3825 266.5244)" class="st13 st45 st46">CTTAAT</text>
</g>
<rect x="287.06" y="238.95" class="st14" width="269.83" height="45.69"/>
<rect x="285.76" y="165.73" class="st15" width="269.67" height="45.78"/>
</svg>
