<?xml version="1.0" encoding="utf-8"?>
<!-- Generator: Adobe Illustrator 25.1.0, SVG Export Plug-In . SVG Version: 6.00 Build 0)  -->
<svg version="1.1" id="Layer_1" xmlns="http://www.w3.org/2000/svg" xmlns:xlink="http://www.w3.org/1999/xlink" x="0px" y="0px"
	 viewBox="0 0 566.93 255.12" style="enable-background:new 0 0 566.93 255.12;" xml:space="preserve">
<style type="text/css">
	.st0{fill:none;stroke:#B2B2B2;stroke-width:0.5;stroke-miterlimit:10;}
	.st1{fill:#EDEDED;stroke:#575656;stroke-width:0.75;stroke-miterlimit:10;}
	.st2{fill:#F4F4F4;}
	.st3{fill:none;stroke:#000000;stroke-width:0.5;stroke-miterlimit:10;}
	.st4{fill:#F4F4F4;stroke:#575656;stroke-width:0.75;stroke-miterlimit:10;}
	.st5{fill:#CFCECE;}
	.st6{fill:none;stroke:#8DA0AA;stroke-width:0.75;stroke-miterlimit:10;}
	.st7{fill:#8DA0AA;}
	.st8{fill:none;stroke:#000000;stroke-width:0.75;stroke-miterlimit:10;}
	.st9{fill:none;stroke:#000000;stroke-width:0.75;stroke-miterlimit:10;stroke-dasharray:1.8428,1.3821;}
	.st10{fill:none;stroke:#000000;stroke-width:0.75;stroke-miterlimit:10;stroke-dasharray:1.7795,1.3346;}
	.st11{fill:none;stroke:#000000;stroke-width:0.75;stroke-miterlimit:10;stroke-dasharray:2.0127,1.5095;}
	.st12{fill:none;stroke:#9D9D9C;stroke-width:0.75;stroke-miterlimit:10;}
	.st13{fill:#9D9D9C;}
	.st14{fill:none;stroke:#C05558;stroke-width:0.5;stroke-miterlimit:10;}
	.st15{fill:none;stroke:#5978BA;stroke-width:0.5;stroke-miterlimit:10;}
	.st16{fill:none;stroke:#71519C;stroke-width:0.5;stroke-miterlimit:10;}
	.st17{fill:none;stroke:#CCA0CA;stroke-width:0.5;stroke-miterlimit:10;}
	.st18{fill:none;stroke:#7FBF74;stroke-width:0.5;stroke-miterlimit:10;}
	.st19{fill:#C4E0C0;}
	.st20{fill:#90A9D3;}
	.st21{fill:#B3A1CE;}
	.st22{fill:#F4A3A5;}
	.st23{fill:none;stroke:#000000;stroke-width:0.75;stroke-miterlimit:10;stroke-dasharray:2.0565,1.5424;}
	.st24{fill:none;stroke:#000000;stroke-width:0.75;stroke-miterlimit:10;stroke-dasharray:1.9702,1.4777;}
	.st25{fill:none;stroke:#000000;stroke-width:0.75;stroke-miterlimit:10;stroke-dasharray:1.9859,1.4894;}
	.st26{fill:none;stroke:#000000;stroke-width:0.75;stroke-miterlimit:10;stroke-dasharray:1.9956,1.4967;}
	.st27{fill:none;stroke:#000000;stroke-width:0.75;stroke-miterlimit:10;stroke-dasharray:1.8742,1.4056;}
	.st28{fill:none;stroke:#000000;stroke-width:0.75;stroke-miterlimit:10;stroke-dasharray:1.8076,1.3557;}
	.st29{fill:none;stroke:#AF8084;stroke-width:0.5;stroke-miterlimit:10;}
	.st30{fill:none;stroke:#8292AF;stroke-width:0.5;stroke-miterlimit:10;}
	.st31{fill:none;stroke:#8A809B;stroke-width:0.5;stroke-miterlimit:10;}
	.st32{fill:none;stroke:#C6AFC6;stroke-width:0.5;stroke-miterlimit:10;}
	.st33{fill:none;stroke:#000000;stroke-width:0.75;stroke-miterlimit:10;stroke-dasharray:2.0155,1.5116;}
	.st34{fill:none;stroke:#000000;stroke-width:0.75;stroke-miterlimit:10;stroke-dasharray:2.025,1.5187;}
	.st35{fill:none;stroke:#000000;stroke-width:0.75;stroke-miterlimit:10;stroke-dasharray:1.9627,1.472;}
	.st36{fill:none;stroke:#000000;stroke-width:0.75;stroke-miterlimit:10;stroke-dasharray:1.9168,1.4376;}
	.st37{fill:none;stroke:#000000;stroke-width:0.75;stroke-miterlimit:10;stroke-dasharray:2.0046,1.5034;}
	.st38{fill:none;stroke:#000000;stroke-width:0.75;stroke-miterlimit:10;stroke-dasharray:2.0045,1.5034;}
	.st39{fill:none;stroke:#CCC3E0;stroke-width:0.5;stroke-miterlimit:10;}
	.st40{fill:none;stroke:#BCA6D1;stroke-width:0.5;stroke-miterlimit:10;}
	.st41{fill:none;stroke:#000000;stroke-width:0.75;stroke-miterlimit:10;stroke-dasharray:2,1.5;}
	.st42{fill:#C6C6C6;}
	.st43{fill:none;stroke:#9DB798;stroke-width:0.5;stroke-miterlimit:10;}
	.st44{fill:#B2B2B2;}
	.st45{font-family:'GillSans';}
	.st46{font-size:8.3595px;}
	.st47{font-family:'MyriadPro-Regular';}
	.st48{font-size:4.5px;}
	.st49{fill:#C4C4C4;}
	.st50{font-size:5.3737px;}
	.st51{font-size:4.5827px;}
	.st52{font-size:6.4158px;}
	.st53{font-size:7px;}
	.st54{fill:#E52421;}
	.st55{fill:#5978BA;}
	.st56{font-size:5.37px;}
	.st57{fill:#71519C;}
	.st58{fill:#009640;}
	.st59{fill:#C05558;}
	.st60{fill:#7FBF74;}
	.st61{fill:#CCA0CA;}
</style>
<rect x="84.47" y="45.08" class="st0" width="180.67" height="45.95"/>
<rect x="94.69" y="75.02" class="st1" width="144.79" height="10.99"/>
<text transform="matrix(1 0 0 1 23.5256 62.6379)"><tspan x="0" y="0" class="st44 st45 st46">tRPS3-WT </tspan><tspan x="-11.34" y="10.03" class="st44 st45 st46">3’UTR-terminator</tspan><tspan x="5.13" y="20.06" class="st44 st45 st46">(200 bp)</tspan></text>
<rect x="91.61" y="144.5" class="st2" width="85.39" height="30.77"/>
<rect x="85.58" y="101.04" class="st3" width="179.56" height="80.39"/>
<rect x="95.95" y="126.81" class="st4" width="164.63" height="10.99"/>
<rect x="113.42" y="127.29" class="st5" width="6.53" height="10.09"/>
<text transform="matrix(1 0 0 1 113.6558 133.9756)" class="st47 st48">M1</text>
<g>
	<g>
		<line class="st6" x1="134.17" y1="138.3" x2="134.17" y2="163.57"/>
		<g>
			<polygon class="st7" points="132.78,162.52 134.17,163.11 135.56,162.52 134.17,165.81 			"/>
		</g>
	</g>
</g>
<g>
	<g>
		<line class="st6" x1="143.81" y1="138.3" x2="154.42" y2="148.69"/>
		<g>
			<polygon class="st7" points="152.69,148.94 154.09,148.37 154.64,146.96 156.02,150.26 			"/>
		</g>
	</g>
</g>
<g>
	<text transform="matrix(1 0 0 1 93.876 157.2576)" class="st49 st45 st50">CGTCTACGA</text>
</g>
<g>
	<g>
		<line class="st6" x1="116.69" y1="138.3" x2="110" y2="149.94"/>
		<g>
			<polygon class="st7" points="109.32,148.33 110.23,149.54 111.73,149.72 108.88,151.88 			"/>
		</g>
	</g>
</g>
<g>
	<text transform="matrix(1 0 0 1 116.6858 171.6321)" class="st49 st45 st50">ACTACGCCT</text>
</g>
<g>
	<text transform="matrix(1 0 0 1 140.9021 157.2573)" class="st49 st45 st50">GCTTGAGGA</text>
</g>
<g>
	<g>
		<line class="st8" x1="98.18" y1="123.7" x2="99.18" y2="123.7"/>
		<line class="st9" x1="100.57" y1="123.7" x2="109.55" y2="123.7"/>
		<line class="st8" x1="110.24" y1="123.7" x2="111.24" y2="123.7"/>
		<g>
			<polygon points="99.24,125.09 98.65,123.7 99.24,122.31 95.95,123.7 			"/>
		</g>
		<g>
			<polygon points="110.19,125.09 110.78,123.7 110.19,122.31 113.48,123.7 			"/>
		</g>
	</g>
</g>
<text transform="matrix(1 0 0 1 100.3501 121.113)" class="st47 st51">24 bp</text>
<g>
	<g>
		<line class="st8" x1="122.19" y1="123.7" x2="123.19" y2="123.7"/>
		<line class="st10" x1="124.52" y1="123.7" x2="126.97" y2="123.7"/>
		<line class="st8" x1="127.64" y1="123.7" x2="128.64" y2="123.7"/>
		<g>
			<polygon points="123.24,125.09 122.65,123.7 123.24,122.31 119.95,123.7 			"/>
		</g>
		<g>
			<polygon points="127.58,125.09 128.17,123.7 127.58,122.31 130.88,123.7 			"/>
		</g>
	</g>
</g>
<text transform="matrix(1 0 0 1 120.3138 121.3977)" class="st47 st51">15 bp</text>
<line class="st8" x1="137.44" y1="123.7" x2="140.63" y2="123.7"/>
<text transform="matrix(1 0 0 1 135.0733 122.0461)" class="st47 st51">4 bp</text>
<g>
	<g>
		<line class="st8" x1="149.17" y1="123.7" x2="150.17" y2="123.7"/>
		<line class="st11" x1="151.68" y1="123.7" x2="256.59" y2="123.7"/>
		<line class="st8" x1="257.34" y1="123.7" x2="258.34" y2="123.7"/>
		<g>
			<polygon points="150.22,125.09 149.63,123.7 150.22,122.31 146.93,123.7 			"/>
		</g>
		<g>
			<polygon points="257.29,125.09 257.88,123.7 257.29,122.31 260.58,123.7 			"/>
		</g>
	</g>
</g>
<text transform="matrix(1 0 0 1 196.9112 121.3977)" class="st47 st51">158 bp</text>
<g>
	<text transform="matrix(1 0 0 1 23.735 132.31)"><tspan x="0" y="0" class="st45 st46">tRPS3-mod0 </tspan><tspan x="-8.28" y="10.03" class="st45 st46">3’UTR terminator</tspan><tspan x="8" y="20.06" class="st45 st46">(227 bp)</tspan></text>
</g>
<text transform="matrix(1 0 0 1 197.9695 162.2668)" class="st13 st47 st52">Random sequences</text>
<g>
	<g>
		<line class="st12" x1="180.5" y1="160.93" x2="195.08" y2="160.93"/>
		<g>
			<polygon class="st13" points="181.55,162.32 180.96,160.93 181.55,159.54 178.26,160.93 			"/>
		</g>
	</g>
</g>
<rect x="130.91" y="127.27" class="st5" width="6.53" height="10.09"/>
<text transform="matrix(1 0 0 1 131.1424 133.9473)" class="st47 st48">M2</text>
<rect x="140.63" y="127.27" class="st5" width="6.53" height="10.09"/>
<text transform="matrix(1 0 0 1 140.8621 133.9473)" class="st47 st48">M3</text>
<line class="st12" x1="95.98" y1="112.84" x2="178.18" y2="112.84"/>
<line class="st12" x1="96.03" y1="116.23" x2="96.03" y2="112.46"/>
<line class="st12" x1="178.03" y1="116.3" x2="178.03" y2="112.54"/>
<g>
	<text transform="matrix(1 0 0 1 112.4783 110.1348)" class="st13 st45 st53">Modified 3’UTR</text>
</g>
<rect x="358.61" y="12.31" class="st14" width="182.03" height="36.66"/>
<rect x="358.68" y="57.42" class="st15" width="182.03" height="36.56"/>
<rect x="358.53" y="104.86" class="st16" width="182.03" height="36.55"/>
<rect x="358.76" y="152.56" class="st17" width="182.03" height="36.49"/>
<rect x="358.61" y="199.54" class="st18" width="182.03" height="37.02"/>
<rect x="373.72" y="18.54" class="st1" width="162.51" height="10.99"/>
<text transform="matrix(1 0 0 1 390.5125 46.6919)"><tspan x="0" y="0" class="st49 st45 st50">ACT</tspan><tspan x="10.63" y="0" class="st54 st45 st50">ATATTC</tspan></text>
<text transform="matrix(1 0 0 1 415.5995 40.592)"><tspan x="0" y="0" class="st54 st45 st50">ATATTC</tspan><tspan x="20.71" y="0" class="st49 st45 st50">GGA</tspan></text>
<g>
	<g>
		<line class="st6" x1="409.96" y1="30.02" x2="409.96" y2="39.05"/>
		<g>
			<polygon class="st7" points="408.57,38 409.96,38.59 411.35,38 409.96,41.29 			"/>
		</g>
	</g>
</g>
<g>
	<g>
		<line class="st6" x1="419.45" y1="30.02" x2="419.45" y2="33.76"/>
		<g>
			<polygon class="st7" points="418.07,32.71 419.45,33.3 420.84,32.71 419.45,36 			"/>
		</g>
	</g>
</g>
<g>
	<text transform="matrix(1 0 0 1 365.3097 41.2895)" class="st49 st45 st50">CGTCTACGA</text>
</g>
<g>
	<g>
		<line class="st6" x1="392.33" y1="30.02" x2="392.33" y2="33.76"/>
		<g>
			<polygon class="st7" points="390.94,32.71 392.33,33.3 393.72,32.71 392.33,36 			"/>
		</g>
	</g>
</g>
<rect x="373.72" y="62.98" class="st1" width="162.51" height="10.99"/>
<g>
	<g>
		<line class="st6" x1="409.82" y1="74.46" x2="409.82" y2="84.36"/>
		<g>
			<polygon class="st7" points="408.43,83.31 409.82,83.9 411.21,83.31 409.82,86.6 			"/>
		</g>
	</g>
</g>
<g>
	<g>
		<line class="st6" x1="419.64" y1="74.46" x2="419.64" y2="78.21"/>
		<g>
			<polygon class="st7" points="418.25,77.15 419.64,77.74 421.03,77.15 419.64,80.44 			"/>
		</g>
	</g>
</g>
<g>
	<text transform="matrix(1 0 0 1 365.2701 85.4607)" class="st49 st45 st50">CGTCTACGA</text>
</g>
<g>
	<g>
		<line class="st6" x1="392.07" y1="74.46" x2="392.07" y2="78.21"/>
		<g>
			<polygon class="st7" points="390.68,77.15 392.07,77.74 393.46,77.15 392.07,80.44 			"/>
		</g>
	</g>
</g>
<g>
	<text transform="matrix(1 0 0 1 415.2838 86.029)" class="st49 st45 st50">GCTTGAGGA</text>
</g>
<text transform="matrix(1 0 0 1 392.7728 91.6462)" class="st55 st45 st56">UGUAHMNUA</text>
<rect x="373.72" y="110.4" class="st1" width="162.51" height="10.99"/>
<g>
	<g>
		<line class="st6" x1="409.73" y1="121.88" x2="409.73" y2="130.83"/>
		<g>
			<polygon class="st7" points="408.34,129.77 409.73,130.36 411.12,129.77 409.73,133.07 			"/>
		</g>
	</g>
</g>
<g>
	<g>
		<line class="st6" x1="419.64" y1="121.88" x2="419.64" y2="125.63"/>
		<g>
			<polygon class="st7" points="418.25,124.57 419.64,125.16 421.03,124.57 419.64,127.86 			"/>
		</g>
	</g>
</g>
<g>
	<g>
		<line class="st6" x1="392.07" y1="121.88" x2="392.07" y2="125.63"/>
		<g>
			<polygon class="st7" points="390.68,124.57 392.07,125.16 393.46,124.57 392.07,127.86 			"/>
		</g>
	</g>
</g>
<text transform="matrix(1 0 0 1 415.2838 132.4936)" class="st57 st45 st56">HWNCAUUWY</text>
<text transform="matrix(1 0 0 1 365.2701 132.4936)" class="st57 st45 st56">HWNCAUUWY</text>
<g>
	<text transform="matrix(1 0 0 1 392.0675 138.4165)" class="st49 st45 st50">ACTACGCCT</text>
</g>
<rect x="373.72" y="158.73" class="st1" width="162.51" height="10.99"/>
<g>
	<g>
		<line class="st6" x1="409.73" y1="170.22" x2="409.73" y2="179.66"/>
		<g>
			<polygon class="st7" points="408.34,178.6 409.73,179.19 411.12,178.6 409.73,181.89 			"/>
		</g>
	</g>
</g>
<g>
	<g>
		<line class="st6" x1="419.64" y1="170.22" x2="419.64" y2="173.96"/>
		<g>
			<polygon class="st7" points="418.25,172.91 419.64,173.5 421.03,172.91 419.64,176.2 			"/>
		</g>
	</g>
</g>
<g>
	<g>
		<line class="st6" x1="392.07" y1="170.22" x2="392.07" y2="173.96"/>
		<g>
			<polygon class="st7" points="390.68,172.91 392.07,173.5 393.46,172.91 392.07,176.2 			"/>
		</g>
	</g>
</g>
<g>
	<text transform="matrix(1 0 0 1 415.2838 180.9429)" class="st57 st45 st56">HWNCAUUWY</text>
</g>
<g>
	<text transform="matrix(1 0 0 1 365.2701 180.9429)" class="st57 st45 st56">HWNCAUUWY</text>
</g>
<g>
	<text transform="matrix(1 0 0 1 392.3324 186.8869)" class="st55 st45 st56">UGUAHMNUA</text>
</g>
<rect x="373.72" y="205.25" class="st1" width="162.51" height="10.99"/>
<g>
	<g>
		<line class="st6" x1="409.86" y1="216.73" x2="409.86" y2="226.01"/>
		<g>
			<polygon class="st7" points="408.47,224.96 409.86,225.55 411.25,224.96 409.86,228.25 			"/>
		</g>
	</g>
</g>
<g>
	<g>
		<line class="st6" x1="419.64" y1="216.73" x2="419.64" y2="220.47"/>
		<g>
			<polygon class="st7" points="418.25,219.42 419.64,220.01 421.03,219.42 419.64,222.71 			"/>
		</g>
	</g>
</g>
<g>
	<g>
		<line class="st6" x1="392.33" y1="216.61" x2="392.33" y2="220.35"/>
		<g>
			<polygon class="st7" points="390.94,219.3 392.33,219.89 393.72,219.3 392.33,222.59 			"/>
		</g>
	</g>
</g>
<g>
	<text transform="matrix(1 0 0 1 415.2838 227.4538)" class="st58 st45 st50">GTATACCTA</text>
</g>
<g>
	<text transform="matrix(1 0 0 1 366.1281 227.4543)" class="st49 st45 st50">CGTCTACGA</text>
</g>
<g>
	<text transform="matrix(1 0 0 1 393.6554 233.8315)" class="st58 st45 st50">GTATACCTA</text>
</g>
<text transform="matrix(1 0 0 1 298.9851 24.9983)"><tspan x="0" y="0" class="st59 st45 st46">tRPS3-modB </tspan><tspan x="-8.2" y="10.03" class="st59 st45 st46">3’UTR-terminator</tspan></text>
<text transform="matrix(1 0 0 1 298.3787 211.7685)"><tspan x="0" y="0" class="st60 st45 st46">tRPS3-modC </tspan><tspan x="-7.6" y="10.03" class="st60 st45 st46">3’UTR-terminator</tspan></text>
<text transform="matrix(1 0 0 1 298.55 70.1382)"><tspan x="0" y="0" class="st55 st45 st46">tRPS3-modA </tspan><tspan x="-7.77" y="10.03" class="st55 st45 st46">3’UTR-terminator</tspan></text>
<text transform="matrix(1 0 0 1 298.2029 117.3845)"><tspan x="0" y="0" class="st57 st45 st46">tRPS3-modD </tspan><tspan x="-7.42" y="10.03" class="st57 st45 st46">3’UTR-terminator</tspan></text>
<text transform="matrix(1 0 0 1 299.2478 165.2495)"><tspan x="0" y="0" class="st61 st45 st46">tRPS3-modE </tspan><tspan x="-8.47" y="10.03" class="st61 st45 st46">3’UTR-terminator</tspan></text>
<rect x="389.07" y="19" class="st5" width="6.53" height="10.09"/>
<rect x="406.55" y="18.97" class="st5" width="6.53" height="10.09"/>
<rect x="416.27" y="18.97" class="st5" width="6.53" height="10.09"/>
<rect x="389.11" y="205.75" class="st5" width="6.53" height="10.09"/>
<text transform="matrix(1 0 0 1 389.3474 212.4263)" class="st47 st48">M1</text>
<rect x="406.6" y="205.72" class="st19" width="6.53" height="10.09"/>
<text transform="matrix(1 0 0 1 406.8339 212.3979)" class="st47 st48">M2</text>
<rect x="416.32" y="205.72" class="st19" width="6.53" height="10.09"/>
<text transform="matrix(1 0 0 1 416.5536 212.3979)" class="st47 st48">M3</text>
<rect x="389.07" y="63.47" class="st5" width="6.53" height="10.09"/>
<text transform="matrix(1 0 0 1 389.3027 70.1535)" class="st47 st48">M1</text>
<rect x="406.55" y="63.44" class="st20" width="6.53" height="10.09"/>
<text transform="matrix(1 0 0 1 406.7892 70.1255)" class="st47 st48">M2</text>
<rect x="416.27" y="63.44" class="st5" width="6.53" height="10.09"/>
<text transform="matrix(1 0 0 1 416.509 70.1255)" class="st47 st48">M3</text>
<rect x="389.07" y="110.87" class="st21" width="6.53" height="10.09"/>
<text transform="matrix(1 0 0 1 389.3027 117.5461)" class="st47 st48">M1</text>
<rect x="406.55" y="110.84" class="st5" width="6.53" height="10.09"/>
<text transform="matrix(1 0 0 1 406.7892 117.5178)" class="st47 st48">M2</text>
<rect x="416.27" y="110.84" class="st21" width="6.53" height="10.09"/>
<text transform="matrix(1 0 0 1 416.509 117.5178)" class="st47 st48">M3</text>
<rect x="389.07" y="159.23" class="st21" width="6.53" height="10.09"/>
<text transform="matrix(1 0 0 1 389.3027 165.9092)" class="st47 st48">M1</text>
<rect x="406.55" y="159.2" class="st20" width="6.53" height="10.09"/>
<text transform="matrix(1 0 0 1 406.7892 165.8808)" class="st47 st48">M2</text>
<rect x="416.27" y="159.2" class="st21" width="6.53" height="10.09"/>
<text transform="matrix(1 0 0 1 416.509 165.8808)" class="st47 st48">M3</text>
<rect x="407.89" y="19" class="st22" width="5.07" height="10.09"/>
<rect x="415.6" y="19" class="st22" width="5.07" height="10.09"/>
<text transform="matrix(1 0 0 1 389.582 25.6689)" class="st47 st48">M1</text>
<text transform="matrix(1 0 0 1 407.0685 25.6409)" class="st47 st48">M2</text>
<text transform="matrix(1 0 0 1 416.509 25.6972)" class="st47 st48">M3</text>
<line class="st12" x1="95" y1="56.63" x2="157.5" y2="56.63"/>
<line class="st12" x1="95.03" y1="60.01" x2="95.03" y2="56.25"/>
<line class="st12" x1="157.38" y1="60.09" x2="157.38" y2="56.32"/>
<g>
	<text transform="matrix(1 0 0 1 96.4872 53.1238)" class="st13 st45 st53">Median native 3’UTR</text>
</g>
<g>
	<g>
		<line class="st8" x1="97.23" y1="65.48" x2="98.23" y2="65.48"/>
		<line class="st23" x1="99.78" y1="65.48" x2="152.99" y2="65.48"/>
		<line class="st8" x1="153.76" y1="65.48" x2="154.76" y2="65.48"/>
		<g>
			<polygon points="98.29,66.87 97.7,65.48 98.29,64.09 95,65.48 			"/>
		</g>
		<g>
			<polygon points="153.71,66.87 154.3,65.48 153.71,64.09 157,65.48 			"/>
		</g>
	</g>
</g>
<text transform="matrix(1 0 0 1 120.7904 62.9797)" class="st47 st51">87 bp</text>
<g>
	<g>
		<line class="st8" x1="160.55" y1="70.33" x2="161.55" y2="70.33"/>
		<line class="st24" x1="163.03" y1="70.33" x2="234.7" y2="70.33"/>
		<line class="st8" x1="235.44" y1="70.33" x2="236.44" y2="70.33"/>
		<g>
			<polygon points="161.61,71.72 161.02,70.33 161.61,68.94 158.31,70.33 			"/>
		</g>
		<g>
			<polygon points="235.38,71.72 235.97,70.33 235.38,68.94 238.68,70.33 			"/>
		</g>
	</g>
</g>
<text transform="matrix(1 0 0 1 192.7388 67.8288)" class="st47 st51">114 bp</text>
</svg>
