<?xml version="1.0" encoding="utf-8"?>
<!-- Generator: Adobe Illustrator 25.1.0, SVG Export Plug-In . SVG Version: 6.00 Build 0)  -->
<svg version="1.1" id="Layer_1" xmlns="http://www.w3.org/2000/svg" xmlns:xlink="http://www.w3.org/1999/xlink" x="0px" y="0px"
	 viewBox="0 0 566.93 255.12" style="enable-background:new 0 0 566.93 255.12;" xml:space="preserve">
<style type="text/css">
	.st0{fill:none;stroke:#B2B2B2;stroke-width:0.5;stroke-miterlimit:10;}
	.st1{fill:#EDEDED;stroke:#575656;stroke-width:0.75;stroke-miterlimit:10;}
	.st2{fill:#F4F4F4;}
	.st3{fill:none;stroke:#000000;stroke-width:0.5;stroke-miterlimit:10;}
	.st4{fill:#F4F4F4;stroke:#575656;stroke-width:0.75;stroke-miterlimit:10;}
	.st5{fill:#CFCECE;}
	.st6{fill:none;stroke:#8DA0AA;stroke-width:0.75;stroke-miterlimit:10;}
	.st7{fill:#8DA0AA;}
	.st8{fill:none;stroke:#000000;stroke-width:0.75;stroke-miterlimit:10;}
	.st9{fill:none;stroke:#000000;stroke-width:0.75;stroke-miterlimit:10;stroke-dasharray:1.8428,1.3821;}
	.st10{fill:none;stroke:#000000;stroke-width:0.75;stroke-miterlimit:10;stroke-dasharray:1.7795,1.3346;}
	.st11{fill:none;stroke:#000000;stroke-width:0.75;stroke-miterlimit:10;stroke-dasharray:2.0127,1.5095;}
	.st12{fill:none;stroke:#9D9D9C;stroke-width:0.75;stroke-miterlimit:10;}
	.st13{fill:#9D9D9C;}
	.st14{fill:none;stroke:#C05558;stroke-width:0.5;stroke-miterlimit:10;}
	.st15{fill:none;stroke:#5978BA;stroke-width:0.5;stroke-miterlimit:10;}
	.st16{fill:none;stroke:#71519C;stroke-width:0.5;stroke-miterlimit:10;}
	.st17{fill:none;stroke:#CCA0CA;stroke-width:0.5;stroke-miterlimit:10;}
	.st18{fill:none;stroke:#7FBF74;stroke-width:0.5;stroke-miterlimit:10;}
	.st19{fill:#C4E0C0;}
	.st20{fill:#90A9D3;}
	.st21{fill:#B3A1CE;}
	.st22{fill:#F4A3A5;}
	.st23{fill:none;stroke:#000000;stroke-width:0.75;stroke-miterlimit:10;stroke-dasharray:2.0565,1.5424;}
	.st24{fill:none;stroke:#000000;stroke-width:0.75;stroke-miterlimit:10;stroke-dasharray:1.9702,1.4777;}
	.st25{fill:none;stroke:#000000;stroke-width:0.75;stroke-miterlimit:10;stroke-dasharray:1.9859,1.4894;}
	.st26{fill:none;stroke:#000000;stroke-width:0.75;stroke-miterlimit:10;stroke-dasharray:1.9956,1.4967;}
	.st27{fill:none;stroke:#000000;stroke-width:0.75;stroke-miterlimit:10;stroke-dasharray:1.8742,1.4056;}
	.st28{fill:none;stroke:#000000;stroke-width:0.75;stroke-miterlimit:10;stroke-dasharray:1.8076,1.3557;}
	.st29{fill:none;stroke:#AF8084;stroke-width:0.5;stroke-miterlimit:10;}
	.st30{fill:none;stroke:#8292AF;stroke-width:0.5;stroke-miterlimit:10;}
	.st31{fill:none;stroke:#8A809B;stroke-width:0.5;stroke-miterlimit:10;}
	.st32{fill:none;stroke:#C6AFC6;stroke-width:0.5;stroke-miterlimit:10;}
	.st33{fill:none;stroke:#000000;stroke-width:0.75;stroke-miterlimit:10;stroke-dasharray:2.0155,1.5116;}
	.st34{fill:none;stroke:#000000;stroke-width:0.75;stroke-miterlimit:10;stroke-dasharray:2.025,1.5187;}
	.st35{fill:none;stroke:#000000;stroke-width:0.75;stroke-miterlimit:10;stroke-dasharray:1.9627,1.472;}
	.st36{fill:none;stroke:#000000;stroke-width:0.75;stroke-miterlimit:10;stroke-dasharray:1.9168,1.4376;}
	.st37{fill:none;stroke:#000000;stroke-width:0.75;stroke-miterlimit:10;stroke-dasharray:2.0046,1.5034;}
	.st38{fill:none;stroke:#000000;stroke-width:0.75;stroke-miterlimit:10;stroke-dasharray:2.0045,1.5034;}
	.st39{fill:none;stroke:#CCC3E0;stroke-width:0.5;stroke-miterlimit:10;}
	.st40{fill:none;stroke:#BCA6D1;stroke-width:0.5;stroke-miterlimit:10;}
	.st41{fill:none;stroke:#000000;stroke-width:0.75;stroke-miterlimit:10;stroke-dasharray:2,1.5;}
	.st42{fill:#C6C6C6;}
	.st43{fill:none;stroke:#9DB798;stroke-width:0.5;stroke-miterlimit:10;}
	.st44{fill:#C4C4C4;}
	.st45{font-family:'GillSans';}
	.st46{font-size:5.3737px;}
	.st47{font-family:'MyriadPro-Regular';}
	.st48{font-size:4.5827px;}
	.st49{font-size:8.3595px;}
	.st50{font-size:6.4158px;}
	.st51{font-size:4.5px;}
	.st52{font-size:7px;}
	.st53{fill:#E52421;}
	.st54{fill:#5978BA;}
	.st55{font-size:5.37px;}
	.st56{fill:#B69094;}
	.st57{fill:#919CAF;}
	.st58{fill:#817496;}
	.st59{fill:#BFAFBF;}
	.st60{fill:#71519C;}
	.st61{fill:#B2B2B2;}
	.st62{fill:#009640;}
	.st63{fill:#96AF91;}
</style>
<rect x="94.47" y="159.5" class="st2" width="82.04" height="13.57"/>
<rect x="81.92" y="117.75" class="st3" width="193.92" height="59.74"/>
<rect x="95.1" y="141.8" class="st1" width="176.17" height="10.99"/>
<g>
	<g>
		<line class="st6" x1="134.41" y1="153.16" x2="134.41" y2="163.32"/>
		<g>
			<polygon class="st7" points="133.02,162.27 134.41,162.85 135.8,162.27 134.41,165.56 			"/>
		</g>
	</g>
</g>
<g>
	<g>
		<line class="st6" x1="158.75" y1="153.16" x2="158.75" y2="156.9"/>
		<g>
			<polygon class="st7" points="157.36,155.84 158.75,156.43 160.14,155.84 158.75,159.14 			"/>
		</g>
	</g>
</g>
<g>
	<text transform="matrix(1 0 0 1 96.0395 164.6695)" class="st44 st45 st46">AAATCACAG</text>
</g>
<g>
	<g>
		<line class="st6" x1="113.28" y1="153.16" x2="113.28" y2="156.9"/>
		<g>
			<polygon class="st7" points="111.89,155.84 113.28,156.43 114.67,155.84 113.28,159.14 			"/>
		</g>
	</g>
</g>
<g>
	<text transform="matrix(1 0 0 1 120.0553 170.9456)" class="st44 st45 st46">CAAGTTAAT</text>
</g>
<g>
	<text transform="matrix(1 0 0 1 144.0561 164.5374)" class="st44 st45 st46">TTATGTTGG</text>
</g>
<g>
	<g>
		<line class="st8" x1="97.34" y1="138.69" x2="98.34" y2="138.69"/>
		<line class="st25" x1="99.83" y1="138.69" x2="106.03" y2="138.69"/>
		<line class="st8" x1="106.78" y1="138.69" x2="107.78" y2="138.69"/>
		<g>
			<polygon points="98.39,140.08 97.8,138.69 98.39,137.3 95.1,138.69 			"/>
		</g>
		<g>
			<polygon points="106.73,140.08 107.32,138.69 106.73,137.3 110.02,138.69 			"/>
		</g>
	</g>
</g>
<text transform="matrix(1 0 0 1 98.2646 136.389)" class="st47 st48">21 bp</text>
<text transform="matrix(1 0 0 1 118.7187 136.388)" class="st47 st48">20 bp</text>
<text transform="matrix(1 0 0 1 142.2968 136.3893)" class="st47 st48">24 bp</text>
<g>
	<g>
		<line class="st8" x1="164.26" y1="138.69" x2="165.26" y2="138.69"/>
		<line class="st26" x1="166.75" y1="138.69" x2="267.28" y2="138.69"/>
		<line class="st8" x1="268.03" y1="138.69" x2="269.03" y2="138.69"/>
		<g>
			<polygon points="165.31,140.08 164.72,138.69 165.31,137.3 162.02,138.69 			"/>
		</g>
		<g>
			<polygon points="267.98,140.08 268.57,138.69 267.98,137.3 271.27,138.69 			"/>
		</g>
	</g>
</g>
<text transform="matrix(1 0 0 1 207.4716 136.3885)" class="st47 st48">155 bp</text>
<g>
	<text transform="matrix(1 0 0 1 21.4552 141.4166)"><tspan x="0" y="0" class="st45 st49">tTSA1-mod0 </tspan><tspan x="-7.81" y="10.03" class="st45 st49">3’UTR-terminator</tspan><tspan x="8.66" y="20.06" class="st45 st49">(246 bp)</tspan></text>
</g>
<g>
	<g>
		<line class="st8" x1="118.56" y1="138.69" x2="119.56" y2="138.69"/>
		<line class="st27" x1="120.97" y1="138.69" x2="126.83" y2="138.69"/>
		<line class="st8" x1="127.53" y1="138.69" x2="128.53" y2="138.69"/>
		<g>
			<polygon points="119.62,140.08 119.03,138.69 119.62,137.3 116.33,138.69 			"/>
		</g>
		<g>
			<polygon points="127.48,140.08 128.07,138.69 127.48,137.3 130.77,138.69 			"/>
		</g>
	</g>
</g>
<g>
	<g>
		<line class="st8" x1="140.4" y1="138.69" x2="141.4" y2="138.69"/>
		<line class="st28" x1="142.76" y1="138.69" x2="151.57" y2="138.69"/>
		<line class="st8" x1="152.25" y1="138.69" x2="153.25" y2="138.69"/>
		<g>
			<polygon points="141.46,140.08 140.87,138.69 141.46,137.3 138.17,138.69 			"/>
		</g>
		<g>
			<polygon points="152.2,140.08 152.79,138.69 152.2,137.3 155.49,138.69 			"/>
		</g>
	</g>
</g>
<text transform="matrix(1 0 0 1 195.9211 167.3651)" class="st13 st47 st50">Random sequences</text>
<g>
	<g>
		<line class="st12" x1="178.91" y1="166.03" x2="193.48" y2="166.03"/>
		<g>
			<polygon class="st13" points="179.96,167.42 179.37,166.03 179.96,164.64 176.67,166.03 			"/>
		</g>
	</g>
</g>
<rect x="110.02" y="142.27" class="st5" width="6.53" height="10.09"/>
<text transform="matrix(1 0 0 1 110.2521 148.952)" class="st47 st51">M1</text>
<rect x="131.14" y="142.24" class="st5" width="6.53" height="10.09"/>
<text transform="matrix(1 0 0 1 131.3774 148.9239)" class="st47 st51">M2</text>
<rect x="155.49" y="142.24" class="st5" width="6.53" height="10.09"/>
<text transform="matrix(1 0 0 1 155.7231 148.9239)" class="st47 st51">M3</text>
<line class="st12" x1="95.34" y1="129.31" x2="200.73" y2="129.31"/>
<line class="st12" x1="95.4" y1="132.69" x2="95.4" y2="128.93"/>
<line class="st12" x1="200.54" y1="132.77" x2="200.54" y2="129"/>
<g>
	<text transform="matrix(1 0 0 1 121.6344 126.6024)" class="st13 st45 st52">Modified 3’UTR</text>
</g>
<text transform="matrix(1 0 0 1 423.9131 39.5147)"><tspan x="0" y="0" class="st53 st45 st46">ATATTC</tspan><tspan x="20.71" y="0" class="st44 st45 st46">TGG</tspan></text>
<text transform="matrix(1 0 0 1 391.562 94.0626)" class="st54 st45 st55">UGUAHMNUA</text>
<text transform="matrix(1 0 0 1 296.1832 27.6417)"><tspan x="0" y="0" class="st56 st45 st49">tTSA1-modB </tspan><tspan x="-7.55" y="10.03" class="st56 st45 st49">3’UTR-terminator</tspan></text>
<text transform="matrix(1 0 0 1 295.7486 75.4286)"><tspan x="0" y="0" class="st57 st45 st49">tTSA1-modA </tspan><tspan x="-7.11" y="10.03" class="st57 st45 st49">3’UTR-terminator</tspan></text>
<text transform="matrix(1 0 0 1 295.4019 124.8038)"><tspan x="0" y="0" class="st58 st45 st49">tTSA1-modD </tspan><tspan x="-6.77" y="10.03" class="st58 st45 st49">3’UTR-terminator</tspan></text>
<text transform="matrix(1 0 0 1 296.4471 170.6576)"><tspan x="0" y="0" class="st59 st45 st49">tTSA1-modE </tspan><tspan x="-7.81" y="10.03" class="st59 st45 st49">3’UTR-terminator</tspan></text>
<rect x="355.54" y="12.03" class="st29" width="193.92" height="37.33"/>
<rect x="368.72" y="16.65" class="st1" width="176.17" height="10.99"/>
<g>
	<g>
		<line class="st6" x1="408.02" y1="28" x2="408.02" y2="38.16"/>
		<g>
			<polygon class="st7" points="406.63,37.11 408.02,37.7 409.41,37.11 408.02,40.4 			"/>
		</g>
	</g>
</g>
<g>
	<g>
		<line class="st6" x1="432.37" y1="28" x2="432.37" y2="31.74"/>
		<g>
			<polygon class="st7" points="430.98,30.69 432.37,31.28 433.76,30.69 432.37,33.98 			"/>
		</g>
	</g>
</g>
<g>
	<text transform="matrix(1 0 0 1 369.6544 39.5152)" class="st44 st45 st46">AAATCACAG</text>
</g>
<g>
	<g>
		<line class="st6" x1="386.9" y1="28" x2="386.9" y2="31.74"/>
		<g>
			<polygon class="st7" points="385.51,30.69 386.9,31.28 388.29,30.69 386.9,33.98 			"/>
		</g>
	</g>
</g>
<rect x="383.63" y="17.12" class="st5" width="6.53" height="10.09"/>
<text transform="matrix(1 0 0 1 383.867 23.7979)" class="st47 st51">M1</text>
<rect x="404.76" y="17.09" class="st5" width="6.53" height="10.09"/>
<rect x="429.1" y="17.09" class="st5" width="6.53" height="10.09"/>
<rect x="355.54" y="60.26" class="st30" width="193.92" height="37.17"/>
<rect x="368.72" y="64.88" class="st1" width="176.17" height="10.99"/>
<g>
	<g>
		<line class="st6" x1="408.02" y1="76.23" x2="408.02" y2="86.39"/>
		<g>
			<polygon class="st7" points="406.63,85.34 408.02,85.93 409.41,85.34 408.02,88.63 			"/>
		</g>
	</g>
</g>
<g>
	<g>
		<line class="st6" x1="432.37" y1="76.23" x2="432.37" y2="79.97"/>
		<g>
			<polygon class="st7" points="430.98,78.92 432.37,79.51 433.76,78.92 432.37,82.21 			"/>
		</g>
	</g>
</g>
<g>
	<text transform="matrix(1 0 0 1 369.6544 87.7413)" class="st44 st45 st46">AAATCACAG</text>
</g>
<g>
	<g>
		<line class="st6" x1="386.9" y1="76.23" x2="386.9" y2="79.97"/>
		<g>
			<polygon class="st7" points="385.51,78.92 386.9,79.51 388.29,78.92 386.9,82.21 			"/>
		</g>
	</g>
</g>
<g>
	<text transform="matrix(1 0 0 1 417.671 87.6092)" class="st44 st45 st46">TTATGTTGG</text>
</g>
<rect x="383.63" y="65.34" class="st5" width="6.53" height="10.09"/>
<text transform="matrix(1 0 0 1 383.867 72.024)" class="st47 st51">M1</text>
<rect x="404.76" y="65.31" class="st20" width="6.53" height="10.09"/>
<text transform="matrix(1 0 0 1 404.9922 71.9957)" class="st47 st51">M2</text>
<rect x="429.1" y="65.31" class="st5" width="6.53" height="10.09"/>
<text transform="matrix(1 0 0 1 429.338 71.9957)" class="st47 st51">M3</text>
<rect x="357.36" y="107.64" class="st31" width="193.92" height="37.66"/>
<rect x="370.54" y="112.26" class="st1" width="176.17" height="10.99"/>
<g>
	<g>
		<line class="st6" x1="409.84" y1="123.61" x2="409.84" y2="133.77"/>
		<g>
			<polygon class="st7" points="408.45,132.72 409.84,133.31 411.23,132.72 409.84,136.01 			"/>
		</g>
	</g>
</g>
<g>
	<g>
		<line class="st6" x1="434.19" y1="123.61" x2="434.19" y2="127.35"/>
		<g>
			<polygon class="st7" points="432.8,126.3 434.19,126.89 435.58,126.3 434.19,129.59 			"/>
		</g>
	</g>
</g>
<g>
	<g>
		<line class="st6" x1="388.72" y1="123.61" x2="388.72" y2="127.35"/>
		<g>
			<polygon class="st7" points="387.33,126.3 388.72,126.89 390.11,126.3 388.72,129.59 			"/>
		</g>
	</g>
</g>
<g>
	<text transform="matrix(1 0 0 1 395.49 141.4012)" class="st44 st45 st46">CAAGTTAAT</text>
</g>
<rect x="385.45" y="112.73" class="st21" width="6.53" height="10.09"/>
<text transform="matrix(1 0 0 1 385.6868 119.4076)" class="st47 st51">M1</text>
<rect x="406.58" y="112.7" class="st5" width="6.53" height="10.09"/>
<text transform="matrix(1 0 0 1 406.8121 119.3792)" class="st47 st51">M2</text>
<rect x="430.92" y="112.7" class="st21" width="6.53" height="10.09"/>
<text transform="matrix(1 0 0 1 431.1578 119.3792)" class="st47 st51">M3</text>
<rect x="406.22" y="17.12" class="st22" width="5.07" height="10.09"/>
<rect x="429.1" y="17.09" class="st22" width="5.07" height="10.09"/>
<text transform="matrix(1 0 0 1 405.3941 23.7555)" class="st47 st51">M2</text>
<text transform="matrix(1 0 0 1 430.013 23.7838)" class="st47 st51">M3</text>
<text transform="matrix(1 0 0 1 391.9805 45.995)"><tspan x="0" y="0" class="st44 st45 st46">CAA</tspan><tspan x="10.97" y="0" class="st53 st45 st46">ATATTC</tspan></text>
<text transform="matrix(1 0 0 1 419.8063 135.0428)" class="st60 st45 st55">HWNCAUUWY</text>
<text transform="matrix(1 0 0 1 366.7176 135.0428)" class="st60 st45 st55">HWNCAUUWY</text>
<rect x="357.36" y="155.52" class="st32" width="193.92" height="37.66"/>
<rect x="370.54" y="160.13" class="st1" width="176.17" height="10.99"/>
<g>
	<g>
		<line class="st6" x1="409.84" y1="171.48" x2="409.84" y2="181.65"/>
		<g>
			<polygon class="st7" points="408.45,180.59 409.84,181.18 411.23,180.59 409.84,183.88 			"/>
		</g>
	</g>
</g>
<g>
	<g>
		<line class="st6" x1="434.19" y1="171.48" x2="434.19" y2="175.23"/>
		<g>
			<polygon class="st7" points="432.8,174.17 434.19,174.76 435.58,174.17 434.19,177.46 			"/>
		</g>
	</g>
</g>
<g>
	<g>
		<line class="st6" x1="388.72" y1="171.48" x2="388.72" y2="175.23"/>
		<g>
			<polygon class="st7" points="387.33,174.17 388.72,174.76 390.11,174.17 388.72,177.46 			"/>
		</g>
	</g>
</g>
<g>
	<text transform="matrix(1 0 0 1 395.49 189.274)" class="st54 st45 st55">UGUAHMNUA</text>
</g>
<rect x="385.45" y="160.6" class="st21" width="6.53" height="10.09"/>
<text transform="matrix(1 0 0 1 385.6868 167.2804)" class="st47 st51">M1</text>
<rect x="406.58" y="160.57" class="st20" width="6.53" height="10.09"/>
<text transform="matrix(1 0 0 1 406.8121 167.252)" class="st47 st51">M2</text>
<rect x="430.92" y="160.57" class="st21" width="6.53" height="10.09"/>
<text transform="matrix(1 0 0 1 431.1578 167.252)" class="st47 st51">M3</text>
<text transform="matrix(1 0 0 1 419.7925 182.9156)" class="st60 st45 st55">HWNCAUUWY</text>
<text transform="matrix(1 0 0 1 366.7176 182.9156)" class="st60 st45 st55">HWNCAUUWY</text>
<rect x="81.48" y="58.09" class="st0" width="180.67" height="45.95"/>
<rect x="91.7" y="88.04" class="st1" width="157.68" height="10.99"/>
<text transform="matrix(1 0 0 1 24.0706 76.1156)"><tspan x="0" y="0" class="st61 st45 st49">tRPS3-WT </tspan><tspan x="-11.34" y="10.03" class="st61 st45 st49">3’UTR-terminator</tspan><tspan x="5.13" y="20.06" class="st61 st45 st49">(200 bp)</tspan></text>
<line class="st12" x1="92.01" y1="69.64" x2="177.59" y2="69.64"/>
<line class="st12" x1="92.05" y1="73.03" x2="92.05" y2="69.26"/>
<line class="st12" x1="177.43" y1="73.11" x2="177.43" y2="69.34"/>
<g>
	<text transform="matrix(1 0 0 1 104.3236 66.9498)" class="st13 st45 st52">Median native 3’UTR</text>
</g>
<g>
	<g>
		<line class="st8" x1="94.25" y1="78.49" x2="95.25" y2="78.49"/>
		<line class="st33" x1="96.76" y1="78.49" x2="173.6" y2="78.49"/>
		<line class="st8" x1="174.35" y1="78.49" x2="175.35" y2="78.49"/>
		<g>
			<polygon points="95.3,79.88 94.71,78.49 95.3,77.1 92.01,78.49 			"/>
		</g>
		<g>
			<polygon points="174.3,79.88 174.89,78.49 174.3,77.1 177.59,78.49 			"/>
		</g>
	</g>
</g>
<text transform="matrix(1 0 0 1 128.6274 75.994)" class="st47 st48">120 bp</text>
<g>
	<g>
		<line class="st8" x1="179.83" y1="83.34" x2="180.83" y2="83.34"/>
		<line class="st34" x1="182.35" y1="83.34" x2="245.38" y2="83.34"/>
		<line class="st8" x1="246.14" y1="83.34" x2="247.14" y2="83.34"/>
		<g>
			<polygon points="180.88,84.73 180.29,83.34 180.88,81.95 177.59,83.34 			"/>
		</g>
		<g>
			<polygon points="246.08,84.73 246.67,83.34 246.08,81.95 249.38,83.34 			"/>
		</g>
	</g>
</g>
<text transform="matrix(1 0 0 1 207.472 80.8429)" class="st47 st48">100 bp</text>
<g>
	<text transform="matrix(1 0 0 1 425.4807 231.2945)" class="st62 st45 st46">GTATACCTA</text>
</g>
<g>
	<text transform="matrix(1 0 0 1 395.1292 238.2301)" class="st62 st45 st46">GTATACCTA</text>
</g>
<text transform="matrix(1 0 0 1 295.5774 217.1637)"><tspan x="0" y="0" class="st63 st45 st49">tTSA1-modC </tspan><tspan x="-6.94" y="10.03" class="st63 st45 st49">3’UTR-terminator</tspan></text>
<rect x="357.1" y="203.81" class="st43" width="193.92" height="37.61"/>
<rect x="370.28" y="208.43" class="st1" width="176.17" height="10.99"/>
<g>
	<g>
		<line class="st6" x1="409.59" y1="219.78" x2="409.59" y2="229.94"/>
		<g>
			<polygon class="st7" points="408.2,228.89 409.59,229.48 410.98,228.89 409.59,232.18 			"/>
		</g>
	</g>
</g>
<g>
	<g>
		<line class="st6" x1="433.93" y1="219.78" x2="433.93" y2="223.52"/>
		<g>
			<polygon class="st7" points="432.55,222.47 433.93,223.06 435.32,222.47 433.93,225.76 			"/>
		</g>
	</g>
</g>
<g>
	<text transform="matrix(1 0 0 1 371.2216 231.295)" class="st44 st45 st46">AAATCACAG</text>
</g>
<g>
	<g>
		<line class="st6" x1="388.46" y1="219.78" x2="388.46" y2="223.52"/>
		<g>
			<polygon class="st7" points="387.08,222.47 388.46,223.06 389.85,222.47 388.46,225.76 			"/>
		</g>
	</g>
</g>
<rect x="385.2" y="208.9" class="st5" width="6.53" height="10.09"/>
<text transform="matrix(1 0 0 1 385.4342 215.5777)" class="st47 st51">M1</text>
<rect x="406.32" y="208.87" class="st19" width="6.53" height="10.09"/>
<text transform="matrix(1 0 0 1 406.5595 215.5494)" class="st47 st51">M2</text>
<rect x="430.67" y="208.87" class="st19" width="6.53" height="10.09"/>
<text transform="matrix(1 0 0 1 430.9052 215.5494)" class="st47 st51">M3</text>
</svg>
